STARTFONT 2.1
FONT -Efont-Fixed-Bold-R-Normal--16-160-75-75-C-80-ISO10646-1
SIZE 16 75 75
FONTBOUNDINGBOX 8 16 0 -2
STARTPROPERTIES 18
COPYRIGHT "(c) Copyright 2000-2003 /efont/ The Electronic Font Open Laboratory."
FOUNDRY "Efont"
FAMILY_NAME "Fixed"
WEIGHT_NAME "Bold"
SLANT "R"
SETWIDTH_NAME "Normal"
ADD_STYLE_NAME ""
PIXEL_SIZE 16
POINT_SIZE 160
RESOLUTION_X 75
RESOLUTION_Y 75
AVERAGE_WIDTH 80
CHARSET_REGISTRY "ISO10646"
CHARSET_ENCODING "1"
_MULE_BASELINE_OFFSET -3
FONT_ASCENT 14
FONT_DESCENT 2
DEFAULT_CHAR 32
ENDPROPERTIES
CHARS 3975
STARTCHAR U+0000
ENCODING 0
SWIDTH 500 0
DWIDTH 8 0
BBX 8 16 0 -2
BITMAP 
00
d5
00
c3
00
c3
00
c3
00
c3
00
c3
00
d5
00
00
ENDCHAR
STARTCHAR U+0020
ENCODING 32
SWIDTH 500 0
DWIDTH 8 0
BBX 8 16 0 -2
BITMAP 
00
00
00
00
00
00
00
00
00
00
00
00
00
00
00
00
ENDCHAR
STARTCHAR U+0021
ENCODING 33
SWIDTH 500 0
DWIDTH 8 0
BBX 8 16 0 -2
BITMAP 
00
00
00
00
18
18
18
18
18
18
18
00
18
18
00
00
ENDCHAR
STARTCHAR U+0022
ENCODING 34
SWIDTH 500 0
DWIDTH 8 0
BBX 8 16 0 -2
BITMAP 
00
00
6c
6c
6c
6c
00
00
00
00
00
00
00
00
00
00
ENDCHAR
STARTCHAR U+0023
ENCODING 35
SWIDTH 500 0
DWIDTH 8 0
BBX 8 16 0 -2
BITMAP 
00
00
00
00
36
36
36
fe
6c
6c
fe
d8
d8
d8
00
00
ENDCHAR
STARTCHAR U+0024
ENCODING 36
SWIDTH 500 0
DWIDTH 8 0
BBX 8 16 0 -2
BITMAP 
00
00
00
00
18
7e
db
d8
78
1e
1b
db
7e
18
00
00
ENDCHAR
STARTCHAR U+0025
ENCODING 37
SWIDTH 500 0
DWIDTH 8 0
BBX 8 16 0 -2
BITMAP 
00
00
00
00
73
da
da
74
18
18
36
6b
6b
ce
00
00
ENDCHAR
STARTCHAR U+0026
ENCODING 38
SWIDTH 500 0
DWIDTH 8 0
BBX 8 16 0 -2
BITMAP 
00
00
00
00
3c
66
66
66
3c
7b
cd
c6
ce
7b
00
00
ENDCHAR
STARTCHAR U+0027
ENCODING 39
SWIDTH 500 0
DWIDTH 8 0
BBX 8 16 0 -2
BITMAP 
00
00
18
18
18
18
00
00
00
00
00
00
00
00
00
00
ENDCHAR
STARTCHAR U+0028
ENCODING 40
SWIDTH 500 0
DWIDTH 8 0
BBX 8 16 0 -2
BITMAP 
00
00
00
0c
18
18
30
30
30
30
30
30
18
18
0c
00
ENDCHAR
STARTCHAR U+0029
ENCODING 41
SWIDTH 500 0
DWIDTH 8 0
BBX 8 16 0 -2
BITMAP 
00
00
00
60
30
30
18
18
18
18
18
18
30
30
60
00
ENDCHAR
STARTCHAR U+002A
ENCODING 42
SWIDTH 500 0
DWIDTH 8 0
BBX 8 16 0 -2
BITMAP 
00
00
00
00
00
00
18
db
6a
3c
6a
db
18
00
00
00
ENDCHAR
STARTCHAR U+002B
ENCODING 43
SWIDTH 500 0
DWIDTH 8 0
BBX 8 16 0 -2
BITMAP 
00
00
00
00
00
00
18
18
18
ff
18
18
18
00
00
00
ENDCHAR
STARTCHAR U+002C
ENCODING 44
SWIDTH 500 0
DWIDTH 8 0
BBX 8 16 0 -2
BITMAP 
00
00
00
00
00
00
00
00
00
00
00
00
38
18
18
30
ENDCHAR
STARTCHAR U+002D
ENCODING 45
SWIDTH 500 0
DWIDTH 8 0
BBX 8 16 0 -2
BITMAP 
00
00
00
00
00
00
00
00
00
fe
00
00
00
00
00
00
ENDCHAR
STARTCHAR U+002E
ENCODING 46
SWIDTH 500 0
DWIDTH 8 0
BBX 8 16 0 -2
BITMAP 
00
00
00
00
00
00
00
00
00
00
00
00
38
38
00
00
ENDCHAR
STARTCHAR U+002F
ENCODING 47
SWIDTH 500 0
DWIDTH 8 0
BBX 8 16 0 -2
BITMAP 
00
00
00
00
06
06
0c
18
18
30
30
60
c0
c0
00
00
ENDCHAR
STARTCHAR U+0030
ENCODING 48
SWIDTH 500 0
DWIDTH 8 0
BBX 8 16 0 -2
BITMAP 
00
00
00
00
38
6c
c6
c6
c6
c6
c6
c6
6c
38
00
00
ENDCHAR
STARTCHAR U+0031
ENCODING 49
SWIDTH 500 0
DWIDTH 8 0
BBX 8 16 0 -2
BITMAP 
00
00
00
00
18
38
68
18
18
18
18
18
18
7e
00
00
ENDCHAR
STARTCHAR U+0032
ENCODING 50
SWIDTH 500 0
DWIDTH 8 0
BBX 8 16 0 -2
BITMAP 
00
00
00
00
7c
c6
c6
06
1c
30
60
c0
c0
fe
00
00
ENDCHAR
STARTCHAR U+0033
ENCODING 51
SWIDTH 500 0
DWIDTH 8 0
BBX 8 16 0 -2
BITMAP 
00
00
00
00
7c
c6
c6
06
3c
06
06
c6
c6
7c
00
00
ENDCHAR
STARTCHAR U+0034
ENCODING 52
SWIDTH 500 0
DWIDTH 8 0
BBX 8 16 0 -2
BITMAP 
00
00
00
00
0c
1c
34
6c
cc
cc
fe
0c
0c
0c
00
00
ENDCHAR
STARTCHAR U+0035
ENCODING 53
SWIDTH 500 0
DWIDTH 8 0
BBX 8 16 0 -2
BITMAP 
00
00
00
00
fe
c0
c0
c0
fc
06
06
06
c6
7c
00
00
ENDCHAR
STARTCHAR U+0036
ENCODING 54
SWIDTH 500 0
DWIDTH 8 0
BBX 8 16 0 -2
BITMAP 
00
00
00
00
3c
60
c0
c0
fc
c6
c6
c6
c6
7c
00
00
ENDCHAR
STARTCHAR U+0037
ENCODING 55
SWIDTH 500 0
DWIDTH 8 0
BBX 8 16 0 -2
BITMAP 
00
00
00
00
fe
06
06
0c
0c
0c
18
18
18
18
00
00
ENDCHAR
STARTCHAR U+0038
ENCODING 56
SWIDTH 500 0
DWIDTH 8 0
BBX 8 16 0 -2
BITMAP 
00
00
00
00
7c
c6
c6
c6
7c
c6
c6
c6
c6
7c
00
00
ENDCHAR
STARTCHAR U+0039
ENCODING 57
SWIDTH 500 0
DWIDTH 8 0
BBX 8 16 0 -2
BITMAP 
00
00
00
00
7c
c6
c6
c6
7e
06
06
06
0c
78
00
00
ENDCHAR
STARTCHAR U+003A
ENCODING 58
SWIDTH 500 0
DWIDTH 8 0
BBX 8 16 0 -2
BITMAP 
00
00
00
00
00
00
38
38
00
00
00
38
38
00
00
00
ENDCHAR
STARTCHAR U+003B
ENCODING 59
SWIDTH 500 0
DWIDTH 8 0
BBX 8 16 0 -2
BITMAP 
00
00
00
00
00
00
38
38
00
00
00
38
18
18
30
00
ENDCHAR
STARTCHAR U+003C
ENCODING 60
SWIDTH 500 0
DWIDTH 8 0
BBX 8 16 0 -2
BITMAP 
00
00
00
00
00
06
0c
18
30
60
30
18
0c
06
00
00
ENDCHAR
STARTCHAR U+003D
ENCODING 61
SWIDTH 500 0
DWIDTH 8 0
BBX 8 16 0 -2
BITMAP 
00
00
00
00
00
00
00
fe
00
00
00
fe
00
00
00
00
ENDCHAR
STARTCHAR U+003E
ENCODING 62
SWIDTH 500 0
DWIDTH 8 0
BBX 8 16 0 -2
BITMAP 
00
00
00
00
00
c0
60
30
18
0c
18
30
60
c0
00
00
ENDCHAR
STARTCHAR U+003F
ENCODING 63
SWIDTH 500 0
DWIDTH 8 0
BBX 8 16 0 -2
BITMAP 
00
00
00
00
7c
c6
c6
06
0c
18
18
00
18
18
00
00
ENDCHAR
STARTCHAR U+0040
ENCODING 64
SWIDTH 500 0
DWIDTH 8 0
BBX 8 16 0 -2
BITMAP 
00
00
00
00
3c
66
da
d6
d6
d6
d6
de
60
3e
00
00
ENDCHAR
STARTCHAR U+0041
ENCODING 65
SWIDTH 500 0
DWIDTH 8 0
BBX 8 16 0 -2
BITMAP 
00
00
00
00
38
6c
6c
c6
c6
fe
c6
c6
c6
c6
00
00
ENDCHAR
STARTCHAR U+0042
ENCODING 66
SWIDTH 500 0
DWIDTH 8 0
BBX 8 16 0 -2
BITMAP 
00
00
00
00
fc
c6
c6
c6
fc
c6
c6
c6
c6
fc
00
00
ENDCHAR
STARTCHAR U+0043
ENCODING 67
SWIDTH 500 0
DWIDTH 8 0
BBX 8 16 0 -2
BITMAP 
00
00
00
00
7c
c6
c6
c0
c0
c0
c0
c6
c6
7c
00
00
ENDCHAR
STARTCHAR U+0044
ENCODING 68
SWIDTH 500 0
DWIDTH 8 0
BBX 8 16 0 -2
BITMAP 
00
00
00
00
f8
cc
c6
c6
c6
c6
c6
c6
cc
f8
00
00
ENDCHAR
STARTCHAR U+0045
ENCODING 69
SWIDTH 500 0
DWIDTH 8 0
BBX 8 16 0 -2
BITMAP 
00
00
00
00
fe
c0
c0
c0
fc
c0
c0
c0
c0
fe
00
00
ENDCHAR
STARTCHAR U+0046
ENCODING 70
SWIDTH 500 0
DWIDTH 8 0
BBX 8 16 0 -2
BITMAP 
00
00
00
00
fe
c0
c0
c0
fc
c0
c0
c0
c0
c0
00
00
ENDCHAR
STARTCHAR U+0047
ENCODING 71
SWIDTH 500 0
DWIDTH 8 0
BBX 8 16 0 -2
BITMAP 
00
00
00
00
7c
c6
c6
c0
c0
de
c6
c6
ce
7a
00
00
ENDCHAR
STARTCHAR U+0048
ENCODING 72
SWIDTH 500 0
DWIDTH 8 0
BBX 8 16 0 -2
BITMAP 
00
00
00
00
c6
c6
c6
c6
fe
c6
c6
c6
c6
c6
00
00
ENDCHAR
STARTCHAR U+0049
ENCODING 73
SWIDTH 500 0
DWIDTH 8 0
BBX 8 16 0 -2
BITMAP 
00
00
00
00
7e
18
18
18
18
18
18
18
18
7e
00
00
ENDCHAR
STARTCHAR U+004A
ENCODING 74
SWIDTH 500 0
DWIDTH 8 0
BBX 8 16 0 -2
BITMAP 
00
00
00
00
3f
0c
0c
0c
0c
0c
0c
cc
cc
78
00
00
ENDCHAR
STARTCHAR U+004B
ENCODING 75
SWIDTH 500 0
DWIDTH 8 0
BBX 8 16 0 -2
BITMAP 
00
00
00
00
c6
cc
d8
d0
e0
e0
d0
d8
cc
c6
00
00
ENDCHAR
STARTCHAR U+004C
ENCODING 76
SWIDTH 500 0
DWIDTH 8 0
BBX 8 16 0 -2
BITMAP 
00
00
00
00
c0
c0
c0
c0
c0
c0
c0
c0
c0
fe
00
00
ENDCHAR
STARTCHAR U+004D
ENCODING 77
SWIDTH 500 0
DWIDTH 8 0
BBX 8 16 0 -2
BITMAP 
00
00
00
00
c6
c6
ee
ee
da
da
c6
c6
c6
c6
00
00
ENDCHAR
STARTCHAR U+004E
ENCODING 78
SWIDTH 500 0
DWIDTH 8 0
BBX 8 16 0 -2
BITMAP 
00
00
00
00
c6
e6
e6
d6
d6
da
da
ce
ce
c6
00
00
ENDCHAR
STARTCHAR U+004F
ENCODING 79
SWIDTH 500 0
DWIDTH 8 0
BBX 8 16 0 -2
BITMAP 
00
00
00
00
7c
c6
c6
c6
c6
c6
c6
c6
c6
7c
00
00
ENDCHAR
STARTCHAR U+0050
ENCODING 80
SWIDTH 500 0
DWIDTH 8 0
BBX 8 16 0 -2
BITMAP 
00
00
00
00
fc
c6
c6
c6
fc
c0
c0
c0
c0
c0
00
00
ENDCHAR
STARTCHAR U+0051
ENCODING 81
SWIDTH 500 0
DWIDTH 8 0
BBX 8 16 0 -2
BITMAP 
00
00
00
00
7c
c6
c6
c6
c6
c6
c6
da
ee
7c
07
00
ENDCHAR
STARTCHAR U+0052
ENCODING 82
SWIDTH 500 0
DWIDTH 8 0
BBX 8 16 0 -2
BITMAP 
00
00
00
00
fc
c6
c6
c6
fc
d8
cc
cc
c6
c6
00
00
ENDCHAR
STARTCHAR U+0053
ENCODING 83
SWIDTH 500 0
DWIDTH 8 0
BBX 8 16 0 -2
BITMAP 
00
00
00
00
7c
c6
c6
c0
70
1c
06
c6
c6
7c
00
00
ENDCHAR
STARTCHAR U+0054
ENCODING 84
SWIDTH 500 0
DWIDTH 8 0
BBX 8 16 0 -2
BITMAP 
00
00
00
00
ff
18
18
18
18
18
18
18
18
18
00
00
ENDCHAR
STARTCHAR U+0055
ENCODING 85
SWIDTH 500 0
DWIDTH 8 0
BBX 8 16 0 -2
BITMAP 
00
00
00
00
c6
c6
c6
c6
c6
c6
c6
c6
c6
7c
00
00
ENDCHAR
STARTCHAR U+0056
ENCODING 86
SWIDTH 500 0
DWIDTH 8 0
BBX 8 16 0 -2
BITMAP 
00
00
00
00
c3
c3
c3
66
66
66
34
34
18
18
00
00
ENDCHAR
STARTCHAR U+0057
ENCODING 87
SWIDTH 500 0
DWIDTH 8 0
BBX 8 16 0 -2
BITMAP 
00
00
00
00
c6
c6
c6
c6
da
da
ee
ee
c6
c6
00
00
ENDCHAR
STARTCHAR U+0058
ENCODING 88
SWIDTH 500 0
DWIDTH 8 0
BBX 8 16 0 -2
BITMAP 
00
00
00
00
c6
c6
6c
6c
38
38
6c
6c
c6
c6
00
00
ENDCHAR
STARTCHAR U+0059
ENCODING 89
SWIDTH 500 0
DWIDTH 8 0
BBX 8 16 0 -2
BITMAP 
00
00
00
00
c3
c3
66
66
34
18
18
18
18
18
00
00
ENDCHAR
STARTCHAR U+005A
ENCODING 90
SWIDTH 500 0
DWIDTH 8 0
BBX 8 16 0 -2
BITMAP 
00
00
00
00
fe
06
06
0c
18
30
60
c0
c0
fe
00
00
ENDCHAR
STARTCHAR U+005B
ENCODING 91
SWIDTH 500 0
DWIDTH 8 0
BBX 8 16 0 -2
BITMAP 
00
00
00
1e
18
18
18
18
18
18
18
18
18
18
1e
00
ENDCHAR
STARTCHAR U+005C
ENCODING 92
SWIDTH 500 0
DWIDTH 8 0
BBX 8 16 0 -2
BITMAP 
00
00
00
00
c0
c0
60
30
30
18
18
0c
06
06
00
00
ENDCHAR
STARTCHAR U+005D
ENCODING 93
SWIDTH 500 0
DWIDTH 8 0
BBX 8 16 0 -2
BITMAP 
00
00
00
f0
30
30
30
30
30
30
30
30
30
30
f0
00
ENDCHAR
STARTCHAR U+005E
ENCODING 94
SWIDTH 500 0
DWIDTH 8 0
BBX 8 16 0 -2
BITMAP 
00
00
38
6c
c6
00
00
00
00
00
00
00
00
00
00
00
ENDCHAR
STARTCHAR U+005F
ENCODING 95
SWIDTH 500 0
DWIDTH 8 0
BBX 8 16 0 -2
BITMAP 
00
00
00
00
00
00
00
00
00
00
00
00
00
00
ff
00
ENDCHAR
STARTCHAR U+0060
ENCODING 96
SWIDTH 500 0
DWIDTH 8 0
BBX 8 16 0 -2
BITMAP 
00
00
38
30
30
18
00
00
00
00
00
00
00
00
00
00
ENDCHAR
STARTCHAR U+0061
ENCODING 97
SWIDTH 500 0
DWIDTH 8 0
BBX 8 16 0 -2
BITMAP 
00
00
00
00
00
00
7c
c6
06
7e
c6
c6
ce
7a
00
00
ENDCHAR
STARTCHAR U+0062
ENCODING 98
SWIDTH 500 0
DWIDTH 8 0
BBX 8 16 0 -2
BITMAP 
00
00
00
c0
c0
c0
dc
e6
c6
c6
c6
c6
e6
dc
00
00
ENDCHAR
STARTCHAR U+0063
ENCODING 99
SWIDTH 500 0
DWIDTH 8 0
BBX 8 16 0 -2
BITMAP 
00
00
00
00
00
00
7c
c6
c0
c0
c0
c0
c6
7c
00
00
ENDCHAR
STARTCHAR U+0064
ENCODING 100
SWIDTH 500 0
DWIDTH 8 0
BBX 8 16 0 -2
BITMAP 
00
00
00
06
06
06
7a
ce
c6
c6
c6
c6
ce
7a
00
00
ENDCHAR
STARTCHAR U+0065
ENCODING 101
SWIDTH 500 0
DWIDTH 8 0
BBX 8 16 0 -2
BITMAP 
00
00
00
00
00
00
7c
c6
c6
fe
c0
c0
c6
7c
00
00
ENDCHAR
STARTCHAR U+0066
ENCODING 102
SWIDTH 500 0
DWIDTH 8 0
BBX 8 16 0 -2
BITMAP 
00
00
00
1c
30
30
30
fc
30
30
30
30
30
30
00
00
ENDCHAR
STARTCHAR U+0067
ENCODING 103
SWIDTH 500 0
DWIDTH 8 0
BBX 8 16 0 -2
BITMAP 
00
00
00
00
00
06
7a
cc
cc
cc
78
60
7c
c6
c6
7c
ENDCHAR
STARTCHAR U+0068
ENCODING 104
SWIDTH 500 0
DWIDTH 8 0
BBX 8 16 0 -2
BITMAP 
00
00
00
c0
c0
c0
dc
e6
c6
c6
c6
c6
c6
c6
00
00
ENDCHAR
STARTCHAR U+0069
ENCODING 105
SWIDTH 500 0
DWIDTH 8 0
BBX 8 16 0 -2
BITMAP 
00
00
00
18
18
00
38
18
18
18
18
18
18
7e
00
00
ENDCHAR
STARTCHAR U+006A
ENCODING 106
SWIDTH 500 0
DWIDTH 8 0
BBX 8 16 0 -2
BITMAP 
00
00
00
0c
0c
00
1c
0c
0c
0c
0c
0c
0c
0c
d8
70
ENDCHAR
STARTCHAR U+006B
ENCODING 107
SWIDTH 500 0
DWIDTH 8 0
BBX 8 16 0 -2
BITMAP 
00
00
00
00
c0
c0
cc
d8
d0
e0
d0
d8
cc
c6
00
00
ENDCHAR
STARTCHAR U+006C
ENCODING 108
SWIDTH 500 0
DWIDTH 8 0
BBX 8 16 0 -2
BITMAP 
00
00
00
00
38
18
18
18
18
18
18
18
18
7e
00
00
ENDCHAR
STARTCHAR U+006D
ENCODING 109
SWIDTH 500 0
DWIDTH 8 0
BBX 8 16 0 -2
BITMAP 
00
00
00
00
00
00
f6
db
db
db
db
db
db
db
00
00
ENDCHAR
STARTCHAR U+006E
ENCODING 110
SWIDTH 500 0
DWIDTH 8 0
BBX 8 16 0 -2
BITMAP 
00
00
00
00
00
00
dc
e6
c6
c6
c6
c6
c6
c6
00
00
ENDCHAR
STARTCHAR U+006F
ENCODING 111
SWIDTH 500 0
DWIDTH 8 0
BBX 8 16 0 -2
BITMAP 
00
00
00
00
00
00
7c
c6
c6
c6
c6
c6
c6
7c
00
00
ENDCHAR
STARTCHAR U+0070
ENCODING 112
SWIDTH 500 0
DWIDTH 8 0
BBX 8 16 0 -2
BITMAP 
00
00
00
00
00
00
dc
e6
c6
c6
c6
c6
e6
dc
c0
c0
ENDCHAR
STARTCHAR U+0071
ENCODING 113
SWIDTH 500 0
DWIDTH 8 0
BBX 8 16 0 -2
BITMAP 
00
00
00
00
00
00
7a
ce
c6
c6
c6
c6
ce
7a
06
06
ENDCHAR
STARTCHAR U+0072
ENCODING 114
SWIDTH 500 0
DWIDTH 8 0
BBX 8 16 0 -2
BITMAP 
00
00
00
00
00
00
dc
e6
c6
c0
c0
c0
c0
c0
00
00
ENDCHAR
STARTCHAR U+0073
ENCODING 115
SWIDTH 500 0
DWIDTH 8 0
BBX 8 16 0 -2
BITMAP 
00
00
00
00
00
00
7c
c6
c0
70
1c
06
c6
7c
00
00
ENDCHAR
STARTCHAR U+0074
ENCODING 116
SWIDTH 500 0
DWIDTH 8 0
BBX 8 16 0 -2
BITMAP 
00
00
00
00
30
30
fc
30
30
30
30
30
30
1c
00
00
ENDCHAR
STARTCHAR U+0075
ENCODING 117
SWIDTH 500 0
DWIDTH 8 0
BBX 8 16 0 -2
BITMAP 
00
00
00
00
00
00
c6
c6
c6
c6
c6
c6
ce
7a
00
00
ENDCHAR
STARTCHAR U+0076
ENCODING 118
SWIDTH 500 0
DWIDTH 8 0
BBX 8 16 0 -2
BITMAP 
00
00
00
00
00
00
c6
c6
c6
6c
6c
6c
38
38
00
00
ENDCHAR
STARTCHAR U+0077
ENCODING 119
SWIDTH 500 0
DWIDTH 8 0
BBX 8 16 0 -2
BITMAP 
00
00
00
00
00
00
c3
db
db
db
db
db
db
76
00
00
ENDCHAR
STARTCHAR U+0078
ENCODING 120
SWIDTH 500 0
DWIDTH 8 0
BBX 8 16 0 -2
BITMAP 
00
00
00
00
00
00
c6
c6
6c
38
38
6c
c6
c6
00
00
ENDCHAR
STARTCHAR U+0079
ENCODING 121
SWIDTH 500 0
DWIDTH 8 0
BBX 8 16 0 -2
BITMAP 
00
00
00
00
00
00
c6
c6
c6
c6
c6
6e
3a
06
06
7c
ENDCHAR
STARTCHAR U+007A
ENCODING 122
SWIDTH 500 0
DWIDTH 8 0
BBX 8 16 0 -2
BITMAP 
00
00
00
00
00
00
fe
06
0c
18
30
60
c0
fe
00
00
ENDCHAR
STARTCHAR U+007B
ENCODING 123
SWIDTH 500 0
DWIDTH 8 0
BBX 8 16 0 -2
BITMAP 
00
00
00
1c
30
30
18
18
30
30
18
18
30
30
1c
00
ENDCHAR
STARTCHAR U+007C
ENCODING 124
SWIDTH 500 0
DWIDTH 8 0
BBX 8 16 0 -2
BITMAP 
00
00
18
18
18
18
18
18
18
18
18
18
18
18
18
18
ENDCHAR
STARTCHAR U+007D
ENCODING 125
SWIDTH 500 0
DWIDTH 8 0
BBX 8 16 0 -2
BITMAP 
00
00
00
70
18
18
30
30
18
18
30
30
18
18
70
00
ENDCHAR
STARTCHAR U+007E
ENCODING 126
SWIDTH 500 0
DWIDTH 8 0
BBX 8 16 0 -2
BITMAP 
00
00
00
73
db
ce
00
00
00
00
00
00
00
00
00
00
ENDCHAR
STARTCHAR U+00A0
ENCODING 160
SWIDTH 500 0
DWIDTH 8 0
BBX 8 16 0 -2
BITMAP 
00
00
00
00
00
00
00
00
00
00
00
00
00
00
00
00
ENDCHAR
STARTCHAR U+00A1
ENCODING 161
SWIDTH 500 0
DWIDTH 8 0
BBX 8 16 0 -2
BITMAP 
00
00
00
00
18
18
00
18
18
18
18
18
18
18
00
00
ENDCHAR
STARTCHAR U+00A2
ENCODING 162
SWIDTH 500 0
DWIDTH 8 0
BBX 8 16 0 -2
BITMAP 
00
00
00
00
18
18
7e
db
d8
d8
db
7e
18
18
00
00
ENDCHAR
STARTCHAR U+00A3
ENCODING 163
SWIDTH 500 0
DWIDTH 8 0
BBX 8 16 0 -2
BITMAP 
00
00
00
00
1e
30
30
30
fc
30
30
30
7e
e3
00
00
ENDCHAR
STARTCHAR U+00A4
ENCODING 164
SWIDTH 500 0
DWIDTH 8 0
BBX 8 16 0 -2
BITMAP 
00
00
00
00
00
c6
6c
7c
6c
6c
7c
6c
c6
00
00
00
ENDCHAR
STARTCHAR U+00A5
ENCODING 165
SWIDTH 500 0
DWIDTH 8 0
BBX 8 16 0 -2
BITMAP 
00
00
00
00
c3
66
34
18
ff
18
ff
18
18
18
00
00
ENDCHAR
STARTCHAR U+00A6
ENCODING 166
SWIDTH 500 0
DWIDTH 8 0
BBX 8 16 0 -2
BITMAP 
00
00
00
00
18
18
18
18
00
00
18
18
18
18
00
00
ENDCHAR
STARTCHAR U+00A7
ENCODING 167
SWIDTH 500 0
DWIDTH 8 0
BBX 8 16 0 -2
BITMAP 
00
00
00
00
7c
c6
c0
7c
c6
c6
7c
06
c6
7c
00
00
ENDCHAR
STARTCHAR U+00A8
ENCODING 168
SWIDTH 500 0
DWIDTH 8 0
BBX 8 16 0 -2
BITMAP 
6c
6c
00
00
00
00
00
00
00
00
00
00
00
00
00
00
ENDCHAR
STARTCHAR U+00A9
ENCODING 169
SWIDTH 500 0
DWIDTH 8 0
BBX 8 16 0 -2
BITMAP 
00
00
00
00
7c
c6
da
ee
e6
e6
ee
da
c6
7c
00
00
ENDCHAR
STARTCHAR U+00AA
ENCODING 170
SWIDTH 500 0
DWIDTH 8 0
BBX 8 16 0 -2
BITMAP 
00
00
3c
06
3e
66
3e
00
7e
00
00
00
00
00
00
00
ENDCHAR
STARTCHAR U+00AB
ENCODING 171
SWIDTH 500 0
DWIDTH 8 0
BBX 8 16 0 -2
BITMAP 
00
00
00
00
00
36
36
6c
6c
d8
6c
6c
36
36
00
00
ENDCHAR
STARTCHAR U+00AC
ENCODING 172
SWIDTH 500 0
DWIDTH 8 0
BBX 8 16 0 -2
BITMAP 
00
00
00
00
00
00
00
00
00
00
fe
06
06
06
00
00
ENDCHAR
STARTCHAR U+00AD
ENCODING 173
SWIDTH 500 0
DWIDTH 8 0
BBX 8 16 0 -2
BITMAP 
00
00
00
00
00
00
00
00
00
fe
00
00
00
00
00
00
ENDCHAR
STARTCHAR U+00AE
ENCODING 174
SWIDTH 500 0
DWIDTH 8 0
BBX 8 16 0 -2
BITMAP 
00
00
00
00
7c
c6
fa
ee
ee
fa
ea
ee
c6
7c
00
00
ENDCHAR
STARTCHAR U+00AF
ENCODING 175
SWIDTH 500 0
DWIDTH 8 0
BBX 8 16 0 -2
BITMAP 
00
00
fe
00
00
00
00
00
00
00
00
00
00
00
00
00
ENDCHAR
STARTCHAR U+00B0
ENCODING 176
SWIDTH 500 0
DWIDTH 8 0
BBX 8 16 0 -2
BITMAP 
30
68
68
30
00
00
00
00
00
00
00
00
00
00
00
00
ENDCHAR
STARTCHAR U+00B1
ENCODING 177
SWIDTH 500 0
DWIDTH 8 0
BBX 8 16 0 -2
BITMAP 
00
00
00
00
18
18
18
ff
18
18
18
00
ff
00
00
00
ENDCHAR
STARTCHAR U+00B2
ENCODING 178
SWIDTH 500 0
DWIDTH 8 0
BBX 8 16 0 -2
BITMAP 
00
00
3c
66
06
3c
60
60
7e
00
00
00
00
00
00
00
ENDCHAR
STARTCHAR U+00B3
ENCODING 179
SWIDTH 500 0
DWIDTH 8 0
BBX 8 16 0 -2
BITMAP 
00
00
3c
66
06
3c
06
66
3c
00
00
00
00
00
00
00
ENDCHAR
STARTCHAR U+00B4
ENCODING 180
SWIDTH 500 0
DWIDTH 8 0
BBX 8 16 0 -2
BITMAP 
1c
70
00
00
00
00
00
00
00
00
00
00
00
00
00
00
ENDCHAR
STARTCHAR U+00B5
ENCODING 181
SWIDTH 500 0
DWIDTH 8 0
BBX 8 16 0 -2
BITMAP 
00
00
00
00
00
00
00
00
66
66
66
66
76
6a
60
60
ENDCHAR
STARTCHAR U+00B6
ENCODING 182
SWIDTH 500 0
DWIDTH 8 0
BBX 8 16 0 -2
BITMAP 
00
00
00
7e
fa
fa
fa
fa
7a
1a
1a
1a
1a
1a
1e
00
ENDCHAR
STARTCHAR U+00B7
ENCODING 183
SWIDTH 500 0
DWIDTH 8 0
BBX 8 16 0 -2
BITMAP 
00
00
00
00
00
00
00
00
38
38
00
00
00
00
00
00
ENDCHAR
STARTCHAR U+00B8
ENCODING 184
SWIDTH 500 0
DWIDTH 8 0
BBX 8 16 0 -2
BITMAP 
00
00
00
00
00
00
00
00
00
00
00
00
00
00
18
70
ENDCHAR
STARTCHAR U+00B9
ENCODING 185
SWIDTH 500 0
DWIDTH 8 0
BBX 8 16 0 -2
BITMAP 
00
00
18
38
68
18
18
18
18
00
00
00
00
00
00
00
ENDCHAR
STARTCHAR U+00BA
ENCODING 186
SWIDTH 500 0
DWIDTH 8 0
BBX 8 16 0 -2
BITMAP 
00
00
3c
66
66
66
3c
00
7e
00
00
00
00
00
00
00
ENDCHAR
STARTCHAR U+00BB
ENCODING 187
SWIDTH 500 0
DWIDTH 8 0
BBX 8 16 0 -2
BITMAP 
00
00
00
00
00
d8
d8
6c
6c
36
6c
6c
d8
d8
00
00
ENDCHAR
STARTCHAR U+00BC
ENCODING 188
SWIDTH 500 0
DWIDTH 8 0
BBX 8 16 0 -2
BITMAP 
00
00
00
00
66
e6
6c
68
68
36
36
6a
de
c6
00
00
ENDCHAR
STARTCHAR U+00BD
ENCODING 189
SWIDTH 500 0
DWIDTH 8 0
BBX 8 16 0 -2
BITMAP 
00
00
00
00
66
e6
6c
68
68
34
3a
66
cc
de
00
00
ENDCHAR
STARTCHAR U+00BE
ENCODING 190
SWIDTH 500 0
DWIDTH 8 0
BBX 8 16 0 -2
BITMAP 
00
00
00
00
e6
36
6c
38
e8
36
36
6a
de
c6
00
00
ENDCHAR
STARTCHAR U+00BF
ENCODING 191
SWIDTH 500 0
DWIDTH 8 0
BBX 8 16 0 -2
BITMAP 
00
00
00
00
18
18
00
18
18
70
c6
c6
c6
7c
00
00
ENDCHAR
STARTCHAR U+00C0
ENCODING 192
SWIDTH 500 0
DWIDTH 8 0
BBX 8 16 0 -2
BITMAP 
70
1c
00
00
38
6c
6c
c6
c6
fe
c6
c6
c6
c6
00
00
ENDCHAR
STARTCHAR U+00C1
ENCODING 193
SWIDTH 500 0
DWIDTH 8 0
BBX 8 16 0 -2
BITMAP 
1c
70
00
00
38
6c
6c
c6
c6
fe
c6
c6
c6
c6
00
00
ENDCHAR
STARTCHAR U+00C2
ENCODING 194
SWIDTH 500 0
DWIDTH 8 0
BBX 8 16 0 -2
BITMAP 
38
6c
00
00
38
6c
6c
c6
c6
fe
c6
c6
c6
c6
00
00
ENDCHAR
STARTCHAR U+00C3
ENCODING 195
SWIDTH 500 0
DWIDTH 8 0
BBX 8 16 0 -2
BITMAP 
76
dc
00
00
38
6c
6c
c6
c6
fe
c6
c6
c6
c6
00
00
ENDCHAR
STARTCHAR U+00C4
ENCODING 196
SWIDTH 500 0
DWIDTH 8 0
BBX 8 16 0 -2
BITMAP 
6c
6c
00
00
38
6c
6c
c6
c6
fe
c6
c6
c6
c6
00
00
ENDCHAR
STARTCHAR U+00C5
ENCODING 197
SWIDTH 500 0
DWIDTH 8 0
BBX 8 16 0 -2
BITMAP 
38
6c
38
00
38
6c
6c
c6
c6
fe
c6
c6
c6
c6
00
00
ENDCHAR
STARTCHAR U+00C6
ENCODING 198
SWIDTH 500 0
DWIDTH 8 0
BBX 8 16 0 -2
BITMAP 
00
00
00
00
3f
68
d8
d8
ff
d8
d8
d8
d8
df
00
00
ENDCHAR
STARTCHAR U+00C7
ENCODING 199
SWIDTH 500 0
DWIDTH 8 0
BBX 8 16 0 -2
BITMAP 
00
00
00
00
7c
c6
c6
c0
c0
c0
c0
c6
c6
7c
18
70
ENDCHAR
STARTCHAR U+00C8
ENCODING 200
SWIDTH 500 0
DWIDTH 8 0
BBX 8 16 0 -2
BITMAP 
70
1c
00
00
fe
c0
c0
c0
fc
c0
c0
c0
c0
fe
00
00
ENDCHAR
STARTCHAR U+00C9
ENCODING 201
SWIDTH 500 0
DWIDTH 8 0
BBX 8 16 0 -2
BITMAP 
1c
70
00
00
fe
c0
c0
c0
fc
c0
c0
c0
c0
fe
00
00
ENDCHAR
STARTCHAR U+00CA
ENCODING 202
SWIDTH 500 0
DWIDTH 8 0
BBX 8 16 0 -2
BITMAP 
38
6c
00
00
fe
c0
c0
c0
fc
c0
c0
c0
c0
fe
00
00
ENDCHAR
STARTCHAR U+00CB
ENCODING 203
SWIDTH 500 0
DWIDTH 8 0
BBX 8 16 0 -2
BITMAP 
6c
6c
00
00
fe
c0
c0
c0
fc
c0
c0
c0
c0
fe
00
00
ENDCHAR
STARTCHAR U+00CC
ENCODING 204
SWIDTH 500 0
DWIDTH 8 0
BBX 8 16 0 -2
BITMAP 
38
0e
00
00
7e
18
18
18
18
18
18
18
18
7e
00
00
ENDCHAR
STARTCHAR U+00CD
ENCODING 205
SWIDTH 500 0
DWIDTH 8 0
BBX 8 16 0 -2
BITMAP 
1c
70
00
00
7e
18
18
18
18
18
18
18
18
7e
00
00
ENDCHAR
STARTCHAR U+00CE
ENCODING 206
SWIDTH 500 0
DWIDTH 8 0
BBX 8 16 0 -2
BITMAP 
38
6c
00
00
7e
18
18
18
18
18
18
18
18
7e
00
00
ENDCHAR
STARTCHAR U+00CF
ENCODING 207
SWIDTH 500 0
DWIDTH 8 0
BBX 8 16 0 -2
BITMAP 
6c
6c
00
00
7e
18
18
18
18
18
18
18
18
7e
00
00
ENDCHAR
STARTCHAR U+00D0
ENCODING 208
SWIDTH 500 0
DWIDTH 8 0
BBX 8 16 0 -2
BITMAP 
00
00
00
00
f8
cc
c6
c6
f6
c6
c6
c6
cc
f8
00
00
ENDCHAR
STARTCHAR U+00D1
ENCODING 209
SWIDTH 500 0
DWIDTH 8 0
BBX 8 16 0 -2
BITMAP 
76
dc
00
00
c6
e6
e6
d6
d6
da
da
ce
ce
c6
00
00
ENDCHAR
STARTCHAR U+00D2
ENCODING 210
SWIDTH 500 0
DWIDTH 8 0
BBX 8 16 0 -2
BITMAP 
70
1c
00
00
7c
c6
c6
c6
c6
c6
c6
c6
c6
7c
00
00
ENDCHAR
STARTCHAR U+00D3
ENCODING 211
SWIDTH 500 0
DWIDTH 8 0
BBX 8 16 0 -2
BITMAP 
1c
70
00
00
7c
c6
c6
c6
c6
c6
c6
c6
c6
7c
00
00
ENDCHAR
STARTCHAR U+00D4
ENCODING 212
SWIDTH 500 0
DWIDTH 8 0
BBX 8 16 0 -2
BITMAP 
38
6c
00
00
7c
c6
c6
c6
c6
c6
c6
c6
c6
7c
00
00
ENDCHAR
STARTCHAR U+00D5
ENCODING 213
SWIDTH 500 0
DWIDTH 8 0
BBX 8 16 0 -2
BITMAP 
76
dc
00
00
7c
c6
c6
c6
c6
c6
c6
c6
c6
7c
00
00
ENDCHAR
STARTCHAR U+00D6
ENCODING 214
SWIDTH 500 0
DWIDTH 8 0
BBX 8 16 0 -2
BITMAP 
6c
6c
00
00
7c
c6
c6
c6
c6
c6
c6
c6
c6
7c
00
00
ENDCHAR
STARTCHAR U+00D7
ENCODING 215
SWIDTH 500 0
DWIDTH 8 0
BBX 8 16 0 -2
BITMAP 
00
00
00
00
00
00
c3
66
34
18
34
66
c3
00
00
00
ENDCHAR
STARTCHAR U+00D8
ENCODING 216
SWIDTH 500 0
DWIDTH 8 0
BBX 8 16 0 -2
BITMAP 
00
00
00
06
7a
cc
ce
da
da
d6
d6
e6
66
dc
c0
00
ENDCHAR
STARTCHAR U+00D9
ENCODING 217
SWIDTH 500 0
DWIDTH 8 0
BBX 8 16 0 -2
BITMAP 
70
1c
00
00
c6
c6
c6
c6
c6
c6
c6
c6
c6
7c
00
00
ENDCHAR
STARTCHAR U+00DA
ENCODING 218
SWIDTH 500 0
DWIDTH 8 0
BBX 8 16 0 -2
BITMAP 
1c
70
00
00
c6
c6
c6
c6
c6
c6
c6
c6
c6
7c
00
00
ENDCHAR
STARTCHAR U+00DB
ENCODING 219
SWIDTH 500 0
DWIDTH 8 0
BBX 8 16 0 -2
BITMAP 
38
6c
00
00
c6
c6
c6
c6
c6
c6
c6
c6
c6
7c
00
00
ENDCHAR
STARTCHAR U+00DC
ENCODING 220
SWIDTH 500 0
DWIDTH 8 0
BBX 8 16 0 -2
BITMAP 
6c
6c
00
00
c6
c6
c6
c6
c6
c6
c6
c6
c6
7c
00
00
ENDCHAR
STARTCHAR U+00DD
ENCODING 221
SWIDTH 500 0
DWIDTH 8 0
BBX 8 16 0 -2
BITMAP 
1c
70
00
00
c3
c3
66
66
34
18
18
18
18
18
00
00
ENDCHAR
STARTCHAR U+00DE
ENCODING 222
SWIDTH 500 0
DWIDTH 8 0
BBX 8 16 0 -2
BITMAP 
00
00
00
c0
c0
f8
cc
c6
c6
cc
f8
c0
c0
c0
00
00
ENDCHAR
STARTCHAR U+00DF
ENCODING 223
SWIDTH 500 0
DWIDTH 8 0
BBX 8 16 0 -2
BITMAP 
00
00
00
00
78
cc
cc
cc
dc
c6
c6
c6
d6
dc
00
00
ENDCHAR
STARTCHAR U+00E0
ENCODING 224
SWIDTH 500 0
DWIDTH 8 0
BBX 8 16 0 -2
BITMAP 
00
00
70
1c
00
00
7c
c6
06
7e
c6
c6
ce
7a
00
00
ENDCHAR
STARTCHAR U+00E1
ENCODING 225
SWIDTH 500 0
DWIDTH 8 0
BBX 8 16 0 -2
BITMAP 
00
00
1c
70
00
00
7c
c6
06
7e
c6
c6
ce
7a
00
00
ENDCHAR
STARTCHAR U+00E2
ENCODING 226
SWIDTH 500 0
DWIDTH 8 0
BBX 8 16 0 -2
BITMAP 
00
00
38
6c
00
00
7c
c6
06
7e
c6
c6
ce
7a
00
00
ENDCHAR
STARTCHAR U+00E3
ENCODING 227
SWIDTH 500 0
DWIDTH 8 0
BBX 8 16 0 -2
BITMAP 
00
00
76
dc
00
00
7c
c6
06
7e
c6
c6
ce
7a
00
00
ENDCHAR
STARTCHAR U+00E4
ENCODING 228
SWIDTH 500 0
DWIDTH 8 0
BBX 8 16 0 -2
BITMAP 
00
00
6c
6c
00
00
7c
c6
06
7e
c6
c6
ce
7a
00
00
ENDCHAR
STARTCHAR U+00E5
ENCODING 229
SWIDTH 500 0
DWIDTH 8 0
BBX 8 16 0 -2
BITMAP 
00
38
6c
38
00
00
7c
c6
06
7e
c6
c6
ce
7a
00
00
ENDCHAR
STARTCHAR U+00E6
ENCODING 230
SWIDTH 500 0
DWIDTH 8 0
BBX 8 16 0 -2
BITMAP 
00
00
00
00
00
00
7e
db
1b
7f
d8
d8
db
7e
00
00
ENDCHAR
STARTCHAR U+00E7
ENCODING 231
SWIDTH 500 0
DWIDTH 8 0
BBX 8 16 0 -2
BITMAP 
00
00
00
00
00
00
7c
c6
c0
c0
c0
c0
c6
7c
18
70
ENDCHAR
STARTCHAR U+00E8
ENCODING 232
SWIDTH 500 0
DWIDTH 8 0
BBX 8 16 0 -2
BITMAP 
00
00
70
1c
00
00
7c
c6
c6
fe
c0
c0
c6
7c
00
00
ENDCHAR
STARTCHAR U+00E9
ENCODING 233
SWIDTH 500 0
DWIDTH 8 0
BBX 8 16 0 -2
BITMAP 
00
00
1c
70
00
00
7c
c6
c6
fe
c0
c0
c6
7c
00
00
ENDCHAR
STARTCHAR U+00EA
ENCODING 234
SWIDTH 500 0
DWIDTH 8 0
BBX 8 16 0 -2
BITMAP 
00
00
38
6c
00
00
7c
c6
c6
fe
c0
c0
c6
7c
00
00
ENDCHAR
STARTCHAR U+00EB
ENCODING 235
SWIDTH 500 0
DWIDTH 8 0
BBX 8 16 0 -2
BITMAP 
00
00
6c
6c
00
00
7c
c6
c6
fe
c0
c0
c6
7c
00
00
ENDCHAR
STARTCHAR U+00EC
ENCODING 236
SWIDTH 500 0
DWIDTH 8 0
BBX 8 16 0 -2
BITMAP 
00
00
70
1c
00
00
38
18
18
18
18
18
18
7e
00
00
ENDCHAR
STARTCHAR U+00ED
ENCODING 237
SWIDTH 500 0
DWIDTH 8 0
BBX 8 16 0 -2
BITMAP 
00
00
1c
70
00
00
38
18
18
18
18
18
18
7e
00
00
ENDCHAR
STARTCHAR U+00EE
ENCODING 238
SWIDTH 500 0
DWIDTH 8 0
BBX 8 16 0 -2
BITMAP 
00
00
38
6c
00
00
38
18
18
18
18
18
18
7e
00
00
ENDCHAR
STARTCHAR U+00EF
ENCODING 239
SWIDTH 500 0
DWIDTH 8 0
BBX 8 16 0 -2
BITMAP 
00
00
6c
6c
00
00
38
18
18
18
18
18
18
7e
00
00
ENDCHAR
STARTCHAR U+00F0
ENCODING 240
SWIDTH 500 0
DWIDTH 8 0
BBX 8 16 0 -2
BITMAP 
00
00
76
1c
34
66
06
7e
c6
c6
c6
c6
c6
7c
00
00
ENDCHAR
STARTCHAR U+00F1
ENCODING 241
SWIDTH 500 0
DWIDTH 8 0
BBX 8 16 0 -2
BITMAP 
00
00
76
dc
00
00
dc
e6
c6
c6
c6
c6
c6
c6
00
00
ENDCHAR
STARTCHAR U+00F2
ENCODING 242
SWIDTH 500 0
DWIDTH 8 0
BBX 8 16 0 -2
BITMAP 
00
00
70
1c
00
00
7c
c6
c6
c6
c6
c6
c6
7c
00
00
ENDCHAR
STARTCHAR U+00F3
ENCODING 243
SWIDTH 500 0
DWIDTH 8 0
BBX 8 16 0 -2
BITMAP 
00
00
1c
70
00
00
7c
c6
c6
c6
c6
c6
c6
7c
00
00
ENDCHAR
STARTCHAR U+00F4
ENCODING 244
SWIDTH 500 0
DWIDTH 8 0
BBX 8 16 0 -2
BITMAP 
00
00
38
6c
00
00
7c
c6
c6
c6
c6
c6
c6
7c
00
00
ENDCHAR
STARTCHAR U+00F5
ENCODING 245
SWIDTH 500 0
DWIDTH 8 0
BBX 8 16 0 -2
BITMAP 
00
00
76
dc
00
00
7c
c6
c6
c6
c6
c6
c6
7c
00
00
ENDCHAR
STARTCHAR U+00F6
ENCODING 246
SWIDTH 500 0
DWIDTH 8 0
BBX 8 16 0 -2
BITMAP 
00
00
6c
6c
00
00
7c
c6
c6
c6
c6
c6
c6
7c
00
00
ENDCHAR
STARTCHAR U+00F7
ENCODING 247
SWIDTH 500 0
DWIDTH 8 0
BBX 8 16 0 -2
BITMAP 
00
00
00
00
00
00
38
00
00
fe
00
00
38
00
00
00
ENDCHAR
STARTCHAR U+00F8
ENCODING 248
SWIDTH 500 0
DWIDTH 8 0
BBX 8 16 0 -2
BITMAP 
00
00
00
00
00
06
7c
ce
da
da
d6
d6
e6
7c
c0
00
ENDCHAR
STARTCHAR U+00F9
ENCODING 249
SWIDTH 500 0
DWIDTH 8 0
BBX 8 16 0 -2
BITMAP 
00
00
70
1c
00
00
c6
c6
c6
c6
c6
c6
ce
7a
00
00
ENDCHAR
STARTCHAR U+00FA
ENCODING 250
SWIDTH 500 0
DWIDTH 8 0
BBX 8 16 0 -2
BITMAP 
00
00
1c
70
00
00
c6
c6
c6
c6
c6
c6
ce
7a
00
00
ENDCHAR
STARTCHAR U+00FB
ENCODING 251
SWIDTH 500 0
DWIDTH 8 0
BBX 8 16 0 -2
BITMAP 
00
00
38
6c
00
00
c6
c6
c6
c6
c6
c6
ce
7a
00
00
ENDCHAR
STARTCHAR U+00FC
ENCODING 252
SWIDTH 500 0
DWIDTH 8 0
BBX 8 16 0 -2
BITMAP 
00
00
6c
6c
00
00
c6
c6
c6
c6
c6
c6
ce
7a
00
00
ENDCHAR
STARTCHAR U+00FD
ENCODING 253
SWIDTH 500 0
DWIDTH 8 0
BBX 8 16 0 -2
BITMAP 
00
00
1c
70
00
00
c6
c6
c6
c6
c6
6e
3a
06
06
7c
ENDCHAR
STARTCHAR U+00FE
ENCODING 254
SWIDTH 500 0
DWIDTH 8 0
BBX 8 16 0 -2
BITMAP 
00
00
00
00
60
60
7c
66
66
66
6c
68
70
60
60
60
ENDCHAR
STARTCHAR U+00FF
ENCODING 255
SWIDTH 500 0
DWIDTH 8 0
BBX 8 16 0 -2
BITMAP 
00
00
6c
6c
00
00
c6
c6
c6
c6
c6
6e
3a
06
06
7c
ENDCHAR
STARTCHAR U+0100
ENCODING 256
SWIDTH 500 0
DWIDTH 8 0
BBX 8 16 0 -2
BITMAP 
00
7c
00
00
38
6c
6c
c6
c6
fe
c6
c6
c6
c6
00
00
ENDCHAR
STARTCHAR U+0101
ENCODING 257
SWIDTH 500 0
DWIDTH 8 0
BBX 8 16 0 -2
BITMAP 
00
00
00
7c
00
00
7c
c6
06
7e
c6
c6
ce
7a
00
00
ENDCHAR
STARTCHAR U+0102
ENCODING 258
SWIDTH 500 0
DWIDTH 8 0
BBX 8 16 0 -2
BITMAP 
c6
c6
7c
00
38
6c
6c
c6
c6
fe
c6
c6
c6
c6
00
00
ENDCHAR
STARTCHAR U+0103
ENCODING 259
SWIDTH 500 0
DWIDTH 8 0
BBX 8 16 0 -2
BITMAP 
00
c6
c6
7c
00
00
7c
c6
06
7e
c6
c6
ce
7a
00
00
ENDCHAR
STARTCHAR U+0104
ENCODING 260
SWIDTH 500 0
DWIDTH 8 0
BBX 8 16 0 -2
BITMAP 
00
00
00
00
38
6c
6c
c6
c6
fe
c6
c6
c6
c6
0c
07
ENDCHAR
STARTCHAR U+0105
ENCODING 261
SWIDTH 500 0
DWIDTH 8 0
BBX 8 16 0 -2
BITMAP 
00
00
00
00
00
00
7c
c6
06
7e
c6
c6
ce
7a
0c
07
ENDCHAR
STARTCHAR U+0106
ENCODING 262
SWIDTH 500 0
DWIDTH 8 0
BBX 8 16 0 -2
BITMAP 
1c
70
00
00
7c
c6
c6
c0
c0
c0
c0
c6
c6
7c
00
00
ENDCHAR
STARTCHAR U+0107
ENCODING 263
SWIDTH 500 0
DWIDTH 8 0
BBX 8 16 0 -2
BITMAP 
00
00
1c
70
00
00
7c
c6
c0
c0
c0
c0
c6
7c
00
00
ENDCHAR
STARTCHAR U+0108
ENCODING 264
SWIDTH 500 0
DWIDTH 8 0
BBX 8 16 0 -2
BITMAP 
38
6c
00
00
7c
c6
c6
c0
c0
c0
c0
c6
c6
7c
00
00
ENDCHAR
STARTCHAR U+0109
ENCODING 265
SWIDTH 500 0
DWIDTH 8 0
BBX 8 16 0 -2
BITMAP 
00
00
38
6c
00
00
7c
c6
c0
c0
c0
c0
c6
7c
00
00
ENDCHAR
STARTCHAR U+010A
ENCODING 266
SWIDTH 500 0
DWIDTH 8 0
BBX 8 16 0 -2
BITMAP 
30
30
00
00
7c
c6
c6
c0
c0
c0
c0
c6
c6
7c
00
00
ENDCHAR
STARTCHAR U+010B
ENCODING 267
SWIDTH 500 0
DWIDTH 8 0
BBX 8 16 0 -2
BITMAP 
00
00
30
30
00
00
7c
c6
c0
c0
c0
c0
c6
7c
00
00
ENDCHAR
STARTCHAR U+010C
ENCODING 268
SWIDTH 500 0
DWIDTH 8 0
BBX 8 16 0 -2
BITMAP 
6c
38
00
00
7c
c6
c6
c0
c0
c0
c0
c6
c6
7c
00
00
ENDCHAR
STARTCHAR U+010D
ENCODING 269
SWIDTH 500 0
DWIDTH 8 0
BBX 8 16 0 -2
BITMAP 
00
00
6c
38
00
00
7c
c6
c0
c0
c0
c0
c6
7c
00
00
ENDCHAR
STARTCHAR U+010E
ENCODING 270
SWIDTH 500 0
DWIDTH 8 0
BBX 8 16 0 -2
BITMAP 
d8
70
00
00
f8
cc
c6
c6
c6
c6
c6
c6
cc
f8
00
00
ENDCHAR
STARTCHAR U+010F
ENCODING 271
SWIDTH 500 0
DWIDTH 8 0
BBX 8 16 0 -2
BITMAP 
00
00
07
1b
1b
1a
78
d8
d8
d8
d8
d8
d8
68
00
00
ENDCHAR
STARTCHAR U+0110
ENCODING 272
SWIDTH 500 0
DWIDTH 8 0
BBX 8 16 0 -2
BITMAP 
00
00
00
00
f8
cc
c6
c6
f6
c6
c6
c6
cc
f8
00
00
ENDCHAR
STARTCHAR U+0111
ENCODING 273
SWIDTH 500 0
DWIDTH 8 0
BBX 8 16 0 -2
BITMAP 
00
00
06
1f
06
06
7a
ce
c6
c6
c6
c6
ce
7a
00
00
ENDCHAR
STARTCHAR U+0112
ENCODING 274
SWIDTH 500 0
DWIDTH 8 0
BBX 8 16 0 -2
BITMAP 
00
7c
00
00
fe
c0
c0
c0
fc
c0
c0
c0
c0
fe
00
00
ENDCHAR
STARTCHAR U+0113
ENCODING 275
SWIDTH 500 0
DWIDTH 8 0
BBX 8 16 0 -2
BITMAP 
00
00
00
7c
00
00
7c
c6
c6
fe
c0
c0
c6
7c
00
00
ENDCHAR
STARTCHAR U+0114
ENCODING 276
SWIDTH 500 0
DWIDTH 8 0
BBX 8 16 0 -2
BITMAP 
c6
c6
7c
00
fe
c0
c0
c0
fc
c0
c0
c0
c0
fe
00
00
ENDCHAR
STARTCHAR U+0115
ENCODING 277
SWIDTH 500 0
DWIDTH 8 0
BBX 8 16 0 -2
BITMAP 
00
00
c6
c6
7c
00
7c
c6
c6
fe
c0
c0
c6
7c
00
00
ENDCHAR
STARTCHAR U+0116
ENCODING 278
SWIDTH 500 0
DWIDTH 8 0
BBX 8 16 0 -2
BITMAP 
30
30
00
00
fe
c0
c0
c0
fc
c0
c0
c0
c0
fe
00
00
ENDCHAR
STARTCHAR U+0117
ENCODING 279
SWIDTH 500 0
DWIDTH 8 0
BBX 8 16 0 -2
BITMAP 
00
00
30
30
00
00
7c
c6
c6
fe
c0
c0
c6
7c
00
00
ENDCHAR
STARTCHAR U+0118
ENCODING 280
SWIDTH 500 0
DWIDTH 8 0
BBX 8 16 0 -2
BITMAP 
00
00
00
00
fe
c0
c0
c0
fc
c0
c0
c0
c0
fe
18
0e
ENDCHAR
STARTCHAR U+0119
ENCODING 281
SWIDTH 500 0
DWIDTH 8 0
BBX 8 16 0 -2
BITMAP 
00
00
00
00
00
00
7c
c6
c6
fe
c0
c0
c6
7c
30
1c
ENDCHAR
STARTCHAR U+011A
ENCODING 282
SWIDTH 500 0
DWIDTH 8 0
BBX 8 16 0 -2
BITMAP 
6c
38
00
00
fe
c0
c0
c0
fc
c0
c0
c0
c0
fe
00
00
ENDCHAR
STARTCHAR U+011B
ENCODING 283
SWIDTH 500 0
DWIDTH 8 0
BBX 8 16 0 -2
BITMAP 
00
00
6c
38
00
00
7c
c6
c6
fe
c0
c0
c6
7c
00
00
ENDCHAR
STARTCHAR U+011C
ENCODING 284
SWIDTH 500 0
DWIDTH 8 0
BBX 8 16 0 -2
BITMAP 
38
6c
00
00
7c
c6
c6
c0
c0
de
c6
c6
ce
7a
00
00
ENDCHAR
STARTCHAR U+011D
ENCODING 285
SWIDTH 500 0
DWIDTH 8 0
BBX 8 16 0 -2
BITMAP 
00
00
38
6c
00
06
7a
cc
cc
cc
78
60
7c
c6
c6
7c
ENDCHAR
STARTCHAR U+011E
ENCODING 286
SWIDTH 500 0
DWIDTH 8 0
BBX 8 16 0 -2
BITMAP 
c6
c6
7c
00
7c
c6
c6
c0
c0
de
c6
c6
ce
7a
00
00
ENDCHAR
STARTCHAR U+011F
ENCODING 287
SWIDTH 500 0
DWIDTH 8 0
BBX 8 16 0 -2
BITMAP 
00
c6
c6
7c
00
06
7a
cc
cc
cc
78
60
7c
c6
c6
7c
ENDCHAR
STARTCHAR U+0120
ENCODING 288
SWIDTH 500 0
DWIDTH 8 0
BBX 8 16 0 -2
BITMAP 
30
30
00
00
7c
c6
c6
c0
c0
de
c6
c6
ce
7a
00
00
ENDCHAR
STARTCHAR U+0121
ENCODING 289
SWIDTH 500 0
DWIDTH 8 0
BBX 8 16 0 -2
BITMAP 
00
00
30
30
00
06
7a
cc
cc
cc
78
60
7c
c6
c6
7c
ENDCHAR
STARTCHAR U+0122
ENCODING 290
SWIDTH 500 0
DWIDTH 8 0
BBX 8 16 0 -2
BITMAP 
00
00
00
00
7c
c6
c6
c0
c0
de
c6
c6
ce
7a
18
70
ENDCHAR
STARTCHAR U+0123
ENCODING 291
SWIDTH 500 0
DWIDTH 8 0
BBX 8 16 0 -2
BITMAP 
00
00
1c
30
00
06
7a
cc
cc
cc
78
60
7c
c6
c6
7c
ENDCHAR
STARTCHAR U+0124
ENCODING 292
SWIDTH 500 0
DWIDTH 8 0
BBX 8 16 0 -2
BITMAP 
38
6c
00
00
c6
c6
c6
c6
fe
c6
c6
c6
c6
c6
00
00
ENDCHAR
STARTCHAR U+0125
ENCODING 293
SWIDTH 500 0
DWIDTH 8 0
BBX 8 16 0 -2
BITMAP 
70
d8
00
c0
c0
c0
dc
e6
c6
c6
c6
c6
c6
c6
00
00
ENDCHAR
STARTCHAR U+0126
ENCODING 294
SWIDTH 500 0
DWIDTH 8 0
BBX 8 16 0 -2
BITMAP 
00
00
00
00
c6
c6
ff
c6
c6
fe
c6
c6
c6
c6
00
00
ENDCHAR
STARTCHAR U+0127
ENCODING 295
SWIDTH 500 0
DWIDTH 8 0
BBX 8 16 0 -2
BITMAP 
00
00
c0
c0
f0
c0
dc
e6
c6
c6
c6
c6
c6
00
00
00
ENDCHAR
STARTCHAR U+0128
ENCODING 296
SWIDTH 500 0
DWIDTH 8 0
BBX 8 16 0 -2
BITMAP 
76
dc
00
00
7e
18
18
18
18
18
18
18
18
7e
00
00
ENDCHAR
STARTCHAR U+0129
ENCODING 297
SWIDTH 500 0
DWIDTH 8 0
BBX 8 16 0 -2
BITMAP 
00
00
76
dc
00
00
38
18
18
18
18
18
18
7e
00
00
ENDCHAR
STARTCHAR U+012A
ENCODING 298
SWIDTH 500 0
DWIDTH 8 0
BBX 8 16 0 -2
BITMAP 
00
7c
00
00
7e
18
18
18
18
18
18
18
18
7e
00
00
ENDCHAR
STARTCHAR U+012B
ENCODING 299
SWIDTH 500 0
DWIDTH 8 0
BBX 8 16 0 -2
BITMAP 
00
00
00
7c
00
00
38
18
18
18
18
18
18
7e
00
00
ENDCHAR
STARTCHAR U+012C
ENCODING 300
SWIDTH 500 0
DWIDTH 8 0
BBX 8 16 0 -2
BITMAP 
c6
c6
7c
00
7e
18
18
18
18
18
18
18
18
7e
00
00
ENDCHAR
STARTCHAR U+012D
ENCODING 301
SWIDTH 500 0
DWIDTH 8 0
BBX 8 16 0 -2
BITMAP 
00
00
c6
c6
7c
00
38
18
18
18
18
18
18
7e
00
00
ENDCHAR
STARTCHAR U+012E
ENCODING 302
SWIDTH 500 0
DWIDTH 8 0
BBX 8 16 0 -2
BITMAP 
00
00
00
00
7e
18
18
18
18
18
18
18
18
7e
18
0e
ENDCHAR
STARTCHAR U+012F
ENCODING 303
SWIDTH 500 0
DWIDTH 8 0
BBX 8 16 0 -2
BITMAP 
00
00
00
18
18
00
38
18
18
18
18
18
18
7e
18
0e
ENDCHAR
STARTCHAR U+0130
ENCODING 304
SWIDTH 500 0
DWIDTH 8 0
BBX 8 16 0 -2
BITMAP 
18
18
00
00
7e
18
18
18
18
18
18
18
18
7e
00
00
ENDCHAR
STARTCHAR U+0131
ENCODING 305
SWIDTH 500 0
DWIDTH 8 0
BBX 8 16 0 -2
BITMAP 
00
00
00
00
00
00
38
18
18
18
18
18
18
7e
00
00
ENDCHAR
STARTCHAR U+0132
ENCODING 306
SWIDTH 500 0
DWIDTH 8 0
BBX 8 16 0 -2
BITMAP 
00
00
00
00
ef
c6
c6
c6
c6
c6
c6
d6
d6
ec
00
00
ENDCHAR
STARTCHAR U+0133
ENCODING 307
SWIDTH 500 0
DWIDTH 8 0
BBX 8 16 0 -2
BITMAP 
00
00
00
66
66
00
ee
66
66
66
66
66
66
f6
06
1c
ENDCHAR
STARTCHAR U+0134
ENCODING 308
SWIDTH 500 0
DWIDTH 8 0
BBX 8 16 0 -2
BITMAP 
1c
36
00
00
3f
0c
0c
0c
0c
0c
0c
cc
cc
78
00
00
ENDCHAR
STARTCHAR U+0135
ENCODING 309
SWIDTH 500 0
DWIDTH 8 0
BBX 8 16 0 -2
BITMAP 
00
00
1c
36
00
00
1c
0c
0c
0c
0c
0c
0c
0c
d8
70
ENDCHAR
STARTCHAR U+0136
ENCODING 310
SWIDTH 500 0
DWIDTH 8 0
BBX 8 16 0 -2
BITMAP 
00
00
00
00
c6
cc
d8
d0
e0
e0
d0
d8
cc
c6
60
c0
ENDCHAR
STARTCHAR U+0137
ENCODING 311
SWIDTH 500 0
DWIDTH 8 0
BBX 8 16 0 -2
BITMAP 
00
00
00
00
c0
c0
cc
d8
d0
e0
d0
d8
cc
c6
60
c0
ENDCHAR
STARTCHAR U+0138
ENCODING 312
SWIDTH 500 0
DWIDTH 8 0
BBX 8 16 0 -2
BITMAP 
00
00
00
00
00
00
c6
cc
d8
f0
f0
d8
cc
c6
00
00
ENDCHAR
STARTCHAR U+0139
ENCODING 313
SWIDTH 500 0
DWIDTH 8 0
BBX 8 16 0 -2
BITMAP 
38
e0
00
00
c0
c0
c0
c0
c0
c0
c0
c0
c0
fe
00
00
ENDCHAR
STARTCHAR U+013A
ENCODING 314
SWIDTH 500 0
DWIDTH 8 0
BBX 8 16 0 -2
BITMAP 
1c
70
00
00
38
18
18
18
18
18
18
18
18
7e
00
00
ENDCHAR
STARTCHAR U+013B
ENCODING 315
SWIDTH 500 0
DWIDTH 8 0
BBX 8 16 0 -2
BITMAP 
00
00
00
00
c0
c0
c0
c0
c0
c0
c0
c0
c0
fe
18
70
ENDCHAR
STARTCHAR U+013C
ENCODING 316
SWIDTH 500 0
DWIDTH 8 0
BBX 8 16 0 -2
BITMAP 
00
00
00
00
38
18
18
18
18
18
18
18
18
7e
18
70
ENDCHAR
STARTCHAR U+013D
ENCODING 317
SWIDTH 500 0
DWIDTH 8 0
BBX 8 16 0 -2
BITMAP 
00
00
00
38
d8
d8
d0
c0
c0
c0
c0
c0
c0
fe
00
00
ENDCHAR
STARTCHAR U+013E
ENCODING 318
SWIDTH 500 0
DWIDTH 8 0
BBX 8 16 0 -2
BITMAP 
00
00
00
0e
76
36
34
30
30
30
30
30
30
fc
00
00
ENDCHAR
STARTCHAR U+013F
ENCODING 319
SWIDTH 500 0
DWIDTH 8 0
BBX 8 16 0 -2
BITMAP 
00
00
00
00
c0
c0
c0
c0
cc
cc
c0
c0
c0
fe
00
00
ENDCHAR
STARTCHAR U+0140
ENCODING 320
SWIDTH 500 0
DWIDTH 8 0
BBX 8 16 0 -2
BITMAP 
00
00
00
00
70
30
30
30
34
34
30
30
30
fc
00
00
ENDCHAR
STARTCHAR U+0141
ENCODING 321
SWIDTH 500 0
DWIDTH 8 0
BBX 8 16 0 -2
BITMAP 
00
00
00
00
c0
c0
d8
d0
e0
c0
c0
c0
c0
fe
00
00
ENDCHAR
STARTCHAR U+0142
ENCODING 322
SWIDTH 500 0
DWIDTH 8 0
BBX 8 16 0 -2
BITMAP 
00
00
00
00
38
18
1a
1c
38
68
18
18
18
7e
00
00
ENDCHAR
STARTCHAR U+0143
ENCODING 323
SWIDTH 500 0
DWIDTH 8 0
BBX 8 16 0 -2
BITMAP 
1c
70
00
00
c6
e6
e6
d6
d6
da
da
ce
ce
c6
00
00
ENDCHAR
STARTCHAR U+0144
ENCODING 324
SWIDTH 500 0
DWIDTH 8 0
BBX 8 16 0 -2
BITMAP 
00
00
1c
70
00
00
dc
e6
c6
c6
c6
c6
c6
c6
00
00
ENDCHAR
STARTCHAR U+0145
ENCODING 325
SWIDTH 500 0
DWIDTH 8 0
BBX 8 16 0 -2
BITMAP 
00
00
00
00
c6
e6
e6
d6
d6
da
da
ce
ce
c6
60
c0
ENDCHAR
STARTCHAR U+0146
ENCODING 326
SWIDTH 500 0
DWIDTH 8 0
BBX 8 16 0 -2
BITMAP 
00
00
00
00
00
00
dc
e6
c6
c6
c6
c6
c6
c6
60
c0
ENDCHAR
STARTCHAR U+0147
ENCODING 327
SWIDTH 500 0
DWIDTH 8 0
BBX 8 16 0 -2
BITMAP 
6c
38
00
00
c6
e6
e6
d6
d6
da
da
ce
ce
c6
00
00
ENDCHAR
STARTCHAR U+0148
ENCODING 328
SWIDTH 500 0
DWIDTH 8 0
BBX 8 16 0 -2
BITMAP 
00
00
6c
38
00
00
dc
e6
c6
c6
c6
c6
c6
c6
00
00
ENDCHAR
STARTCHAR U+0149
ENCODING 329
SWIDTH 500 0
DWIDTH 8 0
BBX 8 16 0 -2
BITMAP 
00
e0
60
60
c0
00
dc
e6
c6
c6
c6
c6
c6
c6
00
00
ENDCHAR
STARTCHAR U+014A
ENCODING 330
SWIDTH 500 0
DWIDTH 8 0
BBX 8 16 0 -2
BITMAP 
00
00
00
00
dc
e6
c6
c6
c6
c6
c6
c6
c6
dc
00
00
ENDCHAR
STARTCHAR U+014B
ENCODING 331
SWIDTH 500 0
DWIDTH 8 0
BBX 8 16 0 -2
BITMAP 
00
00
00
00
00
00
dc
e6
c6
c6
c6
c6
c6
c6
06
1c
ENDCHAR
STARTCHAR U+014C
ENCODING 332
SWIDTH 500 0
DWIDTH 8 0
BBX 8 16 0 -2
BITMAP 
00
7c
00
00
7c
c6
c6
c6
c6
c6
c6
c6
c6
7c
00
00
ENDCHAR
STARTCHAR U+014D
ENCODING 333
SWIDTH 500 0
DWIDTH 8 0
BBX 8 16 0 -2
BITMAP 
00
00
00
7c
00
00
7c
c6
c6
c6
c6
c6
c6
7c
00
00
ENDCHAR
STARTCHAR U+014E
ENCODING 334
SWIDTH 500 0
DWIDTH 8 0
BBX 8 16 0 -2
BITMAP 
c6
c6
7c
00
7c
c6
c6
c6
c6
c6
c6
c6
c6
7c
00
00
ENDCHAR
STARTCHAR U+014F
ENCODING 335
SWIDTH 500 0
DWIDTH 8 0
BBX 8 16 0 -2
BITMAP 
00
00
c6
c6
7c
00
7c
c6
c6
c6
c6
c6
c6
7c
00
00
ENDCHAR
STARTCHAR U+0150
ENCODING 336
SWIDTH 500 0
DWIDTH 8 0
BBX 8 16 0 -2
BITMAP 
77
cc
00
00
7c
c6
c6
c6
c6
c6
c6
c6
c6
7c
00
00
ENDCHAR
STARTCHAR U+0151
ENCODING 337
SWIDTH 500 0
DWIDTH 8 0
BBX 8 16 0 -2
BITMAP 
00
00
77
cc
00
00
7c
c6
c6
c6
c6
c6
c6
7c
00
00
ENDCHAR
STARTCHAR U+0152
ENCODING 338
SWIDTH 500 0
DWIDTH 8 0
BBX 8 16 0 -2
BITMAP 
00
00
00
00
77
d8
d8
d8
de
d8
d8
d8
d8
77
00
00
ENDCHAR
STARTCHAR U+0153
ENCODING 339
SWIDTH 500 0
DWIDTH 8 0
BBX 8 16 0 -2
BITMAP 
00
00
00
00
00
00
76
db
db
df
d8
d8
db
76
00
00
ENDCHAR
STARTCHAR U+0154
ENCODING 340
SWIDTH 500 0
DWIDTH 8 0
BBX 8 16 0 -2
BITMAP 
1c
70
00
00
fc
c6
c6
c6
fc
d8
cc
cc
c6
c6
00
00
ENDCHAR
STARTCHAR U+0155
ENCODING 341
SWIDTH 500 0
DWIDTH 8 0
BBX 8 16 0 -2
BITMAP 
00
00
1c
70
00
00
dc
e6
c6
c0
c0
c0
c0
c0
00
00
ENDCHAR
STARTCHAR U+0156
ENCODING 342
SWIDTH 500 0
DWIDTH 8 0
BBX 8 16 0 -2
BITMAP 
00
00
00
00
fc
c6
c6
c6
fc
d8
cc
cc
c6
c6
60
c0
ENDCHAR
STARTCHAR U+0157
ENCODING 343
SWIDTH 500 0
DWIDTH 8 0
BBX 8 16 0 -2
BITMAP 
00
00
00
00
00
00
dc
e6
c6
c0
c0
c0
c0
c0
60
c0
ENDCHAR
STARTCHAR U+0158
ENCODING 344
SWIDTH 500 0
DWIDTH 8 0
BBX 8 16 0 -2
BITMAP 
6c
38
00
00
fc
c6
c6
c6
fc
d8
cc
cc
c6
c6
00
00
ENDCHAR
STARTCHAR U+0159
ENCODING 345
SWIDTH 500 0
DWIDTH 8 0
BBX 8 16 0 -2
BITMAP 
00
00
6c
38
00
00
dc
e6
c6
c0
c0
c0
c0
c0
00
00
ENDCHAR
STARTCHAR U+015A
ENCODING 346
SWIDTH 500 0
DWIDTH 8 0
BBX 8 16 0 -2
BITMAP 
1c
70
00
00
7c
c6
c6
c0
70
1c
06
c6
c6
7c
00
00
ENDCHAR
STARTCHAR U+015B
ENCODING 347
SWIDTH 500 0
DWIDTH 8 0
BBX 8 16 0 -2
BITMAP 
00
00
1c
70
00
00
7c
c6
c0
70
1c
c6
c6
7c
00
00
ENDCHAR
STARTCHAR U+015C
ENCODING 348
SWIDTH 500 0
DWIDTH 8 0
BBX 8 16 0 -2
BITMAP 
38
6c
00
00
7c
c6
c6
c0
70
1c
06
c6
c6
7c
00
00
ENDCHAR
STARTCHAR U+015D
ENCODING 349
SWIDTH 500 0
DWIDTH 8 0
BBX 8 16 0 -2
BITMAP 
00
00
38
6c
00
00
7c
c6
c0
70
1c
06
c6
7c
00
00
ENDCHAR
STARTCHAR U+015E
ENCODING 350
SWIDTH 500 0
DWIDTH 8 0
BBX 8 16 0 -2
BITMAP 
00
00
00
00
7c
c6
c6
c0
70
1c
06
c6
c6
7c
18
70
ENDCHAR
STARTCHAR U+015F
ENCODING 351
SWIDTH 500 0
DWIDTH 8 0
BBX 8 16 0 -2
BITMAP 
00
00
00
00
00
00
7c
c6
c0
70
1c
06
c6
7c
18
70
ENDCHAR
STARTCHAR U+0160
ENCODING 352
SWIDTH 500 0
DWIDTH 8 0
BBX 8 16 0 -2
BITMAP 
6c
38
00
00
7c
c6
c6
c0
70
1c
06
c6
c6
7c
00
00
ENDCHAR
STARTCHAR U+0161
ENCODING 353
SWIDTH 500 0
DWIDTH 8 0
BBX 8 16 0 -2
BITMAP 
00
00
6c
38
00
00
7c
c6
c0
70
1c
06
c6
7c
00
00
ENDCHAR
STARTCHAR U+0162
ENCODING 354
SWIDTH 500 0
DWIDTH 8 0
BBX 8 16 0 -2
BITMAP 
00
00
00
00
ff
18
18
18
18
18
18
18
18
18
18
70
ENDCHAR
STARTCHAR U+0163
ENCODING 355
SWIDTH 500 0
DWIDTH 8 0
BBX 8 16 0 -2
BITMAP 
00
00
00
00
30
30
fc
30
30
30
30
30
30
1c
18
70
ENDCHAR
STARTCHAR U+0164
ENCODING 356
SWIDTH 500 0
DWIDTH 8 0
BBX 8 16 0 -2
BITMAP 
6c
38
00
00
ff
18
18
18
18
18
18
18
18
18
00
00
ENDCHAR
STARTCHAR U+0165
ENCODING 357
SWIDTH 500 0
DWIDTH 8 0
BBX 8 16 0 -2
BITMAP 
00
00
0e
06
36
34
30
fc
30
30
30
30
30
1c
00
00
ENDCHAR
STARTCHAR U+0166
ENCODING 358
SWIDTH 500 0
DWIDTH 8 0
BBX 8 16 0 -2
BITMAP 
00
00
00
00
ff
18
18
1a
1c
38
68
18
18
18
00
00
ENDCHAR
STARTCHAR U+0167
ENCODING 359
SWIDTH 500 0
DWIDTH 8 0
BBX 8 16 0 -2
BITMAP 
00
00
00
00
30
30
fc
30
34
38
70
d0
30
1c
00
00
ENDCHAR
STARTCHAR U+0168
ENCODING 360
SWIDTH 500 0
DWIDTH 8 0
BBX 8 16 0 -2
BITMAP 
76
dc
00
00
c6
c6
c6
c6
c6
c6
c6
c6
c6
7c
00
00
ENDCHAR
STARTCHAR U+0169
ENCODING 361
SWIDTH 500 0
DWIDTH 8 0
BBX 8 16 0 -2
BITMAP 
00
00
76
dc
00
00
c6
c6
c6
c6
c6
c6
ce
7a
00
00
ENDCHAR
STARTCHAR U+016A
ENCODING 362
SWIDTH 500 0
DWIDTH 8 0
BBX 8 16 0 -2
BITMAP 
00
7c
00
00
c6
c6
c6
c6
c6
c6
c6
c6
c6
7c
00
00
ENDCHAR
STARTCHAR U+016B
ENCODING 363
SWIDTH 500 0
DWIDTH 8 0
BBX 8 16 0 -2
BITMAP 
00
00
00
7c
00
00
c6
c6
c6
c6
c6
c6
ce
7a
00
00
ENDCHAR
STARTCHAR U+016C
ENCODING 364
SWIDTH 500 0
DWIDTH 8 0
BBX 8 16 0 -2
BITMAP 
c6
c6
7c
00
c6
c6
c6
c6
c6
c6
c6
c6
c6
7c
00
00
ENDCHAR
STARTCHAR U+016D
ENCODING 365
SWIDTH 500 0
DWIDTH 8 0
BBX 8 16 0 -2
BITMAP 
00
c6
c6
7c
00
00
c6
c6
c6
c6
c6
c6
ce
7a
00
00
ENDCHAR
STARTCHAR U+016E
ENCODING 366
SWIDTH 500 0
DWIDTH 8 0
BBX 8 16 0 -2
BITMAP 
38
6c
38
00
c6
c6
c6
c6
c6
c6
c6
c6
c6
7c
00
00
ENDCHAR
STARTCHAR U+016F
ENCODING 367
SWIDTH 500 0
DWIDTH 8 0
BBX 8 16 0 -2
BITMAP 
00
00
38
6c
38
00
c6
c6
c6
c6
c6
c6
ce
7a
00
00
ENDCHAR
STARTCHAR U+0170
ENCODING 368
SWIDTH 500 0
DWIDTH 8 0
BBX 8 16 0 -2
BITMAP 
77
cc
00
00
c6
c6
c6
c6
c6
c6
c6
c6
c6
7c
00
00
ENDCHAR
STARTCHAR U+0171
ENCODING 369
SWIDTH 500 0
DWIDTH 8 0
BBX 8 16 0 -2
BITMAP 
00
00
77
cc
00
00
c6
c6
c6
c6
c6
c6
ce
7a
00
00
ENDCHAR
STARTCHAR U+0172
ENCODING 370
SWIDTH 500 0
DWIDTH 8 0
BBX 8 16 0 -2
BITMAP 
00
00
00
00
c6
c6
c6
c6
c6
c6
c6
c6
c6
7c
30
1c
ENDCHAR
STARTCHAR U+0173
ENCODING 371
SWIDTH 500 0
DWIDTH 8 0
BBX 8 16 0 -2
BITMAP 
00
00
00
00
00
00
c6
c6
c6
c6
c6
c6
ce
7a
0c
07
ENDCHAR
STARTCHAR U+0174
ENCODING 372
SWIDTH 500 0
DWIDTH 8 0
BBX 8 16 0 -2
BITMAP 
38
6c
00
00
c6
c6
c6
c6
da
da
ee
ee
c6
c6
00
00
ENDCHAR
STARTCHAR U+0175
ENCODING 373
SWIDTH 500 0
DWIDTH 8 0
BBX 8 16 0 -2
BITMAP 
00
00
38
6c
00
00
c3
db
db
db
db
db
db
76
00
00
ENDCHAR
STARTCHAR U+0176
ENCODING 374
SWIDTH 500 0
DWIDTH 8 0
BBX 8 16 0 -2
BITMAP 
38
6c
00
00
c3
c3
66
66
34
18
18
18
18
18
00
00
ENDCHAR
STARTCHAR U+0177
ENCODING 375
SWIDTH 500 0
DWIDTH 8 0
BBX 8 16 0 -2
BITMAP 
00
00
38
6c
00
00
c6
c6
c6
c6
c6
6e
3a
06
06
7c
ENDCHAR
STARTCHAR U+0178
ENCODING 376
SWIDTH 500 0
DWIDTH 8 0
BBX 8 16 0 -2
BITMAP 
6c
6c
00
00
c3
c3
66
66
34
18
18
18
18
18
00
00
ENDCHAR
STARTCHAR U+0179
ENCODING 377
SWIDTH 500 0
DWIDTH 8 0
BBX 8 16 0 -2
BITMAP 
1c
70
00
00
fe
06
06
0c
18
30
60
c0
c0
fe
00
00
ENDCHAR
STARTCHAR U+017A
ENCODING 378
SWIDTH 500 0
DWIDTH 8 0
BBX 8 16 0 -2
BITMAP 
00
00
1c
70
00
00
fe
06
0c
18
30
60
c0
fe
00
00
ENDCHAR
STARTCHAR U+017B
ENCODING 379
SWIDTH 500 0
DWIDTH 8 0
BBX 8 16 0 -2
BITMAP 
30
30
00
00
fe
06
06
0c
18
30
60
c0
c0
fe
00
00
ENDCHAR
STARTCHAR U+017C
ENCODING 380
SWIDTH 500 0
DWIDTH 8 0
BBX 8 16 0 -2
BITMAP 
00
00
30
30
00
00
fe
06
0c
18
30
60
c0
fe
00
00
ENDCHAR
STARTCHAR U+017D
ENCODING 381
SWIDTH 500 0
DWIDTH 8 0
BBX 8 16 0 -2
BITMAP 
6c
38
00
00
fe
06
06
0c
18
30
60
c0
c0
fe
00
00
ENDCHAR
STARTCHAR U+017E
ENCODING 382
SWIDTH 500 0
DWIDTH 8 0
BBX 8 16 0 -2
BITMAP 
00
00
6c
38
00
00
fe
06
0c
18
30
60
c0
fe
00
00
ENDCHAR
STARTCHAR U+017F
ENCODING 383
SWIDTH 500 0
DWIDTH 8 0
BBX 8 16 0 -2
BITMAP 
00
00
00
1c
30
30
30
70
30
30
30
30
30
30
00
00
ENDCHAR
STARTCHAR U+0180
ENCODING 384
SWIDTH 500 0
DWIDTH 8 0
BBX 8 16 0 -2
BITMAP 
00
00
00
c0
f0
c0
dc
e6
c6
c6
c6
c6
e6
dc
00
00
ENDCHAR
STARTCHAR U+0181
ENCODING 385
SWIDTH 500 0
DWIDTH 8 0
BBX 8 16 0 -2
BITMAP 
00
00
00
00
fc
a6
a6
66
7c
66
66
66
66
7c
00
00
ENDCHAR
STARTCHAR U+0182
ENCODING 386
SWIDTH 500 0
DWIDTH 8 0
BBX 8 16 0 -2
BITMAP 
00
00
00
00
fe
c0
c0
c0
fc
c6
c6
c6
c6
fc
00
00
ENDCHAR
STARTCHAR U+0183
ENCODING 387
SWIDTH 500 0
DWIDTH 8 0
BBX 8 16 0 -2
BITMAP 
00
00
00
00
fe
c0
c0
dc
e6
c6
c6
c6
e6
dc
00
00
ENDCHAR
STARTCHAR U+0184
ENCODING 388
SWIDTH 500 0
DWIDTH 8 0
BBX 8 16 0 -2
BITMAP 
00
00
00
00
e0
60
60
60
7c
66
66
66
66
7c
00
00
ENDCHAR
STARTCHAR U+0185
ENCODING 389
SWIDTH 500 0
DWIDTH 8 0
BBX 8 16 0 -2
BITMAP 
00
00
00
00
00
00
e0
60
60
60
7c
66
66
7c
00
00
ENDCHAR
STARTCHAR U+0186
ENCODING 390
SWIDTH 500 0
DWIDTH 8 0
BBX 8 16 0 -2
BITMAP 
00
00
00
00
7c
c6
c6
06
06
06
06
c6
c6
fc
00
00
ENDCHAR
STARTCHAR U+0187
ENCODING 391
SWIDTH 500 0
DWIDTH 8 0
BBX 8 16 0 -2
BITMAP 
00
00
07
0c
7c
cc
cc
c0
c0
c0
c0
cc
cc
78
00
00
ENDCHAR
STARTCHAR U+0188
ENCODING 392
SWIDTH 500 0
DWIDTH 8 0
BBX 8 16 0 -2
BITMAP 
00
00
00
00
07
0c
7c
cc
c0
c0
c0
c0
cc
78
00
00
ENDCHAR
STARTCHAR U+0189
ENCODING 393
SWIDTH 500 0
DWIDTH 8 0
BBX 8 16 0 -2
BITMAP 
00
00
00
00
f8
cc
c6
c6
f6
c6
c6
c6
cc
f8
00
00
ENDCHAR
STARTCHAR U+018A
ENCODING 394
SWIDTH 500 0
DWIDTH 8 0
BBX 8 16 0 -2
BITMAP 
00
00
00
00
f8
ac
a6
66
66
66
66
66
6c
78
00
00
ENDCHAR
STARTCHAR U+018B
ENCODING 395
SWIDTH 500 0
DWIDTH 8 0
BBX 8 16 0 -2
BITMAP 
00
00
00
00
fe
06
06
06
7e
c6
c6
c6
c6
7e
00
00
ENDCHAR
STARTCHAR U+018C
ENCODING 396
SWIDTH 500 0
DWIDTH 8 0
BBX 8 16 0 -2
BITMAP 
00
00
00
00
fe
06
06
7a
ce
c6
c6
c6
ce
7a
00
00
ENDCHAR
STARTCHAR U+018D
ENCODING 397
SWIDTH 500 0
DWIDTH 8 0
BBX 8 16 0 -2
BITMAP 
00
00
00
00
00
00
7c
c6
c6
c6
c6
6c
38
0c
0c
78
ENDCHAR
STARTCHAR U+018E
ENCODING 398
SWIDTH 500 0
DWIDTH 8 0
BBX 8 16 0 -2
BITMAP 
00
00
00
00
fe
06
06
06
7e
06
06
06
06
fe
00
00
ENDCHAR
STARTCHAR U+018F
ENCODING 399
SWIDTH 500 0
DWIDTH 8 0
BBX 8 16 0 -2
BITMAP 
00
00
00
00
38
6c
c6
06
06
fe
c6
c6
6c
38
00
00
ENDCHAR
STARTCHAR U+0190
ENCODING 400
SWIDTH 500 0
DWIDTH 8 0
BBX 8 16 0 -2
BITMAP 
00
00
00
00
7c
c6
c6
c0
78
c0
c0
c6
c6
7c
00
00
ENDCHAR
STARTCHAR U+0191
ENCODING 401
SWIDTH 500 0
DWIDTH 8 0
BBX 8 16 0 -2
BITMAP 
00
00
00
00
3f
30
30
30
3e
30
30
30
30
30
e0
00
ENDCHAR
STARTCHAR U+0192
ENCODING 402
SWIDTH 500 0
DWIDTH 8 0
BBX 8 16 0 -2
BITMAP 
00
00
00
1c
30
30
30
fc
30
30
30
30
30
30
e0
00
ENDCHAR
STARTCHAR U+0193
ENCODING 403
SWIDTH 500 0
DWIDTH 8 0
BBX 8 16 0 -2
BITMAP 
00
00
00
07
7c
cc
cc
c0
c0
dc
cc
cc
dc
74
00
00
ENDCHAR
STARTCHAR U+0194
ENCODING 404
SWIDTH 500 0
DWIDTH 8 0
BBX 8 16 0 -2
BITMAP 
00
00
00
00
c6
c6
c6
6c
6c
38
38
6c
6c
38
00
00
ENDCHAR
STARTCHAR U+0195
ENCODING 405
SWIDTH 500 0
DWIDTH 8 0
BBX 8 16 0 -2
BITMAP 
00
00
00
c0
c0
c0
c0
f3
db
db
db
db
db
ce
00
00
ENDCHAR
STARTCHAR U+0196
ENCODING 406
SWIDTH 500 0
DWIDTH 8 0
BBX 8 16 0 -2
BITMAP 
00
00
00
00
f0
30
30
30
30
30
30
30
30
1c
00
00
ENDCHAR
STARTCHAR U+0197
ENCODING 407
SWIDTH 500 0
DWIDTH 8 0
BBX 8 16 0 -2
BITMAP 
00
00
00
00
7e
18
18
18
7e
18
18
18
18
7e
00
00
ENDCHAR
STARTCHAR U+0198
ENCODING 408
SWIDTH 500 0
DWIDTH 8 0
BBX 8 16 0 -2
BITMAP 
00
00
00
00
ce
da
d0
d0
e0
e0
d0
d8
cc
c6
00
00
ENDCHAR
STARTCHAR U+0199
ENCODING 409
SWIDTH 500 0
DWIDTH 8 0
BBX 8 16 0 -2
BITMAP 
00
00
00
70
c0
c0
cc
d8
d0
e0
d0
d8
cc
c6
00
00
ENDCHAR
STARTCHAR U+019A
ENCODING 410
SWIDTH 500 0
DWIDTH 8 0
BBX 8 16 0 -2
BITMAP 
00
00
00
00
38
18
18
18
7e
18
18
18
18
7e
00
00
ENDCHAR
STARTCHAR U+019B
ENCODING 411
SWIDTH 500 0
DWIDTH 8 0
BBX 8 16 0 -2
BITMAP 
00
00
00
00
6c
68
30
70
d8
38
6c
6c
c6
c6
00
00
ENDCHAR
STARTCHAR U+019C
ENCODING 412
SWIDTH 500 0
DWIDTH 8 0
BBX 8 16 0 -2
BITMAP 
00
00
00
00
db
db
db
db
db
db
db
db
db
77
00
00
ENDCHAR
STARTCHAR U+019D
ENCODING 413
SWIDTH 500 0
DWIDTH 8 0
BBX 8 16 0 -2
BITMAP 
00
00
00
00
66
66
76
76
6a
6a
6e
6e
66
66
c0
00
ENDCHAR
STARTCHAR U+019E
ENCODING 414
SWIDTH 500 0
DWIDTH 8 0
BBX 8 16 0 -2
BITMAP 
00
00
00
00
00
00
dc
e6
c6
c6
c6
c6
c6
c6
06
06
ENDCHAR
STARTCHAR U+019F
ENCODING 415
SWIDTH 500 0
DWIDTH 8 0
BBX 8 16 0 -2
BITMAP 
00
00
00
00
7c
c6
c6
c6
fe
c6
c6
c6
c6
7c
00
00
ENDCHAR
STARTCHAR U+01A0
ENCODING 416
SWIDTH 500 0
DWIDTH 8 0
BBX 8 16 0 -2
BITMAP 
00
00
00
06
7a
cc
cc
cc
cc
cc
cc
cc
cc
78
00
00
ENDCHAR
STARTCHAR U+01A1
ENCODING 417
SWIDTH 500 0
DWIDTH 8 0
BBX 8 16 0 -2
BITMAP 
00
00
00
00
00
06
7a
cc
cc
cc
cc
cc
cc
78
00
00
ENDCHAR
STARTCHAR U+01A2
ENCODING 418
SWIDTH 500 0
DWIDTH 8 0
BBX 8 16 0 -2
BITMAP 
00
00
00
00
76
da
da
da
da
da
da
da
da
76
06
06
ENDCHAR
STARTCHAR U+01A3
ENCODING 419
SWIDTH 500 0
DWIDTH 8 0
BBX 8 16 0 -2
BITMAP 
00
00
00
00
00
00
76
da
da
da
da
da
da
76
06
06
ENDCHAR
STARTCHAR U+01A4
ENCODING 420
SWIDTH 500 0
DWIDTH 8 0
BBX 8 16 0 -2
BITMAP 
00
00
00
00
7e
d3
d3
33
3e
30
30
30
30
30
00
00
ENDCHAR
STARTCHAR U+01A5
ENCODING 421
SWIDTH 500 0
DWIDTH 8 0
BBX 8 16 0 -2
BITMAP 
00
00
00
00
00
07
dc
ec
cc
cc
cc
cc
ec
d8
c0
c0
ENDCHAR
STARTCHAR U+01A6
ENCODING 422
SWIDTH 500 0
DWIDTH 8 0
BBX 8 16 0 -2
BITMAP 
00
00
00
00
f0
60
7c
66
66
7c
68
6c
66
63
00
00
ENDCHAR
STARTCHAR U+01A7
ENCODING 423
SWIDTH 500 0
DWIDTH 8 0
BBX 8 16 0 -2
BITMAP 
00
00
00
00
7c
c6
c6
06
1c
70
c0
c6
c6
7c
00
00
ENDCHAR
STARTCHAR U+01A8
ENCODING 424
SWIDTH 500 0
DWIDTH 8 0
BBX 8 16 0 -2
BITMAP 
00
00
00
00
00
00
7c
c6
06
1c
70
c0
c6
7c
00
00
ENDCHAR
STARTCHAR U+01A9
ENCODING 425
SWIDTH 500 0
DWIDTH 8 0
BBX 8 16 0 -2
BITMAP 
00
00
00
00
fe
c0
60
30
18
18
30
60
c0
fe
00
00
ENDCHAR
STARTCHAR U+01AA
ENCODING 426
SWIDTH 500 0
DWIDTH 8 0
BBX 8 16 0 -2
BITMAP 
00
00
00
60
d0
d0
70
30
30
30
30
30
30
30
1c
00
ENDCHAR
STARTCHAR U+01AB
ENCODING 427
SWIDTH 500 0
DWIDTH 8 0
BBX 8 16 0 -2
BITMAP 
00
00
00
00
30
30
fc
30
30
30
30
30
30
1c
0c
38
ENDCHAR
STARTCHAR U+01AC
ENCODING 428
SWIDTH 500 0
DWIDTH 8 0
BBX 8 16 0 -2
BITMAP 
00
00
00
00
7f
d8
d8
18
18
18
18
18
18
18
00
00
ENDCHAR
STARTCHAR U+01AD
ENCODING 429
SWIDTH 500 0
DWIDTH 8 0
BBX 8 16 0 -2
BITMAP 
00
00
00
1c
30
30
30
fc
30
30
30
30
30
1c
00
00
ENDCHAR
STARTCHAR U+01AE
ENCODING 430
SWIDTH 500 0
DWIDTH 8 0
BBX 8 16 0 -2
BITMAP 
00
00
00
00
ff
18
18
18
18
18
18
18
18
18
0e
00
ENDCHAR
STARTCHAR U+01AF
ENCODING 431
SWIDTH 500 0
DWIDTH 8 0
BBX 8 16 0 -2
BITMAP 
00
00
03
03
ce
cc
cc
cc
cc
cc
cc
cc
cc
78
00
00
ENDCHAR
STARTCHAR U+01B0
ENCODING 432
SWIDTH 500 0
DWIDTH 8 0
BBX 8 16 0 -2
BITMAP 
00
00
00
00
03
03
ce
cc
cc
cc
cc
cc
dc
74
00
00
ENDCHAR
STARTCHAR U+01B1
ENCODING 433
SWIDTH 500 0
DWIDTH 8 0
BBX 8 16 0 -2
BITMAP 
00
00
00
00
c6
6c
6c
c6
c6
c6
c6
c6
6c
38
00
00
ENDCHAR
STARTCHAR U+01B2
ENCODING 434
SWIDTH 500 0
DWIDTH 8 0
BBX 8 16 0 -2
BITMAP 
00
00
00
00
dc
c6
c6
c6
c6
c6
c6
cc
d8
70
00
00
ENDCHAR
STARTCHAR U+01B3
ENCODING 435
SWIDTH 500 0
DWIDTH 8 0
BBX 8 16 0 -2
BITMAP 
00
00
00
00
73
d3
33
1a
1a
0c
0c
0c
0c
0c
00
00
ENDCHAR
STARTCHAR U+01B4
ENCODING 436
SWIDTH 500 0
DWIDTH 8 0
BBX 8 16 0 -2
BITMAP 
00
00
00
00
00
07
cc
cc
cc
cc
cc
6c
3c
0c
0c
78
ENDCHAR
STARTCHAR U+01B5
ENCODING 437
SWIDTH 500 0
DWIDTH 8 0
BBX 8 16 0 -2
BITMAP 
00
00
00
00
fe
06
0c
18
7c
30
60
c0
c0
fe
00
00
ENDCHAR
STARTCHAR U+01B6
ENCODING 438
SWIDTH 500 0
DWIDTH 8 0
BBX 8 16 0 -2
BITMAP 
00
00
00
00
00
00
fe
0c
18
7c
30
60
c0
fe
00
00
ENDCHAR
STARTCHAR U+01B7
ENCODING 439
SWIDTH 500 0
DWIDTH 8 0
BBX 8 16 0 -2
BITMAP 
00
00
00
00
fe
0c
18
30
3c
06
06
06
ce
7c
00
00
ENDCHAR
STARTCHAR U+01B8
ENCODING 440
SWIDTH 500 0
DWIDTH 8 0
BBX 8 16 0 -2
BITMAP 
00
00
00
00
fe
60
30
18
78
c0
c0
c0
e6
7c
00
00
ENDCHAR
STARTCHAR U+01B9
ENCODING 441
SWIDTH 500 0
DWIDTH 8 0
BBX 8 16 0 -2
BITMAP 
00
00
00
00
00
00
fc
60
30
18
78
c0
c0
c0
c6
7c
ENDCHAR
STARTCHAR U+01BA
ENCODING 442
SWIDTH 500 0
DWIDTH 8 0
BBX 8 16 0 -2
BITMAP 
00
00
00
00
00
00
7e
0c
18
3c
06
06
7c
c0
c6
7c
ENDCHAR
STARTCHAR U+01BB
ENCODING 443
SWIDTH 500 0
DWIDTH 8 0
BBX 8 16 0 -2
BITMAP 
00
00
00
00
7c
c6
c6
0c
18
fe
60
c0
c0
fe
00
00
ENDCHAR
STARTCHAR U+01BC
ENCODING 444
SWIDTH 500 0
DWIDTH 8 0
BBX 8 16 0 -2
BITMAP 
00
00
00
00
fe
60
60
60
7c
06
06
06
c6
7c
00
00
ENDCHAR
STARTCHAR U+01BD
ENCODING 445
SWIDTH 500 0
DWIDTH 8 0
BBX 8 16 0 -2
BITMAP 
00
00
00
00
00
00
fe
60
60
7c
06
06
c6
7c
00
00
ENDCHAR
STARTCHAR U+01BE
ENCODING 446
SWIDTH 500 0
DWIDTH 8 0
BBX 8 16 0 -2
BITMAP 
00
00
00
00
30
30
fc
30
30
38
0c
0c
cc
78
00
00
ENDCHAR
STARTCHAR U+01BF
ENCODING 447
SWIDTH 500 0
DWIDTH 8 0
BBX 8 16 0 -2
BITMAP 
00
00
00
00
00
00
dc
e6
c6
c6
cc
d8
d0
e0
c0
c0
ENDCHAR
STARTCHAR U+01C0
ENCODING 448
SWIDTH 500 0
DWIDTH 8 0
BBX 8 16 0 -2
BITMAP 
00
00
00
30
30
30
30
30
30
30
30
30
30
30
00
00
ENDCHAR
STARTCHAR U+01C1
ENCODING 449
SWIDTH 500 0
DWIDTH 8 0
BBX 8 16 0 -2
BITMAP 
00
00
00
68
68
68
68
68
68
68
68
68
68
68
00
00
ENDCHAR
STARTCHAR U+01C2
ENCODING 450
SWIDTH 500 0
DWIDTH 8 0
BBX 8 16 0 -2
BITMAP 
00
00
00
30
30
30
30
fc
30
fc
30
30
30
30
00
00
ENDCHAR
STARTCHAR U+01C3
ENCODING 451
SWIDTH 500 0
DWIDTH 8 0
BBX 8 16 0 -2
BITMAP 
00
00
00
00
18
18
18
18
18
18
18
00
18
18
00
00
ENDCHAR
STARTCHAR U+01C4
ENCODING 452
SWIDTH 500 0
DWIDTH 8 0
BBX 8 16 0 -2
BITMAP 
00
0d
06
00
ef
d3
d3
d3
d6
d6
d4
d4
d4
ef
00
00
ENDCHAR
STARTCHAR U+01C5
ENCODING 453
SWIDTH 500 0
DWIDTH 8 0
BBX 8 16 0 -2
BITMAP 
00
00
00
0d
e6
d0
d7
d3
d3
d6
d6
d4
d4
ef
00
00
ENDCHAR
STARTCHAR U+01C6
ENCODING 454
SWIDTH 500 0
DWIDTH 8 0
BBX 8 16 0 -2
BITMAP 
00
00
00
35
36
30
77
d3
d3
d6
d6
d4
d4
77
00
00
ENDCHAR
STARTCHAR U+01C7
ENCODING 455
SWIDTH 500 0
DWIDTH 8 0
BBX 8 16 0 -2
BITMAP 
00
00
00
00
cf
c3
c3
c3
c3
c3
c3
db
db
f6
00
00
ENDCHAR
STARTCHAR U+01C8
ENCODING 456
SWIDTH 500 0
DWIDTH 8 0
BBX 8 16 0 -2
BITMAP 
00
00
00
03
c3
c0
c7
c3
c3
c3
c3
c3
c3
fb
06
1c
ENDCHAR
STARTCHAR U+01C9
ENCODING 457
SWIDTH 500 0
DWIDTH 8 0
BBX 8 16 0 -2
BITMAP 
00
00
00
03
e3
60
67
63
63
63
63
63
63
fb
06
1c
ENDCHAR
STARTCHAR U+01CA
ENCODING 458
SWIDTH 500 0
DWIDTH 8 0
BBX 8 16 0 -2
BITMAP 
00
00
00
00
db
db
db
eb
eb
db
db
dd
dd
da
00
00
ENDCHAR
STARTCHAR U+01CB
ENCODING 459
SWIDTH 500 0
DWIDTH 8 0
BBX 8 16 0 -2
BITMAP 
00
00
00
03
db
d8
eb
eb
eb
db
db
db
db
db
36
1c
ENDCHAR
STARTCHAR U+01CC
ENCODING 460
SWIDTH 500 0
DWIDTH 8 0
BBX 8 16 0 -2
BITMAP 
00
00
00
03
03
00
d7
eb
db
db
db
db
db
db
36
1c
ENDCHAR
STARTCHAR U+01CD
ENCODING 461
SWIDTH 500 0
DWIDTH 8 0
BBX 8 16 0 -2
BITMAP 
6c
38
00
00
38
6c
6c
c6
c6
fe
c6
c6
c6
c6
00
00
ENDCHAR
STARTCHAR U+01CE
ENCODING 462
SWIDTH 500 0
DWIDTH 8 0
BBX 8 16 0 -2
BITMAP 
00
00
6c
38
00
00
7c
c6
06
7e
c6
c6
ce
7a
00
00
ENDCHAR
STARTCHAR U+01CF
ENCODING 463
SWIDTH 500 0
DWIDTH 8 0
BBX 8 16 0 -2
BITMAP 
6c
38
00
00
7e
18
18
18
18
18
18
18
18
7e
00
00
ENDCHAR
STARTCHAR U+01D0
ENCODING 464
SWIDTH 500 0
DWIDTH 8 0
BBX 8 16 0 -2
BITMAP 
00
00
6c
38
00
00
38
18
18
18
18
18
18
7e
00
00
ENDCHAR
STARTCHAR U+01D1
ENCODING 465
SWIDTH 500 0
DWIDTH 8 0
BBX 8 16 0 -2
BITMAP 
6c
38
00
00
7c
c6
c6
c6
c6
c6
c6
c6
c6
7c
00
00
ENDCHAR
STARTCHAR U+01D2
ENCODING 466
SWIDTH 500 0
DWIDTH 8 0
BBX 8 16 0 -2
BITMAP 
00
00
6c
38
00
00
7c
c6
c6
c6
c6
c6
c6
7c
00
00
ENDCHAR
STARTCHAR U+01D3
ENCODING 467
SWIDTH 500 0
DWIDTH 8 0
BBX 8 16 0 -2
BITMAP 
6c
38
00
00
c6
c6
c6
c6
c6
c6
c6
c6
c6
7c
00
00
ENDCHAR
STARTCHAR U+01D4
ENCODING 468
SWIDTH 500 0
DWIDTH 8 0
BBX 8 16 0 -2
BITMAP 
00
00
6c
38
00
00
c6
c6
c6
c6
c6
c6
ce
7a
00
00
ENDCHAR
STARTCHAR U+01D5
ENCODING 469
SWIDTH 500 0
DWIDTH 8 0
BBX 8 16 0 -2
BITMAP 
7c
00
6c
00
c6
c6
c6
c6
c6
c6
c6
c6
c6
7c
00
00
ENDCHAR
STARTCHAR U+01D6
ENCODING 470
SWIDTH 500 0
DWIDTH 8 0
BBX 8 16 0 -2
BITMAP 
00
7c
00
6c
6c
00
c6
c6
c6
c6
c6
c6
ce
7a
00
00
ENDCHAR
STARTCHAR U+01D7
ENCODING 471
SWIDTH 500 0
DWIDTH 8 0
BBX 8 16 0 -2
BITMAP 
1c
70
00
6c
00
c6
c6
c6
c6
c6
c6
c6
c6
7c
00
00
ENDCHAR
STARTCHAR U+01D8
ENCODING 472
SWIDTH 500 0
DWIDTH 8 0
BBX 8 16 0 -2
BITMAP 
1c
70
00
6c
6c
00
c6
c6
c6
c6
c6
c6
ce
7a
00
00
ENDCHAR
STARTCHAR U+01D9
ENCODING 473
SWIDTH 500 0
DWIDTH 8 0
BBX 8 16 0 -2
BITMAP 
6c
38
00
6c
00
c6
c6
c6
c6
c6
c6
c6
c6
7c
00
00
ENDCHAR
STARTCHAR U+01DA
ENCODING 474
SWIDTH 500 0
DWIDTH 8 0
BBX 8 16 0 -2
BITMAP 
6c
38
00
6c
6c
00
c6
c6
c6
c6
c6
c6
ce
7a
00
00
ENDCHAR
STARTCHAR U+01DB
ENCODING 475
SWIDTH 500 0
DWIDTH 8 0
BBX 8 16 0 -2
BITMAP 
70
1c
00
6c
00
c6
c6
c6
c6
c6
c6
c6
c6
7c
00
00
ENDCHAR
STARTCHAR U+01DC
ENCODING 476
SWIDTH 500 0
DWIDTH 8 0
BBX 8 16 0 -2
BITMAP 
70
1c
00
6c
6c
00
c6
c6
c6
c6
c6
c6
ce
7a
00
00
ENDCHAR
STARTCHAR U+01DD
ENCODING 477
SWIDTH 500 0
DWIDTH 8 0
BBX 8 16 0 -2
BITMAP 
00
00
00
00
00
00
7c
c6
06
06
fe
c6
c6
7c
00
00
ENDCHAR
STARTCHAR U+01DE
ENCODING 478
SWIDTH 500 0
DWIDTH 8 0
BBX 8 16 0 -2
BITMAP 
7c
00
6c
00
38
6c
6c
c6
c6
fe
c6
c6
c6
c6
00
00
ENDCHAR
STARTCHAR U+01DF
ENCODING 479
SWIDTH 500 0
DWIDTH 8 0
BBX 8 16 0 -2
BITMAP 
00
7c
00
6c
6c
00
7c
c6
06
7e
c6
c6
ce
7a
00
00
ENDCHAR
STARTCHAR U+01E0
ENCODING 480
SWIDTH 500 0
DWIDTH 8 0
BBX 8 16 0 -2
BITMAP 
7c
00
38
00
38
6c
6c
c6
c6
fe
c6
c6
c6
c6
00
00
ENDCHAR
STARTCHAR U+01E1
ENCODING 481
SWIDTH 500 0
DWIDTH 8 0
BBX 8 16 0 -2
BITMAP 
00
7c
00
30
30
00
7c
c6
06
7e
c6
c6
ce
7a
00
00
ENDCHAR
STARTCHAR U+01E2
ENCODING 482
SWIDTH 500 0
DWIDTH 8 0
BBX 8 16 0 -2
BITMAP 
00
7c
00
00
3f
68
d8
d8
ff
d8
d8
d8
d8
df
00
00
ENDCHAR
STARTCHAR U+01E3
ENCODING 483
SWIDTH 500 0
DWIDTH 8 0
BBX 8 16 0 -2
BITMAP 
00
00
00
7c
00
00
7e
db
1b
7f
d8
d8
db
7e
00
00
ENDCHAR
STARTCHAR U+01E4
ENCODING 484
SWIDTH 500 0
DWIDTH 8 0
BBX 8 16 0 -2
BITMAP 
00
00
00
00
7c
c6
c6
c0
c0
de
c6
df
c6
7e
00
00
ENDCHAR
STARTCHAR U+01E5
ENCODING 485
SWIDTH 500 0
DWIDTH 8 0
BBX 8 16 0 -2
BITMAP 
00
00
00
00
00
06
7a
cc
cc
cc
78
60
7c
df
c6
7c
ENDCHAR
STARTCHAR U+01E6
ENCODING 486
SWIDTH 500 0
DWIDTH 8 0
BBX 8 16 0 -2
BITMAP 
6c
38
00
00
7c
c6
c6
c0
c0
de
c6
c6
ce
7a
00
00
ENDCHAR
STARTCHAR U+01E7
ENCODING 487
SWIDTH 500 0
DWIDTH 8 0
BBX 8 16 0 -2
BITMAP 
00
00
6c
38
00
06
7a
cc
cc
cc
78
60
7c
c6
c6
7c
ENDCHAR
STARTCHAR U+01E8
ENCODING 488
SWIDTH 500 0
DWIDTH 8 0
BBX 8 16 0 -2
BITMAP 
6c
38
00
00
c6
cc
d8
d0
e0
e0
d0
d8
cc
c6
00
00
ENDCHAR
STARTCHAR U+01E9
ENCODING 489
SWIDTH 500 0
DWIDTH 8 0
BBX 8 16 0 -2
BITMAP 
d8
70
00
00
c0
c0
cc
d8
d0
e0
d0
d8
cc
c6
00
00
ENDCHAR
STARTCHAR U+01EA
ENCODING 490
SWIDTH 500 0
DWIDTH 8 0
BBX 8 16 0 -2
BITMAP 
00
00
00
00
7c
c6
c6
c6
c6
c6
c6
c6
c6
7c
30
1c
ENDCHAR
STARTCHAR U+01EB
ENCODING 491
SWIDTH 500 0
DWIDTH 8 0
BBX 8 16 0 -2
BITMAP 
00
00
00
00
00
00
7c
c6
c6
c6
c6
c6
c6
7c
30
1c
ENDCHAR
STARTCHAR U+01EC
ENCODING 492
SWIDTH 500 0
DWIDTH 8 0
BBX 8 16 0 -2
BITMAP 
00
7c
00
00
7c
c6
c6
c6
c6
c6
c6
c6
c6
7c
30
1c
ENDCHAR
STARTCHAR U+01ED
ENCODING 493
SWIDTH 500 0
DWIDTH 8 0
BBX 8 16 0 -2
BITMAP 
00
00
00
7c
00
00
7c
c6
c6
c6
c6
c6
c6
7c
30
1c
ENDCHAR
STARTCHAR U+01EE
ENCODING 494
SWIDTH 500 0
DWIDTH 8 0
BBX 8 16 0 -2
BITMAP 
6c
38
00
00
fe
0c
18
30
3c
06
06
06
ce
7c
00
00
ENDCHAR
STARTCHAR U+01EF
ENCODING 495
SWIDTH 500 0
DWIDTH 8 0
BBX 8 16 0 -2
BITMAP 
00
00
6c
38
00
00
7e
0c
18
30
3c
06
06
06
c6
7c
ENDCHAR
STARTCHAR U+01F0
ENCODING 496
SWIDTH 500 0
DWIDTH 8 0
BBX 8 16 0 -2
BITMAP 
00
00
36
1c
00
00
1c
0c
0c
0c
0c
0c
0c
0c
d8
70
ENDCHAR
STARTCHAR U+01F1
ENCODING 497
SWIDTH 500 0
DWIDTH 8 0
BBX 8 16 0 -2
BITMAP 
00
00
00
00
ef
d3
d3
d3
d6
d6
d4
d4
d4
ef
00
00
ENDCHAR
STARTCHAR U+01F2
ENCODING 498
SWIDTH 500 0
DWIDTH 8 0
BBX 8 16 0 -2
BITMAP 
00
00
00
00
e0
d0
d7
d3
d3
d6
d6
d4
d4
ef
00
00
ENDCHAR
STARTCHAR U+01F3
ENCODING 499
SWIDTH 500 0
DWIDTH 8 0
BBX 8 16 0 -2
BITMAP 
00
00
00
30
30
30
77
d3
d3
d6
d6
d4
d4
77
00
00
ENDCHAR
STARTCHAR U+01F4
ENCODING 500
SWIDTH 500 0
DWIDTH 8 0
BBX 8 16 0 -2
BITMAP 
1c
70
00
00
7c
c6
c6
c0
c0
de
c6
c6
ce
7a
00
00
ENDCHAR
STARTCHAR U+01F5
ENCODING 501
SWIDTH 500 0
DWIDTH 8 0
BBX 8 16 0 -2
BITMAP 
00
00
1c
70
00
06
7a
cc
cc
cc
78
60
7c
c6
c6
7c
ENDCHAR
STARTCHAR U+01F6
ENCODING 502
SWIDTH 500 0
DWIDTH 8 0
BBX 8 16 0 -2
BITMAP 
00
00
00
d8
d8
d8
d8
fb
db
db
db
db
db
ce
00
00
ENDCHAR
STARTCHAR U+01F7
ENCODING 503
SWIDTH 500 0
DWIDTH 8 0
BBX 8 16 0 -2
BITMAP 
00
00
00
00
de
e3
c3
c3
c6
cc
d8
d0
e0
c0
c0
c0
ENDCHAR
STARTCHAR U+01F8
ENCODING 504
SWIDTH 500 0
DWIDTH 8 0
BBX 8 16 0 -2
BITMAP 
70
1c
00
00
c6
e6
e6
d6
d6
da
da
ce
ce
c6
00
00
ENDCHAR
STARTCHAR U+01F9
ENCODING 505
SWIDTH 500 0
DWIDTH 8 0
BBX 8 16 0 -2
BITMAP 
00
00
70
1c
00
00
dc
e6
c6
c6
c6
c6
c6
c6
00
00
ENDCHAR
STARTCHAR U+01FA
ENCODING 506
SWIDTH 500 0
DWIDTH 8 0
BBX 8 16 0 -2
BITMAP 
1c
70
38
6c
38
38
6c
6c
c6
fe
c6
c6
c6
c6
00
00
ENDCHAR
STARTCHAR U+01FB
ENCODING 507
SWIDTH 500 0
DWIDTH 8 0
BBX 8 16 0 -2
BITMAP 
1c
70
00
38
6c
38
00
7c
c6
06
7e
c6
ce
7a
00
00
ENDCHAR
STARTCHAR U+01FC
ENCODING 508
SWIDTH 500 0
DWIDTH 8 0
BBX 8 16 0 -2
BITMAP 
0e
38
00
00
3f
68
d8
d8
ff
d8
d8
d8
d8
df
00
00
ENDCHAR
STARTCHAR U+01FD
ENCODING 509
SWIDTH 500 0
DWIDTH 8 0
BBX 8 16 0 -2
BITMAP 
00
00
0e
38
00
00
7e
db
1b
7f
d8
d8
db
7e
00
00
ENDCHAR
STARTCHAR U+01FE
ENCODING 510
SWIDTH 500 0
DWIDTH 8 0
BBX 8 16 0 -2
BITMAP 
1c
70
00
06
7a
cc
ce
da
da
d6
d6
e6
66
dc
c0
00
ENDCHAR
STARTCHAR U+01FF
ENCODING 511
SWIDTH 500 0
DWIDTH 8 0
BBX 8 16 0 -2
BITMAP 
00
00
1c
70
00
06
7c
ce
da
da
d6
d6
e6
7c
c0
00
ENDCHAR
STARTCHAR U+0200
ENCODING 512
SWIDTH 500 0
DWIDTH 8 0
BBX 8 16 0 -2
BITMAP 
dc
66
00
00
38
6c
6c
c6
c6
fe
c6
c6
c6
c6
00
00
ENDCHAR
STARTCHAR U+0201
ENCODING 513
SWIDTH 500 0
DWIDTH 8 0
BBX 8 16 0 -2
BITMAP 
00
00
dc
66
00
00
7c
c6
06
7e
c6
c6
ce
7a
00
00
ENDCHAR
STARTCHAR U+0202
ENCODING 514
SWIDTH 500 0
DWIDTH 8 0
BBX 8 16 0 -2
BITMAP 
7c
c6
c6
00
38
6c
6c
c6
c6
fe
c6
c6
c6
c6
00
00
ENDCHAR
STARTCHAR U+0203
ENCODING 515
SWIDTH 500 0
DWIDTH 8 0
BBX 8 16 0 -2
BITMAP 
00
00
7c
c6
c6
00
7c
c6
06
7e
c6
c6
ce
7a
00
00
ENDCHAR
STARTCHAR U+0204
ENCODING 516
SWIDTH 500 0
DWIDTH 8 0
BBX 8 16 0 -2
BITMAP 
dc
66
00
00
fe
c0
c0
c0
fc
c0
c0
c0
c0
fe
00
00
ENDCHAR
STARTCHAR U+0205
ENCODING 517
SWIDTH 500 0
DWIDTH 8 0
BBX 8 16 0 -2
BITMAP 
00
00
dc
66
00
00
7c
c6
c6
fe
c0
c0
c6
7c
00
00
ENDCHAR
STARTCHAR U+0206
ENCODING 518
SWIDTH 500 0
DWIDTH 8 0
BBX 8 16 0 -2
BITMAP 
7c
c6
c6
00
fe
c0
c0
c0
fc
c0
c0
c0
c0
fe
00
00
ENDCHAR
STARTCHAR U+0207
ENCODING 519
SWIDTH 500 0
DWIDTH 8 0
BBX 8 16 0 -2
BITMAP 
00
00
7c
c6
c6
00
7c
c6
c6
fe
c0
c0
c6
7c
00
00
ENDCHAR
STARTCHAR U+0208
ENCODING 520
SWIDTH 500 0
DWIDTH 8 0
BBX 8 16 0 -2
BITMAP 
dc
66
00
00
7e
18
18
18
18
18
18
18
18
7e
00
00
ENDCHAR
STARTCHAR U+0209
ENCODING 521
SWIDTH 500 0
DWIDTH 8 0
BBX 8 16 0 -2
BITMAP 
00
00
dc
66
00
00
38
18
18
18
18
18
18
7e
00
00
ENDCHAR
STARTCHAR U+020A
ENCODING 522
SWIDTH 500 0
DWIDTH 8 0
BBX 8 16 0 -2
BITMAP 
7c
c6
c6
00
7e
18
18
18
18
18
18
18
18
7e
00
00
ENDCHAR
STARTCHAR U+020B
ENCODING 523
SWIDTH 500 0
DWIDTH 8 0
BBX 8 16 0 -2
BITMAP 
00
00
7c
c6
c6
00
38
18
18
18
18
18
18
7e
00
00
ENDCHAR
STARTCHAR U+020C
ENCODING 524
SWIDTH 500 0
DWIDTH 8 0
BBX 8 16 0 -2
BITMAP 
dc
66
00
00
7c
c6
c6
c6
c6
c6
c6
c6
c6
7c
00
00
ENDCHAR
STARTCHAR U+020D
ENCODING 525
SWIDTH 500 0
DWIDTH 8 0
BBX 8 16 0 -2
BITMAP 
00
00
dc
66
00
00
7c
c6
c6
c6
c6
c6
c6
7c
00
00
ENDCHAR
STARTCHAR U+020E
ENCODING 526
SWIDTH 500 0
DWIDTH 8 0
BBX 8 16 0 -2
BITMAP 
7c
c6
c6
00
7c
c6
c6
c6
c6
c6
c6
c6
c6
7c
00
00
ENDCHAR
STARTCHAR U+020F
ENCODING 527
SWIDTH 500 0
DWIDTH 8 0
BBX 8 16 0 -2
BITMAP 
00
00
7c
c6
c6
00
7c
c6
c6
c6
c6
c6
c6
7c
00
00
ENDCHAR
STARTCHAR U+0210
ENCODING 528
SWIDTH 500 0
DWIDTH 8 0
BBX 8 16 0 -2
BITMAP 
dc
66
00
00
fc
c6
c6
c6
fc
d8
cc
cc
c6
c6
00
00
ENDCHAR
STARTCHAR U+0211
ENCODING 529
SWIDTH 500 0
DWIDTH 8 0
BBX 8 16 0 -2
BITMAP 
00
00
dc
66
00
00
dc
e6
c6
c0
c0
c0
c0
c0
00
00
ENDCHAR
STARTCHAR U+0212
ENCODING 530
SWIDTH 500 0
DWIDTH 8 0
BBX 8 16 0 -2
BITMAP 
7c
c6
c6
00
fc
c6
c6
c6
fc
d8
cc
cc
c6
c6
00
00
ENDCHAR
STARTCHAR U+0213
ENCODING 531
SWIDTH 500 0
DWIDTH 8 0
BBX 8 16 0 -2
BITMAP 
00
00
7c
c6
c6
00
dc
e6
c6
c0
c0
c0
c0
c0
00
00
ENDCHAR
STARTCHAR U+0214
ENCODING 532
SWIDTH 500 0
DWIDTH 8 0
BBX 8 16 0 -2
BITMAP 
dc
66
00
00
c6
c6
c6
c6
c6
c6
c6
c6
c6
7c
00
00
ENDCHAR
STARTCHAR U+0215
ENCODING 533
SWIDTH 500 0
DWIDTH 8 0
BBX 8 16 0 -2
BITMAP 
00
00
dc
66
00
00
c6
c6
c6
c6
c6
c6
ce
7a
00
00
ENDCHAR
STARTCHAR U+0216
ENCODING 534
SWIDTH 500 0
DWIDTH 8 0
BBX 8 16 0 -2
BITMAP 
7c
c6
c6
00
c6
c6
c6
c6
c6
c6
c6
c6
c6
7c
00
00
ENDCHAR
STARTCHAR U+0217
ENCODING 535
SWIDTH 500 0
DWIDTH 8 0
BBX 8 16 0 -2
BITMAP 
00
00
7c
c6
c6
00
c6
c6
c6
c6
c6
c6
ce
7a
00
00
ENDCHAR
STARTCHAR U+0218
ENCODING 536
SWIDTH 500 0
DWIDTH 8 0
BBX 8 16 0 -2
BITMAP 
00
00
00
00
7c
c6
c6
70
1c
c6
c6
7c
00
38
18
30
ENDCHAR
STARTCHAR U+0219
ENCODING 537
SWIDTH 500 0
DWIDTH 8 0
BBX 8 16 0 -2
BITMAP 
00
00
00
00
00
00
7c
c6
70
1c
c6
7c
00
38
18
30
ENDCHAR
STARTCHAR U+021A
ENCODING 538
SWIDTH 500 0
DWIDTH 8 0
BBX 8 16 0 -2
BITMAP 
00
00
00
00
ff
18
18
18
18
18
18
18
00
38
18
30
ENDCHAR
STARTCHAR U+021B
ENCODING 539
SWIDTH 500 0
DWIDTH 8 0
BBX 8 16 0 -2
BITMAP 
00
00
00
00
30
30
fc
30
30
30
30
1c
00
38
18
30
ENDCHAR
STARTCHAR U+021C
ENCODING 540
SWIDTH 500 0
DWIDTH 8 0
BBX 8 16 0 -2
BITMAP 
00
00
00
00
f8
cc
0c
18
3c
e6
06
06
1c
f0
00
00
ENDCHAR
STARTCHAR U+021D
ENCODING 541
SWIDTH 500 0
DWIDTH 8 0
BBX 8 16 0 -2
BITMAP 
00
00
00
00
00
00
f0
18
18
30
78
cc
0c
0c
38
e0
ENDCHAR
STARTCHAR U+021E
ENCODING 542
SWIDTH 500 0
DWIDTH 8 0
BBX 8 16 0 -2
BITMAP 
6c
38
00
00
c6
c6
c6
c6
fe
c6
c6
c6
c6
c6
00
00
ENDCHAR
STARTCHAR U+021F
ENCODING 543
SWIDTH 500 0
DWIDTH 8 0
BBX 8 16 0 -2
BITMAP 
d8
70
00
c0
c0
c0
dc
e6
c6
c6
c6
c6
c6
c6
00
00
ENDCHAR
STARTCHAR U+0222
ENCODING 546
SWIDTH 500 0
DWIDTH 8 0
BBX 8 16 0 -2
BITMAP 
00
00
00
1c
c6
86
86
cc
fc
86
86
86
86
fc
00
00
ENDCHAR
STARTCHAR U+0223
ENCODING 547
SWIDTH 500 0
DWIDTH 8 0
BBX 8 16 0 -2
BITMAP 
00
00
00
00
6c
c6
c6
6c
7c
c6
c6
c6
c6
7c
00
00
ENDCHAR
STARTCHAR U+0224
ENCODING 548
SWIDTH 500 0
DWIDTH 8 0
BBX 8 16 0 -2
BITMAP 
00
00
00
00
fe
06
06
0c
18
30
60
c0
c0
fe
06
0c
ENDCHAR
STARTCHAR U+0225
ENCODING 549
SWIDTH 500 0
DWIDTH 8 0
BBX 8 16 0 -2
BITMAP 
00
00
00
00
00
00
fe
06
0c
18
30
60
c0
fe
06
0c
ENDCHAR
STARTCHAR U+0226
ENCODING 550
SWIDTH 500 0
DWIDTH 8 0
BBX 8 16 0 -2
BITMAP 
30
30
00
00
38
6c
6c
c6
c6
fe
c6
c6
c6
c6
00
00
ENDCHAR
STARTCHAR U+0227
ENCODING 551
SWIDTH 500 0
DWIDTH 8 0
BBX 8 16 0 -2
BITMAP 
00
00
30
30
00
00
7c
c6
06
7e
c6
c6
ce
7a
00
00
ENDCHAR
STARTCHAR U+0228
ENCODING 552
SWIDTH 500 0
DWIDTH 8 0
BBX 8 16 0 -2
BITMAP 
00
00
00
00
fe
c0
c0
c0
fc
c0
c0
c0
c0
fe
18
70
ENDCHAR
STARTCHAR U+0229
ENCODING 553
SWIDTH 500 0
DWIDTH 8 0
BBX 8 16 0 -2
BITMAP 
00
00
00
00
00
00
7c
c6
c6
fe
c0
c0
c6
7c
18
70
ENDCHAR
STARTCHAR U+022A
ENCODING 554
SWIDTH 500 0
DWIDTH 8 0
BBX 8 16 0 -2
BITMAP 
7c
00
6c
00
7c
c6
c6
c6
c6
c6
c6
c6
c6
7c
00
00
ENDCHAR
STARTCHAR U+022B
ENCODING 555
SWIDTH 500 0
DWIDTH 8 0
BBX 8 16 0 -2
BITMAP 
00
00
7c
00
6c
00
7c
c6
c6
c6
c6
c6
c6
7c
00
00
ENDCHAR
STARTCHAR U+022C
ENCODING 556
SWIDTH 500 0
DWIDTH 8 0
BBX 8 16 0 -2
BITMAP 
7c
00
76
dc
00
7c
c6
c6
c6
c6
c6
c6
c6
7c
00
00
ENDCHAR
STARTCHAR U+022D
ENCODING 557
SWIDTH 500 0
DWIDTH 8 0
BBX 8 16 0 -2
BITMAP 
00
00
7c
00
76
dc
00
7c
c6
c6
c6
c6
c6
7c
00
00
ENDCHAR
STARTCHAR U+022E
ENCODING 558
SWIDTH 500 0
DWIDTH 8 0
BBX 8 16 0 -2
BITMAP 
00
30
30
00
7c
c6
c6
c6
c6
c6
c6
c6
c6
7c
00
00
ENDCHAR
STARTCHAR U+022F
ENCODING 559
SWIDTH 500 0
DWIDTH 8 0
BBX 8 16 0 -2
BITMAP 
00
00
00
30
30
00
7c
c6
c6
c6
c6
c6
c6
7c
00
00
ENDCHAR
STARTCHAR U+0230
ENCODING 560
SWIDTH 500 0
DWIDTH 8 0
BBX 8 16 0 -2
BITMAP 
7c
00
38
00
7c
c6
c6
c6
c6
c6
c6
c6
c6
7c
00
00
ENDCHAR
STARTCHAR U+0231
ENCODING 561
SWIDTH 500 0
DWIDTH 8 0
BBX 8 16 0 -2
BITMAP 
00
00
7c
00
38
00
7c
c6
c6
c6
c6
c6
c6
7c
00
00
ENDCHAR
STARTCHAR U+0232
ENCODING 562
SWIDTH 500 0
DWIDTH 8 0
BBX 8 16 0 -2
BITMAP 
00
7c
00
00
c3
c3
66
66
34
18
18
18
18
18
00
00
ENDCHAR
STARTCHAR U+0233
ENCODING 563
SWIDTH 500 0
DWIDTH 8 0
BBX 8 16 0 -2
BITMAP 
00
00
00
7c
00
00
c6
c6
c6
c6
c6
6e
3a
06
06
7c
ENDCHAR
STARTCHAR U+0250
ENCODING 592
SWIDTH 500 0
DWIDTH 8 0
BBX 8 16 0 -2
BITMAP 
00
00
00
00
00
00
dc
e6
c6
c6
fc
c0
c6
7c
00
00
ENDCHAR
STARTCHAR U+0251
ENCODING 593
SWIDTH 500 0
DWIDTH 8 0
BBX 8 16 0 -2
BITMAP 
00
00
00
00
00
00
7a
ce
c6
c6
c6
ce
da
76
00
00
ENDCHAR
STARTCHAR U+0252
ENCODING 594
SWIDTH 500 0
DWIDTH 8 0
BBX 8 16 0 -2
BITMAP 
00
00
00
00
00
00
dc
d6
e6
c6
c6
c6
e6
dc
00
00
ENDCHAR
STARTCHAR U+0253
ENCODING 595
SWIDTH 500 0
DWIDTH 8 0
BBX 8 16 0 -2
BITMAP 
00
00
00
78
c0
c0
dc
e6
c6
c6
c6
c6
e6
dc
00
00
ENDCHAR
STARTCHAR U+0254
ENCODING 596
SWIDTH 500 0
DWIDTH 8 0
BBX 8 16 0 -2
BITMAP 
00
00
00
00
00
00
7c
c6
06
06
06
06
c6
7c
00
00
ENDCHAR
STARTCHAR U+0255
ENCODING 597
SWIDTH 500 0
DWIDTH 8 0
BBX 8 16 0 -2
BITMAP 
00
00
00
00
00
00
7c
c6
c0
c0
c0
dc
d6
7c
c0
00
ENDCHAR
STARTCHAR U+0256
ENCODING 598
SWIDTH 500 0
DWIDTH 8 0
BBX 8 16 0 -2
BITMAP 
00
00
00
0c
0c
0c
74
dc
cc
cc
cc
cc
dc
74
07
00
ENDCHAR
STARTCHAR U+0257
ENCODING 599
SWIDTH 500 0
DWIDTH 8 0
BBX 8 16 0 -2
BITMAP 
00
00
00
07
0c
0c
74
dc
cc
cc
cc
cc
dc
74
00
00
ENDCHAR
STARTCHAR U+0258
ENCODING 600
SWIDTH 500 0
DWIDTH 8 0
BBX 8 16 0 -2
BITMAP 
00
00
00
00
00
00
7c
c6
c6
fe
06
06
c6
7c
00
00
ENDCHAR
STARTCHAR U+0259
ENCODING 601
SWIDTH 500 0
DWIDTH 8 0
BBX 8 16 0 -2
BITMAP 
00
00
00
00
00
00
7c
c6
06
06
fe
c6
c6
7c
00
00
ENDCHAR
STARTCHAR U+025A
ENCODING 602
SWIDTH 500 0
DWIDTH 8 0
BBX 8 16 0 -2
BITMAP 
00
00
00
00
00
00
78
ce
1d
75
cc
cc
cc
78
00
00
ENDCHAR
STARTCHAR U+025B
ENCODING 603
SWIDTH 500 0
DWIDTH 8 0
BBX 8 16 0 -2
BITMAP 
00
00
00
00
00
00
7c
c6
c0
7c
c0
c0
c6
7c
00
00
ENDCHAR
STARTCHAR U+025C
ENCODING 604
SWIDTH 500 0
DWIDTH 8 0
BBX 8 16 0 -2
BITMAP 
00
00
00
00
00
00
7c
c6
06
7c
06
06
c6
7c
00
00
ENDCHAR
STARTCHAR U+025D
ENCODING 605
SWIDTH 500 0
DWIDTH 8 0
BBX 8 16 0 -2
BITMAP 
00
00
00
00
00
00
f4
9d
1a
f0
18
18
98
f0
00
00
ENDCHAR
STARTCHAR U+025E
ENCODING 606
SWIDTH 500 0
DWIDTH 8 0
BBX 8 16 0 -2
BITMAP 
00
00
00
00
00
00
7c
c6
c6
dc
c6
c6
c6
7c
00
00
ENDCHAR
STARTCHAR U+025F
ENCODING 607
SWIDTH 500 0
DWIDTH 8 0
BBX 8 16 0 -2
BITMAP 
00
00
00
00
00
00
1c
0c
0c
0c
3f
0c
0c
0c
d8
70
ENDCHAR
STARTCHAR U+0260
ENCODING 608
SWIDTH 500 0
DWIDTH 8 0
BBX 8 16 0 -2
BITMAP 
00
00
00
00
00
07
7d
cc
cc
cc
78
60
7c
c6
c6
7c
ENDCHAR
STARTCHAR U+0261
ENCODING 609
SWIDTH 500 0
DWIDTH 8 0
BBX 8 16 0 -2
BITMAP 
00
00
00
00
00
00
7a
ce
c6
c6
c6
ce
7a
06
c6
7c
ENDCHAR
STARTCHAR U+0262
ENCODING 610
SWIDTH 500 0
DWIDTH 8 0
BBX 8 16 0 -2
BITMAP 
00
00
00
00
00
00
7c
c6
c0
c0
de
c6
c6
7e
00
00
ENDCHAR
STARTCHAR U+0263
ENCODING 611
SWIDTH 500 0
DWIDTH 8 0
BBX 8 16 0 -2
BITMAP 
00
00
00
00
00
00
c6
c6
c6
6c
6c
38
38
6c
6c
38
ENDCHAR
STARTCHAR U+0264
ENCODING 612
SWIDTH 500 0
DWIDTH 8 0
BBX 8 16 0 -2
BITMAP 
00
00
00
00
00
00
c6
c6
6c
6c
38
38
6c
38
00
00
ENDCHAR
STARTCHAR U+0265
ENCODING 613
SWIDTH 500 0
DWIDTH 8 0
BBX 8 16 0 -2
BITMAP 
00
00
00
00
00
c6
c6
c6
c6
c6
c6
ce
7a
06
06
06
ENDCHAR
STARTCHAR U+0266
ENCODING 614
SWIDTH 500 0
DWIDTH 8 0
BBX 8 16 0 -2
BITMAP 
00
00
00
78
c0
c0
dc
e6
c6
c6
c6
c6
c6
c6
00
00
ENDCHAR
STARTCHAR U+0267
ENCODING 615
SWIDTH 500 0
DWIDTH 8 0
BBX 8 16 0 -2
BITMAP 
00
00
00
78
c0
c0
dc
e6
c6
c6
c6
c6
c6
dc
00
00
ENDCHAR
STARTCHAR U+0268
ENCODING 616
SWIDTH 500 0
DWIDTH 8 0
BBX 8 16 0 -2
BITMAP 
00
00
00
18
18
00
38
18
18
7e
18
18
18
7e
00
00
ENDCHAR
STARTCHAR U+0269
ENCODING 617
SWIDTH 500 0
DWIDTH 8 0
BBX 8 16 0 -2
BITMAP 
00
00
00
00
00
00
30
30
30
30
30
30
30
1c
00
00
ENDCHAR
STARTCHAR U+026A
ENCODING 618
SWIDTH 500 0
DWIDTH 8 0
BBX 8 16 0 -2
BITMAP 
00
00
00
00
00
00
7e
18
18
18
18
18
18
7e
00
00
ENDCHAR
STARTCHAR U+026B
ENCODING 619
SWIDTH 500 0
DWIDTH 8 0
BBX 8 16 0 -2
BITMAP 
00
00
00
00
38
18
18
18
7a
dc
18
18
18
7e
00
00
ENDCHAR
STARTCHAR U+026C
ENCODING 620
SWIDTH 500 0
DWIDTH 8 0
BBX 8 16 0 -2
BITMAP 
00
00
00
00
38
18
18
78
d8
7e
18
18
18
7e
00
00
ENDCHAR
STARTCHAR U+026D
ENCODING 621
SWIDTH 500 0
DWIDTH 8 0
BBX 8 16 0 -2
BITMAP 
00
00
00
00
38
18
18
18
18
18
18
18
18
18
0e
00
ENDCHAR
STARTCHAR U+026E
ENCODING 622
SWIDTH 500 0
DWIDTH 8 0
BBX 8 16 0 -2
BITMAP 
00
00
00
00
70
30
3f
33
36
34
36
33
33
fd
1b
0e
ENDCHAR
STARTCHAR U+026F
ENCODING 623
SWIDTH 500 0
DWIDTH 8 0
BBX 8 16 0 -2
BITMAP 
00
00
00
00
00
00
db
db
db
db
db
db
db
77
00
00
ENDCHAR
STARTCHAR U+0270
ENCODING 624
SWIDTH 500 0
DWIDTH 8 0
BBX 8 16 0 -2
BITMAP 
00
00
00
00
00
00
db
db
db
db
db
db
db
77
03
03
ENDCHAR
STARTCHAR U+0271
ENCODING 625
SWIDTH 500 0
DWIDTH 8 0
BBX 8 16 0 -2
BITMAP 
00
00
00
00
00
00
f6
db
db
db
db
db
db
c3
0e
00
ENDCHAR
STARTCHAR U+0272
ENCODING 626
SWIDTH 500 0
DWIDTH 8 0
BBX 8 16 0 -2
BITMAP 
00
00
00
00
00
00
36
3b
33
33
33
33
33
33
e0
00
ENDCHAR
STARTCHAR U+0273
ENCODING 627
SWIDTH 500 0
DWIDTH 8 0
BBX 8 16 0 -2
BITMAP 
00
00
00
00
00
00
d8
ec
cc
cc
cc
cc
cc
cc
07
00
ENDCHAR
STARTCHAR U+0274
ENCODING 628
SWIDTH 500 0
DWIDTH 8 0
BBX 8 16 0 -2
BITMAP 
00
00
00
00
00
00
c6
c6
e6
d6
da
ce
c6
c6
00
00
ENDCHAR
STARTCHAR U+0275
ENCODING 629
SWIDTH 500 0
DWIDTH 8 0
BBX 8 16 0 -2
BITMAP 
00
00
00
00
00
00
7c
c6
c6
fe
c6
c6
c6
7c
00
00
ENDCHAR
STARTCHAR U+0276
ENCODING 630
SWIDTH 500 0
DWIDTH 8 0
BBX 8 16 0 -2
BITMAP 
00
00
00
00
00
00
77
d8
d8
de
d8
d8
d8
77
00
00
ENDCHAR
STARTCHAR U+0277
ENCODING 631
SWIDTH 500 0
DWIDTH 8 0
BBX 8 16 0 -2
BITMAP 
00
00
00
00
00
00
7e
c3
c3
db
db
db
db
76
00
00
ENDCHAR
STARTCHAR U+0278
ENCODING 632
SWIDTH 500 0
DWIDTH 8 0
BBX 8 16 0 -2
BITMAP 
00
00
00
00
18
18
7e
db
db
db
db
db
db
7e
18
18
ENDCHAR
STARTCHAR U+0279
ENCODING 633
SWIDTH 500 0
DWIDTH 8 0
BBX 8 16 0 -2
BITMAP 
00
00
00
00
00
00
06
06
06
06
06
c6
ce
7a
00
00
ENDCHAR
STARTCHAR U+027A
ENCODING 634
SWIDTH 500 0
DWIDTH 8 0
BBX 8 16 0 -2
BITMAP 
00
00
00
00
06
06
06
06
06
06
06
c6
ce
7a
00
00
ENDCHAR
STARTCHAR U+027B
ENCODING 635
SWIDTH 500 0
DWIDTH 8 0
BBX 8 16 0 -2
BITMAP 
00
00
00
00
00
00
0c
0c
0c
0c
0c
cc
dc
74
07
00
ENDCHAR
STARTCHAR U+027C
ENCODING 636
SWIDTH 500 0
DWIDTH 8 0
BBX 8 16 0 -2
BITMAP 
00
00
00
00
00
00
dc
e6
c6
c0
c0
c0
c0
c0
c0
c0
ENDCHAR
STARTCHAR U+027D
ENCODING 637
SWIDTH 500 0
DWIDTH 8 0
BBX 8 16 0 -2
BITMAP 
00
00
00
00
00
00
dc
e6
c6
c0
c0
c0
c0
c0
70
00
ENDCHAR
STARTCHAR U+027E
ENCODING 638
SWIDTH 500 0
DWIDTH 8 0
BBX 8 16 0 -2
BITMAP 
00
00
00
00
00
00
7c
c6
c6
c0
c0
c0
c0
c0
00
00
ENDCHAR
STARTCHAR U+027F
ENCODING 639
SWIDTH 500 0
DWIDTH 8 0
BBX 8 16 0 -2
BITMAP 
00
00
00
00
00
00
7c
c6
c6
06
06
06
06
06
00
00
ENDCHAR
STARTCHAR U+0280
ENCODING 640
SWIDTH 500 0
DWIDTH 8 0
BBX 8 16 0 -2
BITMAP 
00
00
00
00
00
00
fc
c6
c6
fc
cc
c6
c6
c6
00
00
ENDCHAR
STARTCHAR U+0281
ENCODING 641
SWIDTH 500 0
DWIDTH 8 0
BBX 8 16 0 -2
BITMAP 
00
00
00
00
00
00
c6
c6
c6
cc
fc
c6
c6
fc
00
00
ENDCHAR
STARTCHAR U+0282
ENCODING 642
SWIDTH 500 0
DWIDTH 8 0
BBX 8 16 0 -2
BITMAP 
00
00
00
00
00
00
7c
c6
c0
70
1c
06
c6
fc
c0
70
ENDCHAR
STARTCHAR U+0283
ENCODING 643
SWIDTH 500 0
DWIDTH 8 0
BBX 8 16 0 -2
BITMAP 
00
00
00
1c
30
30
30
30
30
30
30
30
30
30
e0
00
ENDCHAR
STARTCHAR U+0284
ENCODING 644
SWIDTH 500 0
DWIDTH 8 0
BBX 8 16 0 -2
BITMAP 
00
00
00
1c
30
30
30
fc
30
30
fc
30
30
30
e0
00
ENDCHAR
STARTCHAR U+0285
ENCODING 645
SWIDTH 500 0
DWIDTH 8 0
BBX 8 16 0 -2
BITMAP 
00
00
00
00
00
00
e0
30
30
30
30
30
30
30
1c
00
ENDCHAR
STARTCHAR U+0286
ENCODING 646
SWIDTH 500 0
DWIDTH 8 0
BBX 8 16 0 -2
BITMAP 
00
00
00
0e
18
18
18
18
18
18
18
18
78
de
70
00
ENDCHAR
STARTCHAR U+0287
ENCODING 647
SWIDTH 500 0
DWIDTH 8 0
BBX 8 16 0 -2
BITMAP 
00
00
00
00
e0
30
30
30
30
30
30
fc
30
30
00
00
ENDCHAR
STARTCHAR U+0288
ENCODING 648
SWIDTH 500 0
DWIDTH 8 0
BBX 8 16 0 -2
BITMAP 
00
00
00
00
30
30
fc
30
30
30
30
30
30
30
1e
00
ENDCHAR
STARTCHAR U+0289
ENCODING 649
SWIDTH 500 0
DWIDTH 8 0
BBX 8 16 0 -2
BITMAP 
00
00
00
00
00
00
66
66
66
ff
66
66
6e
3a
00
00
ENDCHAR
STARTCHAR U+028A
ENCODING 650
SWIDTH 500 0
DWIDTH 8 0
BBX 8 16 0 -2
BITMAP 
00
00
00
00
00
00
c6
6c
c6
c6
c6
c6
6c
38
00
00
ENDCHAR
STARTCHAR U+028B
ENCODING 651
SWIDTH 500 0
DWIDTH 8 0
BBX 8 16 0 -2
BITMAP 
00
00
00
00
00
00
dc
c6
c6
c6
c6
cc
d8
70
00
00
ENDCHAR
STARTCHAR U+028C
ENCODING 652
SWIDTH 500 0
DWIDTH 8 0
BBX 8 16 0 -2
BITMAP 
00
00
00
00
00
00
38
38
6c
6c
6c
c6
c6
c6
00
00
ENDCHAR
STARTCHAR U+028D
ENCODING 653
SWIDTH 500 0
DWIDTH 8 0
BBX 8 16 0 -2
BITMAP 
00
00
00
00
00
00
76
db
db
db
db
db
db
c3
00
00
ENDCHAR
STARTCHAR U+028E
ENCODING 654
SWIDTH 500 0
DWIDTH 8 0
BBX 8 16 0 -2
BITMAP 
00
00
00
00
00
00
7c
c0
c0
d8
ec
c6
c6
c6
c6
c6
ENDCHAR
STARTCHAR U+028F
ENCODING 655
SWIDTH 500 0
DWIDTH 8 0
BBX 8 16 0 -2
BITMAP 
00
00
00
00
00
00
c3
c3
66
34
18
18
18
18
00
00
ENDCHAR
STARTCHAR U+0290
ENCODING 656
SWIDTH 500 0
DWIDTH 8 0
BBX 8 16 0 -2
BITMAP 
00
00
00
00
00
00
fc
18
18
30
30
60
60
fc
0c
07
ENDCHAR
STARTCHAR U+0291
ENCODING 657
SWIDTH 500 0
DWIDTH 8 0
BBX 8 16 0 -2
BITMAP 
00
00
00
00
00
00
fe
06
0c
18
30
6e
db
fe
30
00
ENDCHAR
STARTCHAR U+0292
ENCODING 658
SWIDTH 500 0
DWIDTH 8 0
BBX 8 16 0 -2
BITMAP 
00
00
00
00
00
00
7e
0c
18
30
3c
06
06
06
c6
7c
ENDCHAR
STARTCHAR U+0293
ENCODING 659
SWIDTH 500 0
DWIDTH 8 0
BBX 8 16 0 -2
BITMAP 
00
00
00
00
00
00
7e
0c
18
30
3c
06
06
76
da
7c
ENDCHAR
STARTCHAR U+0294
ENCODING 660
SWIDTH 500 0
DWIDTH 8 0
BBX 8 16 0 -2
BITMAP 
00
00
00
00
7c
c6
c6
06
0c
18
18
18
18
18
00
00
ENDCHAR
STARTCHAR U+0295
ENCODING 661
SWIDTH 500 0
DWIDTH 8 0
BBX 8 16 0 -2
BITMAP 
00
00
00
00
7c
c6
c6
c0
60
30
30
30
30
30
00
00
ENDCHAR
STARTCHAR U+0296
ENCODING 662
SWIDTH 500 0
DWIDTH 8 0
BBX 8 16 0 -2
BITMAP 
00
00
00
00
18
18
18
18
18
0c
06
c6
c6
7c
00
00
ENDCHAR
STARTCHAR U+0297
ENCODING 663
SWIDTH 500 0
DWIDTH 8 0
BBX 8 16 0 -2
BITMAP 
00
00
00
00
00
00
7c
c6
c0
c0
c0
c0
c0
c0
c6
7c
ENDCHAR
STARTCHAR U+0298
ENCODING 664
SWIDTH 500 0
DWIDTH 8 0
BBX 8 16 0 -2
BITMAP 
00
00
00
00
00
00
7c
c6
c6
da
da
c6
c6
7c
00
00
ENDCHAR
STARTCHAR U+0299
ENCODING 665
SWIDTH 500 0
DWIDTH 8 0
BBX 8 16 0 -2
BITMAP 
00
00
00
00
00
00
fc
c6
c6
fc
c6
c6
c6
fc
00
00
ENDCHAR
STARTCHAR U+029A
ENCODING 666
SWIDTH 500 0
DWIDTH 8 0
BBX 8 16 0 -2
BITMAP 
00
00
00
00
00
00
7c
c6
c6
7a
c6
c6
c6
7c
00
00
ENDCHAR
STARTCHAR U+029B
ENCODING 667
SWIDTH 500 0
DWIDTH 8 0
BBX 8 16 0 -2
BITMAP 
00
00
00
00
00
00
7b
cc
c0
c0
dc
cc
cc
7c
00
00
ENDCHAR
STARTCHAR U+029C
ENCODING 668
SWIDTH 500 0
DWIDTH 8 0
BBX 8 16 0 -2
BITMAP 
00
00
00
00
00
00
66
66
66
7e
66
66
66
66
00
00
ENDCHAR
STARTCHAR U+029D
ENCODING 669
SWIDTH 500 0
DWIDTH 8 0
BBX 8 16 0 -2
BITMAP 
00
00
00
0c
0c
00
1c
0c
0c
0c
0c
0c
0c
7e
d8
70
ENDCHAR
STARTCHAR U+029E
ENCODING 670
SWIDTH 500 0
DWIDTH 8 0
BBX 8 16 0 -2
BITMAP 
00
00
00
00
00
00
c6
66
36
1a
0e
1a
36
66
06
06
ENDCHAR
STARTCHAR U+029F
ENCODING 671
SWIDTH 500 0
DWIDTH 8 0
BBX 8 16 0 -2
BITMAP 
00
00
00
00
00
00
c0
c0
c0
c0
c0
c0
c0
fe
00
00
ENDCHAR
STARTCHAR U+02A0
ENCODING 672
SWIDTH 500 0
DWIDTH 8 0
BBX 8 16 0 -2
BITMAP 
00
00
00
00
00
07
74
dc
cc
cc
cc
cc
dc
74
0c
0c
ENDCHAR
STARTCHAR U+02A1
ENCODING 673
SWIDTH 500 0
DWIDTH 8 0
BBX 8 16 0 -2
BITMAP 
00
00
00
00
7c
c6
c6
06
0c
18
18
7e
18
18
00
00
ENDCHAR
STARTCHAR U+02A2
ENCODING 674
SWIDTH 500 0
DWIDTH 8 0
BBX 8 16 0 -2
BITMAP 
00
00
00
00
7c
c6
c6
c0
60
30
30
fc
30
30
00
00
ENDCHAR
STARTCHAR U+02A3
ENCODING 675
SWIDTH 500 0
DWIDTH 8 0
BBX 8 16 0 -2
BITMAP 
00
00
00
30
30
30
7f
d3
d6
d6
d4
d4
d8
7f
00
00
ENDCHAR
STARTCHAR U+02A4
ENCODING 676
SWIDTH 500 0
DWIDTH 8 0
BBX 8 16 0 -2
BITMAP 
00
00
00
30
30
30
7f
d3
d6
d4
d6
d3
d3
73
1b
0e
ENDCHAR
STARTCHAR U+02A5
ENCODING 677
SWIDTH 500 0
DWIDTH 8 0
BBX 8 16 0 -2
BITMAP 
00
00
00
30
30
30
7f
d3
d6
d4
d8
da
d5
7e
0c
00
ENDCHAR
STARTCHAR U+02A6
ENCODING 678
SWIDTH 500 0
DWIDTH 8 0
BBX 8 16 0 -2
BITMAP 
00
00
00
00
60
60
f6
68
68
6c
66
63
63
3e
00
00
ENDCHAR
STARTCHAR U+02A7
ENCODING 679
SWIDTH 500 0
DWIDTH 8 0
BBX 8 16 0 -2
BITMAP 
00
00
00
07
6c
6c
fc
6c
6c
6c
6c
6c
6c
3c
0c
38
ENDCHAR
STARTCHAR U+02A8
ENCODING 680
SWIDTH 500 0
DWIDTH 8 0
BBX 8 16 0 -2
BITMAP 
00
00
00
00
60
60
f6
6b
68
68
68
6a
6d
3e
0c
00
ENDCHAR
STARTCHAR U+02A9
ENCODING 681
SWIDTH 500 0
DWIDTH 8 0
BBX 8 16 0 -2
BITMAP 
00
00
00
38
60
60
60
fb
6d
6b
6b
6b
6b
6b
03
0e
ENDCHAR
STARTCHAR U+02AA
ENCODING 682
SWIDTH 500 0
DWIDTH 8 0
BBX 8 16 0 -2
BITMAP 
00
00
00
00
e0
60
6e
6b
68
6c
66
63
6b
f6
00
00
ENDCHAR
STARTCHAR U+02AB
ENCODING 683
SWIDTH 500 0
DWIDTH 8 0
BBX 8 16 0 -2
BITMAP 
00
00
00
00
e0
60
6f
63
66
66
6c
6c
68
ff
00
00
ENDCHAR
STARTCHAR U+02AC
ENCODING 684
SWIDTH 500 0
DWIDTH 8 0
BBX 8 16 0 -2
BITMAP 
00
00
00
c3
db
db
db
76
00
c3
db
db
db
76
00
00
ENDCHAR
STARTCHAR U+02AD
ENCODING 685
SWIDTH 500 0
DWIDTH 8 0
BBX 8 16 0 -2
BITMAP 
00
00
00
00
ff
c3
c3
c3
00
00
ff
c3
c3
c3
00
00
ENDCHAR
STARTCHAR U+02B0
ENCODING 688
SWIDTH 500 0
DWIDTH 8 0
BBX 8 16 0 -2
BITMAP 
00
00
00
00
60
68
74
6c
6c
00
00
00
00
00
00
00
ENDCHAR
STARTCHAR U+02B1
ENCODING 689
SWIDTH 500 0
DWIDTH 8 0
BBX 8 16 0 -2
BITMAP 
00
00
00
38
60
68
74
6c
6c
00
00
00
00
00
00
00
ENDCHAR
STARTCHAR U+02B2
ENCODING 690
SWIDTH 500 0
DWIDTH 8 0
BBX 8 16 0 -2
BITMAP 
00
00
00
18
00
18
18
68
30
00
00
00
00
00
00
00
ENDCHAR
STARTCHAR U+02B3
ENCODING 691
SWIDTH 500 0
DWIDTH 8 0
BBX 8 16 0 -2
BITMAP 
00
00
00
00
68
74
60
60
60
00
00
00
00
00
00
00
ENDCHAR
STARTCHAR U+02B4
ENCODING 692
SWIDTH 500 0
DWIDTH 8 0
BBX 8 16 0 -2
BITMAP 
00
00
00
00
18
18
18
d8
68
00
00
00
00
00
00
00
ENDCHAR
STARTCHAR U+02B5
ENCODING 693
SWIDTH 500 0
DWIDTH 8 0
BBX 8 16 0 -2
BITMAP 
00
00
00
00
18
18
18
d8
6a
0c
00
00
00
00
00
00
ENDCHAR
STARTCHAR U+02B6
ENCODING 694
SWIDTH 500 0
DWIDTH 8 0
BBX 8 16 0 -2
BITMAP 
00
00
00
00
cc
d8
f0
d8
f0
00
00
00
00
00
00
00
ENDCHAR
STARTCHAR U+02B7
ENCODING 695
SWIDTH 500 0
DWIDTH 8 0
BBX 8 16 0 -2
BITMAP 
00
00
00
00
86
b6
b6
ec
00
00
00
00
00
00
00
00
ENDCHAR
STARTCHAR U+02B8
ENCODING 696
SWIDTH 500 0
DWIDTH 8 0
BBX 8 16 0 -2
BITMAP 
00
00
00
00
cc
68
30
60
c0
00
00
00
00
00
00
00
ENDCHAR
STARTCHAR U+02B9
ENCODING 697
SWIDTH 500 0
DWIDTH 8 0
BBX 8 16 0 -2
BITMAP 
00
00
00
00
30
30
60
00
00
00
00
00
00
00
00
00
ENDCHAR
STARTCHAR U+02BA
ENCODING 698
SWIDTH 500 0
DWIDTH 8 0
BBX 8 16 0 -2
BITMAP 
00
00
00
00
34
34
68
00
00
00
00
00
00
00
00
00
ENDCHAR
STARTCHAR U+02BB
ENCODING 699
SWIDTH 500 0
DWIDTH 8 0
BBX 8 16 0 -2
BITMAP 
00
00
18
30
30
38
00
00
00
00
00
00
00
00
00
00
ENDCHAR
STARTCHAR U+02BC
ENCODING 700
SWIDTH 500 0
DWIDTH 8 0
BBX 8 16 0 -2
BITMAP 
00
00
38
18
18
30
00
00
00
00
00
00
00
00
00
00
ENDCHAR
STARTCHAR U+02BD
ENCODING 701
SWIDTH 500 0
DWIDTH 8 0
BBX 8 16 0 -2
BITMAP 
00
00
38
30
30
18
00
00
00
00
00
00
00
00
00
00
ENDCHAR
STARTCHAR U+02BE
ENCODING 702
SWIDTH 500 0
DWIDTH 8 0
BBX 8 16 0 -2
BITMAP 
00
00
00
38
0c
0c
38
00
00
00
00
00
00
00
00
00
ENDCHAR
STARTCHAR U+02BF
ENCODING 703
SWIDTH 500 0
DWIDTH 8 0
BBX 8 16 0 -2
BITMAP 
00
00
00
38
60
60
38
00
00
00
00
00
00
00
00
00
ENDCHAR
STARTCHAR U+02C0
ENCODING 704
SWIDTH 500 0
DWIDTH 8 0
BBX 8 16 0 -2
BITMAP 
f0
98
98
18
70
60
60
60
00
00
00
00
00
00
00
00
ENDCHAR
STARTCHAR U+02C1
ENCODING 705
SWIDTH 500 0
DWIDTH 8 0
BBX 8 16 0 -2
BITMAP 
f0
98
98
80
e0
60
60
60
00
00
00
00
00
00
00
00
ENDCHAR
STARTCHAR U+02C2
ENCODING 706
SWIDTH 500 0
DWIDTH 8 0
BBX 8 16 0 -2
BITMAP 
00
00
00
18
30
60
30
18
00
00
00
00
00
00
00
00
ENDCHAR
STARTCHAR U+02C3
ENCODING 707
SWIDTH 500 0
DWIDTH 8 0
BBX 8 16 0 -2
BITMAP 
00
00
00
60
30
18
30
60
00
00
00
00
00
00
00
00
ENDCHAR
STARTCHAR U+02C4
ENCODING 708
SWIDTH 500 0
DWIDTH 8 0
BBX 8 16 0 -2
BITMAP 
00
00
00
30
68
cc
00
00
00
00
00
00
00
00
00
00
ENDCHAR
STARTCHAR U+02C5
ENCODING 709
SWIDTH 500 0
DWIDTH 8 0
BBX 8 16 0 -2
BITMAP 
00
00
00
cc
68
30
00
00
00
00
00
00
00
00
00
00
ENDCHAR
STARTCHAR U+02C6
ENCODING 710
SWIDTH 500 0
DWIDTH 8 0
BBX 8 16 0 -2
BITMAP 
38
6c
00
00
00
00
00
00
00
00
00
00
00
00
00
00
ENDCHAR
STARTCHAR U+02C7
ENCODING 711
SWIDTH 500 0
DWIDTH 8 0
BBX 8 16 0 -2
BITMAP 
00
00
00
6c
38
00
00
00
00
00
00
00
00
00
00
00
ENDCHAR
STARTCHAR U+02C8
ENCODING 712
SWIDTH 500 0
DWIDTH 8 0
BBX 8 16 0 -2
BITMAP 
00
00
00
18
18
18
00
00
00
00
00
00
00
00
00
00
ENDCHAR
STARTCHAR U+02C9
ENCODING 713
SWIDTH 500 0
DWIDTH 8 0
BBX 8 16 0 -2
BITMAP 
00
00
00
7c
00
00
00
00
00
00
00
00
00
00
00
00
ENDCHAR
STARTCHAR U+02CA
ENCODING 714
SWIDTH 500 0
DWIDTH 8 0
BBX 8 16 0 -2
BITMAP 
00
00
00
1c
70
00
00
00
00
00
00
00
00
00
00
00
ENDCHAR
STARTCHAR U+02CB
ENCODING 715
SWIDTH 500 0
DWIDTH 8 0
BBX 8 16 0 -2
BITMAP 
00
00
00
70
1c
00
00
00
00
00
00
00
00
00
00
00
ENDCHAR
STARTCHAR U+02CC
ENCODING 716
SWIDTH 500 0
DWIDTH 8 0
BBX 8 16 0 -2
BITMAP 
00
00
00
00
00
00
00
00
00
00
60
60
60
00
00
00
ENDCHAR
STARTCHAR U+02CD
ENCODING 717
SWIDTH 500 0
DWIDTH 8 0
BBX 8 16 0 -2
BITMAP 
00
00
00
00
00
00
00
00
00
00
00
00
00
00
78
00
ENDCHAR
STARTCHAR U+02CE
ENCODING 718
SWIDTH 500 0
DWIDTH 8 0
BBX 8 16 0 -2
BITMAP 
00
00
00
00
00
00
00
00
00
00
00
00
00
30
18
00
ENDCHAR
STARTCHAR U+02CF
ENCODING 719
SWIDTH 500 0
DWIDTH 8 0
BBX 8 16 0 -2
BITMAP 
00
00
00
00
00
00
00
00
00
00
00
00
00
30
60
00
ENDCHAR
STARTCHAR U+02D0
ENCODING 720
SWIDTH 500 0
DWIDTH 8 0
BBX 8 16 0 -2
BITMAP 
00
00
00
00
00
00
78
30
00
00
00
30
78
00
00
00
ENDCHAR
STARTCHAR U+02D1
ENCODING 721
SWIDTH 500 0
DWIDTH 8 0
BBX 8 16 0 -2
BITMAP 
00
00
00
00
00
00
78
30
00
00
00
00
00
00
00
00
ENDCHAR
STARTCHAR U+02D2
ENCODING 722
SWIDTH 500 0
DWIDTH 8 0
BBX 8 16 0 -2
BITMAP 
00
00
00
00
00
00
00
30
18
18
30
00
00
00
00
00
ENDCHAR
STARTCHAR U+02D3
ENCODING 723
SWIDTH 500 0
DWIDTH 8 0
BBX 8 16 0 -2
BITMAP 
00
00
00
00
00
00
00
30
60
60
30
00
00
00
00
00
ENDCHAR
STARTCHAR U+02D4
ENCODING 724
SWIDTH 500 0
DWIDTH 8 0
BBX 8 16 0 -2
BITMAP 
00
00
00
00
00
00
30
30
fc
00
00
00
00
00
00
00
ENDCHAR
STARTCHAR U+02D5
ENCODING 725
SWIDTH 500 0
DWIDTH 8 0
BBX 8 16 0 -2
BITMAP 
00
00
00
00
00
00
00
00
fc
30
30
00
00
00
00
00
ENDCHAR
STARTCHAR U+02D6
ENCODING 726
SWIDTH 500 0
DWIDTH 8 0
BBX 8 16 0 -2
BITMAP 
00
00
00
00
00
00
00
30
30
fc
30
30
00
00
00
00
ENDCHAR
STARTCHAR U+02D7
ENCODING 727
SWIDTH 500 0
DWIDTH 8 0
BBX 8 16 0 -2
BITMAP 
00
00
00
00
00
00
00
cc
fc
cc
00
00
00
00
00
00
ENDCHAR
STARTCHAR U+02D8
ENCODING 728
SWIDTH 500 0
DWIDTH 8 0
BBX 8 16 0 -2
BITMAP 
c6
c6
7c
00
00
00
00
00
00
00
00
00
00
00
00
00
ENDCHAR
STARTCHAR U+02D9
ENCODING 729
SWIDTH 500 0
DWIDTH 8 0
BBX 8 16 0 -2
BITMAP 
30
30
00
00
00
00
00
00
00
00
00
00
00
00
00
00
ENDCHAR
STARTCHAR U+02DA
ENCODING 730
SWIDTH 500 0
DWIDTH 8 0
BBX 8 16 0 -2
BITMAP 
38
6c
38
00
00
00
00
00
00
00
00
00
00
00
00
00
ENDCHAR
STARTCHAR U+02DB
ENCODING 731
SWIDTH 500 0
DWIDTH 8 0
BBX 8 16 0 -2
BITMAP 
00
00
00
00
00
00
00
00
00
00
00
00
00
00
18
0e
ENDCHAR
STARTCHAR U+02DC
ENCODING 732
SWIDTH 500 0
DWIDTH 8 0
BBX 8 16 0 -2
BITMAP 
76
dc
00
00
00
00
00
00
00
00
00
00
00
00
00
00
ENDCHAR
STARTCHAR U+02DD
ENCODING 733
SWIDTH 500 0
DWIDTH 8 0
BBX 8 16 0 -2
BITMAP 
77
cc
00
00
00
00
00
00
00
00
00
00
00
00
00
00
ENDCHAR
STARTCHAR U+02DE
ENCODING 734
SWIDTH 500 0
DWIDTH 8 0
BBX 8 16 0 -2
BITMAP 
00
00
00
00
00
00
00
e0
b6
1c
00
00
00
00
00
00
ENDCHAR
STARTCHAR U+02DF
ENCODING 735
SWIDTH 500 0
DWIDTH 8 0
BBX 8 16 0 -2
BITMAP 
00
00
00
00
00
00
00
66
34
18
34
66
00
00
00
00
ENDCHAR
STARTCHAR U+02E0
ENCODING 736
SWIDTH 500 0
DWIDTH 8 0
BBX 8 16 0 -2
BITMAP 
00
00
00
00
cc
68
30
68
30
00
00
00
00
00
00
00
ENDCHAR
STARTCHAR U+02E1
ENCODING 737
SWIDTH 500 0
DWIDTH 8 0
BBX 8 16 0 -2
BITMAP 
00
00
00
70
30
30
30
78
00
00
00
00
00
00
00
00
ENDCHAR
STARTCHAR U+02E2
ENCODING 738
SWIDTH 500 0
DWIDTH 8 0
BBX 8 16 0 -2
BITMAP 
00
00
00
00
38
60
30
18
70
00
00
00
00
00
00
00
ENDCHAR
STARTCHAR U+02E3
ENCODING 739
SWIDTH 500 0
DWIDTH 8 0
BBX 8 16 0 -2
BITMAP 
00
00
00
00
6c
38
38
6c
00
00
00
00
00
00
00
00
ENDCHAR
STARTCHAR U+02E4
ENCODING 740
SWIDTH 500 0
DWIDTH 8 0
BBX 8 16 0 -2
BITMAP 
00
00
00
00
78
cc
c0
c0
70
30
30
00
00
00
00
00
ENDCHAR
STARTCHAR U+02E5
ENCODING 741
SWIDTH 500 0
DWIDTH 8 0
BBX 8 16 0 -2
BITMAP 
00
00
00
00
f8
18
18
18
18
18
18
18
18
18
18
00
ENDCHAR
STARTCHAR U+02E6
ENCODING 742
SWIDTH 500 0
DWIDTH 8 0
BBX 8 16 0 -2
BITMAP 
00
00
00
00
18
18
f8
18
18
18
18
18
18
18
18
00
ENDCHAR
STARTCHAR U+02E7
ENCODING 743
SWIDTH 500 0
DWIDTH 8 0
BBX 8 16 0 -2
BITMAP 
00
00
00
00
18
18
18
18
18
f8
18
18
18
18
18
00
ENDCHAR
STARTCHAR U+02E8
ENCODING 744
SWIDTH 500 0
DWIDTH 8 0
BBX 8 16 0 -2
BITMAP 
00
00
00
00
18
18
18
18
18
18
18
18
f8
18
18
00
ENDCHAR
STARTCHAR U+02E9
ENCODING 745
SWIDTH 500 0
DWIDTH 8 0
BBX 8 16 0 -2
BITMAP 
00
00
00
00
18
18
18
18
18
18
18
18
18
18
f8
00
ENDCHAR
STARTCHAR U+02EA
ENCODING 746
SWIDTH 500 0
DWIDTH 8 0
BBX 8 16 0 -2
BITMAP 
00
00
00
00
00
00
00
c0
c0
c0
c0
c0
c0
f8
00
00
ENDCHAR
STARTCHAR U+02EB
ENCODING 747
SWIDTH 500 0
DWIDTH 8 0
BBX 8 16 0 -2
BITMAP 
00
00
00
00
00
00
00
c0
c0
c0
f8
c0
c0
c0
00
00
ENDCHAR
STARTCHAR U+02EC
ENCODING 748
SWIDTH 500 0
DWIDTH 8 0
BBX 8 16 0 -2
BITMAP 
00
00
00
00
00
00
00
00
00
00
00
00
66
34
18
00
ENDCHAR
STARTCHAR U+02ED
ENCODING 749
SWIDTH 500 0
DWIDTH 8 0
BBX 8 16 0 -2
BITMAP 
00
00
fe
00
00
fe
00
00
00
00
00
00
00
00
00
00
ENDCHAR
STARTCHAR U+02EE
ENCODING 750
SWIDTH 500 0
DWIDTH 8 0
BBX 8 16 0 -2
BITMAP 
00
00
00
00
76
36
36
6c
00
00
00
00
00
00
00
00
ENDCHAR
STARTCHAR U+0300
ENCODING 768
SWIDTH 500 0
DWIDTH 8 0
BBX 8 16 0 -2
BITMAP 
70
1c
00
00
00
00
00
00
00
00
00
00
00
00
00
00
ENDCHAR
STARTCHAR U+0301
ENCODING 769
SWIDTH 500 0
DWIDTH 8 0
BBX 8 16 0 -2
BITMAP 
1c
70
00
00
00
00
00
00
00
00
00
00
00
00
00
00
ENDCHAR
STARTCHAR U+0302
ENCODING 770
SWIDTH 500 0
DWIDTH 8 0
BBX 8 16 0 -2
BITMAP 
38
6c
c6
00
00
00
00
00
00
00
00
00
00
00
00
00
ENDCHAR
STARTCHAR U+0303
ENCODING 771
SWIDTH 500 0
DWIDTH 8 0
BBX 8 16 0 -2
BITMAP 
76
dc
00
00
00
00
00
00
00
00
00
00
00
00
00
00
ENDCHAR
STARTCHAR U+0304
ENCODING 772
SWIDTH 500 0
DWIDTH 8 0
BBX 8 16 0 -2
BITMAP 
00
7c
00
00
00
00
00
00
00
00
00
00
00
00
00
00
ENDCHAR
STARTCHAR U+0305
ENCODING 773
SWIDTH 500 0
DWIDTH 8 0
BBX 8 16 0 -2
BITMAP 
00
ff
00
00
00
00
00
00
00
00
00
00
00
00
00
00
ENDCHAR
STARTCHAR U+0306
ENCODING 774
SWIDTH 500 0
DWIDTH 8 0
BBX 8 16 0 -2
BITMAP 
c6
c6
7c
00
00
00
00
00
00
00
00
00
00
00
00
00
ENDCHAR
STARTCHAR U+0307
ENCODING 775
SWIDTH 500 0
DWIDTH 8 0
BBX 8 16 0 -2
BITMAP 
30
30
00
00
00
00
00
00
00
00
00
00
00
00
00
00
ENDCHAR
STARTCHAR U+0308
ENCODING 776
SWIDTH 500 0
DWIDTH 8 0
BBX 8 16 0 -2
BITMAP 
6c
6c
00
00
00
00
00
00
00
00
00
00
00
00
00
00
ENDCHAR
STARTCHAR U+0309
ENCODING 777
SWIDTH 500 0
DWIDTH 8 0
BBX 8 16 0 -2
BITMAP 
38
18
00
00
00
00
00
00
00
00
00
00
00
00
00
00
ENDCHAR
STARTCHAR U+030A
ENCODING 778
SWIDTH 500 0
DWIDTH 8 0
BBX 8 16 0 -2
BITMAP 
38
6c
38
00
00
00
00
00
00
00
00
00
00
00
00
00
ENDCHAR
STARTCHAR U+030B
ENCODING 779
SWIDTH 500 0
DWIDTH 8 0
BBX 8 16 0 -2
BITMAP 
77
cc
00
00
00
00
00
00
00
00
00
00
00
00
00
00
ENDCHAR
STARTCHAR U+030C
ENCODING 780
SWIDTH 500 0
DWIDTH 8 0
BBX 8 16 0 -2
BITMAP 
66
34
18
00
00
00
00
00
00
00
00
00
00
00
00
00
ENDCHAR
STARTCHAR U+030D
ENCODING 781
SWIDTH 500 0
DWIDTH 8 0
BBX 8 16 0 -2
BITMAP 
18
18
18
18
00
00
00
00
00
00
00
00
00
00
00
00
ENDCHAR
STARTCHAR U+030E
ENCODING 782
SWIDTH 500 0
DWIDTH 8 0
BBX 8 16 0 -2
BITMAP 
34
34
34
34
00
00
00
00
00
00
00
00
00
00
00
00
ENDCHAR
STARTCHAR U+030F
ENCODING 783
SWIDTH 500 0
DWIDTH 8 0
BBX 8 16 0 -2
BITMAP 
dc
66
00
00
00
00
00
00
00
00
00
00
00
00
00
00
ENDCHAR
STARTCHAR U+0310
ENCODING 784
SWIDTH 500 0
DWIDTH 8 0
BBX 8 16 0 -2
BITMAP 
38
da
c6
7c
00
00
00
00
00
00
00
00
00
00
00
00
ENDCHAR
STARTCHAR U+0311
ENCODING 785
SWIDTH 500 0
DWIDTH 8 0
BBX 8 16 0 -2
BITMAP 
7c
c6
c6
00
00
00
00
00
00
00
00
00
00
00
00
00
ENDCHAR
STARTCHAR U+0312
ENCODING 786
SWIDTH 500 0
DWIDTH 8 0
BBX 8 16 0 -2
BITMAP 
00
00
30
60
70
00
00
00
00
00
00
00
00
00
00
00
ENDCHAR
STARTCHAR U+0313
ENCODING 787
SWIDTH 500 0
DWIDTH 8 0
BBX 8 16 0 -2
BITMAP 
00
00
70
30
60
00
00
00
00
00
00
00
00
00
00
00
ENDCHAR
STARTCHAR U+0314
ENCODING 788
SWIDTH 500 0
DWIDTH 8 0
BBX 8 16 0 -2
BITMAP 
00
00
70
60
30
00
00
00
00
00
00
00
00
00
00
00
ENDCHAR
STARTCHAR U+0315
ENCODING 789
SWIDTH 500 0
DWIDTH 8 0
BBX 8 16 0 -2
BITMAP 
00
00
0e
06
0c
00
00
00
00
00
00
00
00
00
00
00
ENDCHAR
STARTCHAR U+0316
ENCODING 790
SWIDTH 500 0
DWIDTH 8 0
BBX 8 16 0 -2
BITMAP 
00
00
00
00
00
00
00
00
00
00
00
00
00
00
70
1c
ENDCHAR
STARTCHAR U+0317
ENCODING 791
SWIDTH 500 0
DWIDTH 8 0
BBX 8 16 0 -2
BITMAP 
00
00
00
00
00
00
00
00
00
00
00
00
00
00
1c
70
ENDCHAR
STARTCHAR U+0318
ENCODING 792
SWIDTH 500 0
DWIDTH 8 0
BBX 8 16 0 -2
BITMAP 
00
00
00
00
00
00
00
00
00
00
00
0c
0c
7c
0c
0c
ENDCHAR
STARTCHAR U+0319
ENCODING 793
SWIDTH 500 0
DWIDTH 8 0
BBX 8 16 0 -2
BITMAP 
00
00
00
00
00
00
00
00
00
00
00
60
60
7c
60
60
ENDCHAR
STARTCHAR U+031A
ENCODING 794
SWIDTH 500 0
DWIDTH 8 0
BBX 8 16 0 -2
BITMAP 
00
7c
0c
0c
00
00
00
00
00
00
00
00
00
00
00
00
ENDCHAR
STARTCHAR U+031B
ENCODING 795
SWIDTH 500 0
DWIDTH 8 0
BBX 8 16 0 -2
BITMAP 
00
00
03
03
0e
00
00
00
00
00
00
00
00
00
00
00
ENDCHAR
STARTCHAR U+031C
ENCODING 796
SWIDTH 500 0
DWIDTH 8 0
BBX 8 16 0 -2
BITMAP 
00
00
00
00
00
00
00
00
00
00
00
00
00
38
60
38
ENDCHAR
STARTCHAR U+031D
ENCODING 797
SWIDTH 500 0
DWIDTH 8 0
BBX 8 16 0 -2
BITMAP 
00
00
00
00
00
00
00
00
00
00
00
00
18
18
3c
00
ENDCHAR
STARTCHAR U+031E
ENCODING 798
SWIDTH 500 0
DWIDTH 8 0
BBX 8 16 0 -2
BITMAP 
00
00
00
00
00
00
00
00
00
00
00
00
00
3c
18
18
ENDCHAR
STARTCHAR U+031F
ENCODING 799
SWIDTH 500 0
DWIDTH 8 0
BBX 8 16 0 -2
BITMAP 
00
00
00
00
00
00
00
00
00
00
00
18
18
7e
18
18
ENDCHAR
STARTCHAR U+0320
ENCODING 800
SWIDTH 500 0
DWIDTH 8 0
BBX 8 16 0 -2
BITMAP 
00
00
00
00
00
00
00
00
00
00
00
00
00
00
7c
00
ENDCHAR
STARTCHAR U+0321
ENCODING 801
SWIDTH 500 0
DWIDTH 8 0
BBX 8 16 0 -2
BITMAP 
00
00
00
00
00
00
00
00
00
00
00
00
06
06
1a
0c
ENDCHAR
STARTCHAR U+0322
ENCODING 802
SWIDTH 500 0
DWIDTH 8 0
BBX 8 16 0 -2
BITMAP 
00
00
00
00
00
00
00
00
00
00
00
00
0c
0c
0d
06
ENDCHAR
STARTCHAR U+0323
ENCODING 803
SWIDTH 500 0
DWIDTH 8 0
BBX 8 16 0 -2
BITMAP 
00
00
00
00
00
00
00
00
00
00
00
00
00
00
38
38
ENDCHAR
STARTCHAR U+0324
ENCODING 804
SWIDTH 500 0
DWIDTH 8 0
BBX 8 16 0 -2
BITMAP 
00
00
00
00
00
00
00
00
00
00
00
00
00
00
6c
6c
ENDCHAR
STARTCHAR U+0325
ENCODING 805
SWIDTH 500 0
DWIDTH 8 0
BBX 8 16 0 -2
BITMAP 
00
00
00
00
00
00
00
00
00
00
00
00
00
38
6c
38
ENDCHAR
STARTCHAR U+0326
ENCODING 806
SWIDTH 500 0
DWIDTH 8 0
BBX 8 16 0 -2
BITMAP 
00
00
00
00
00
00
00
00
00
00
00
00
38
18
30
00
ENDCHAR
STARTCHAR U+0327
ENCODING 807
SWIDTH 500 0
DWIDTH 8 0
BBX 8 16 0 -2
BITMAP 
00
00
00
00
00
00
00
00
00
00
00
00
30
30
d8
70
ENDCHAR
STARTCHAR U+0328
ENCODING 808
SWIDTH 500 0
DWIDTH 8 0
BBX 8 16 0 -2
BITMAP 
00
00
00
00
00
00
00
00
00
00
00
00
00
0c
1b
0e
ENDCHAR
STARTCHAR U+0329
ENCODING 809
SWIDTH 500 0
DWIDTH 8 0
BBX 8 16 0 -2
BITMAP 
00
00
00
00
00
00
00
00
00
00
00
00
00
30
30
30
ENDCHAR
STARTCHAR U+032A
ENCODING 810
SWIDTH 500 0
DWIDTH 8 0
BBX 8 16 0 -2
BITMAP 
00
00
00
00
00
00
00
00
00
00
00
00
00
fe
c6
c6
ENDCHAR
STARTCHAR U+032B
ENCODING 811
SWIDTH 500 0
DWIDTH 8 0
BBX 8 16 0 -2
BITMAP 
00
00
00
00
00
00
00
00
00
00
00
00
00
d4
d4
68
ENDCHAR
STARTCHAR U+032C
ENCODING 812
SWIDTH 500 0
DWIDTH 8 0
BBX 8 16 0 -2
BITMAP 
00
00
00
00
00
00
00
00
00
00
00
00
00
66
34
18
ENDCHAR
STARTCHAR U+032D
ENCODING 813
SWIDTH 500 0
DWIDTH 8 0
BBX 8 16 0 -2
BITMAP 
00
00
00
00
00
00
00
00
00
00
00
00
00
38
6c
c6
ENDCHAR
STARTCHAR U+032E
ENCODING 814
SWIDTH 500 0
DWIDTH 8 0
BBX 8 16 0 -2
BITMAP 
00
00
00
00
00
00
00
00
00
00
00
00
00
c6
c6
7c
ENDCHAR
STARTCHAR U+032F
ENCODING 815
SWIDTH 500 0
DWIDTH 8 0
BBX 8 16 0 -2
BITMAP 
00
00
00
00
00
00
00
00
00
00
00
00
00
7c
c6
c6
ENDCHAR
STARTCHAR U+0330
ENCODING 816
SWIDTH 500 0
DWIDTH 8 0
BBX 8 16 0 -2
BITMAP 
00
00
00
00
00
00
00
00
00
00
00
00
00
00
76
dc
ENDCHAR
STARTCHAR U+0331
ENCODING 817
SWIDTH 500 0
DWIDTH 8 0
BBX 8 16 0 -2
BITMAP 
00
00
00
00
00
00
00
00
00
00
00
00
00
00
fe
00
ENDCHAR
STARTCHAR U+0332
ENCODING 818
SWIDTH 500 0
DWIDTH 8 0
BBX 8 16 0 -2
BITMAP 
00
00
00
00
00
00
00
00
00
00
00
00
00
00
ff
00
ENDCHAR
STARTCHAR U+0333
ENCODING 819
SWIDTH 500 0
DWIDTH 8 0
BBX 8 16 0 -2
BITMAP 
00
00
00
00
00
00
00
00
00
00
00
00
00
ff
00
ff
ENDCHAR
STARTCHAR U+0334
ENCODING 820
SWIDTH 500 0
DWIDTH 8 0
BBX 8 16 0 -2
BITMAP 
00
00
00
00
00
00
76
da
dc
00
00
00
00
00
00
00
ENDCHAR
STARTCHAR U+0335
ENCODING 821
SWIDTH 500 0
DWIDTH 8 0
BBX 8 16 0 -2
BITMAP 
00
00
00
00
00
00
00
7c
00
00
00
00
00
00
00
00
ENDCHAR
STARTCHAR U+0336
ENCODING 822
SWIDTH 500 0
DWIDTH 8 0
BBX 8 16 0 -2
BITMAP 
00
00
00
00
00
00
00
ff
00
00
00
00
00
00
00
00
ENDCHAR
STARTCHAR U+0337
ENCODING 823
SWIDTH 500 0
DWIDTH 8 0
BBX 8 16 0 -2
BITMAP 
00
00
00
00
00
00
06
0c
18
30
60
c0
00
00
00
00
ENDCHAR
STARTCHAR U+0338
ENCODING 824
SWIDTH 500 0
DWIDTH 8 0
BBX 8 16 0 -2
BITMAP 
00
00
00
06
0c
0c
18
18
30
30
60
60
c0
00
00
00
ENDCHAR
STARTCHAR U+0339
ENCODING 825
SWIDTH 500 0
DWIDTH 8 0
BBX 8 16 0 -2
BITMAP 
00
00
00
00
00
00
00
00
00
00
00
00
00
38
0c
38
ENDCHAR
STARTCHAR U+033A
ENCODING 826
SWIDTH 500 0
DWIDTH 8 0
BBX 8 16 0 -2
BITMAP 
00
00
00
00
00
00
00
00
00
00
00
00
00
c6
c6
fe
ENDCHAR
STARTCHAR U+033B
ENCODING 827
SWIDTH 500 0
DWIDTH 8 0
BBX 8 16 0 -2
BITMAP 
00
00
00
00
00
00
00
00
00
00
00
00
00
78
68
78
ENDCHAR
STARTCHAR U+033C
ENCODING 828
SWIDTH 500 0
DWIDTH 8 0
BBX 8 16 0 -2
BITMAP 
00
00
00
00
00
00
00
00
00
00
00
00
00
ec
b6
00
ENDCHAR
STARTCHAR U+033D
ENCODING 829
SWIDTH 500 0
DWIDTH 8 0
BBX 8 16 0 -2
BITMAP 
00
ee
38
ee
00
00
00
00
00
00
00
00
00
00
00
00
ENDCHAR
STARTCHAR U+033E
ENCODING 830
SWIDTH 500 0
DWIDTH 8 0
BBX 8 16 0 -2
BITMAP 
1c
38
18
1c
38
00
00
00
00
00
00
00
00
00
00
00
ENDCHAR
STARTCHAR U+033F
ENCODING 831
SWIDTH 500 0
DWIDTH 8 0
BBX 8 16 0 -2
BITMAP 
fe
00
fe
00
00
00
00
00
00
00
00
00
00
00
00
00
ENDCHAR
STARTCHAR U+0340
ENCODING 832
SWIDTH 500 0
DWIDTH 8 0
BBX 8 16 0 -2
BITMAP 
70
1c
00
00
00
00
00
00
00
00
00
00
00
00
00
00
ENDCHAR
STARTCHAR U+0341
ENCODING 833
SWIDTH 500 0
DWIDTH 8 0
BBX 8 16 0 -2
BITMAP 
1c
70
00
00
00
00
00
00
00
00
00
00
00
00
00
00
ENDCHAR
STARTCHAR U+0342
ENCODING 834
SWIDTH 500 0
DWIDTH 8 0
BBX 8 16 0 -2
BITMAP 
ec
b8
00
00
00
00
00
00
00
00
00
00
00
00
00
00
ENDCHAR
STARTCHAR U+0343
ENCODING 835
SWIDTH 500 0
DWIDTH 8 0
BBX 8 16 0 -2
BITMAP 
00
00
70
30
60
00
00
00
00
00
00
00
00
00
00
00
ENDCHAR
STARTCHAR U+0344
ENCODING 836
SWIDTH 500 0
DWIDTH 8 0
BBX 8 16 0 -2
BITMAP 
30
d4
30
00
00
00
00
00
00
00
00
00
00
00
00
00
ENDCHAR
STARTCHAR U+0345
ENCODING 837
SWIDTH 500 0
DWIDTH 8 0
BBX 8 16 0 -2
BITMAP 
00
00
00
00
00
00
00
00
00
00
00
00
00
00
30
38
ENDCHAR
STARTCHAR U+0346
ENCODING 838
SWIDTH 500 0
DWIDTH 8 0
BBX 8 16 0 -2
BITMAP 
7c
6c
6c
00
00
00
00
00
00
00
00
00
00
00
00
00
ENDCHAR
STARTCHAR U+0347
ENCODING 839
SWIDTH 500 0
DWIDTH 8 0
BBX 8 16 0 -2
BITMAP 
00
00
00
00
00
00
00
00
00
00
00
00
00
7c
00
7c
ENDCHAR
STARTCHAR U+0348
ENCODING 840
SWIDTH 500 0
DWIDTH 8 0
BBX 8 16 0 -2
BITMAP 
00
00
00
00
00
00
00
00
00
00
00
00
00
34
34
34
ENDCHAR
STARTCHAR U+0349
ENCODING 841
SWIDTH 500 0
DWIDTH 8 0
BBX 8 16 0 -2
BITMAP 
00
00
00
00
00
00
00
00
00
00
00
00
00
7c
0c
0c
ENDCHAR
STARTCHAR U+034A
ENCODING 842
SWIDTH 500 0
DWIDTH 8 0
BBX 8 16 0 -2
BITMAP 
0c
fb
be
60
00
00
00
00
00
00
00
00
00
00
00
00
ENDCHAR
STARTCHAR U+034B
ENCODING 843
SWIDTH 500 0
DWIDTH 8 0
BBX 8 16 0 -2
BITMAP 
0c
f3
9e
70
00
00
00
00
00
00
00
00
00
00
00
00
ENDCHAR
STARTCHAR U+034C
ENCODING 844
SWIDTH 500 0
DWIDTH 8 0
BBX 8 16 0 -2
BITMAP 
76
dc
76
dc
00
00
00
00
00
00
00
00
00
00
00
00
ENDCHAR
STARTCHAR U+034D
ENCODING 845
SWIDTH 500 0
DWIDTH 8 0
BBX 8 16 0 -2
BITMAP 
00
00
00
00
00
00
00
00
00
00
00
6c
c6
ff
c6
6c
ENDCHAR
STARTCHAR U+034E
ENCODING 846
SWIDTH 500 0
DWIDTH 8 0
BBX 8 16 0 -2
BITMAP 
00
00
00
00
00
00
00
00
00
00
00
00
30
78
d4
30
ENDCHAR
STARTCHAR U+0360
ENCODING 864
SWIDTH 500 0
DWIDTH 8 0
BBX 8 16 0 -2
BITMAP 
00
00
73
de
00
00
00
00
00
00
00
00
00
00
00
00
ENDCHAR
STARTCHAR U+0361
ENCODING 865
SWIDTH 500 0
DWIDTH 8 0
BBX 8 16 0 -2
BITMAP 
00
00
7e
c3
00
00
00
00
00
00
00
00
00
00
00
00
ENDCHAR
STARTCHAR U+0362
ENCODING 866
SWIDTH 500 0
DWIDTH 8 0
BBX 8 16 0 -2
BITMAP 
00
00
00
00
00
00
00
00
00
00
00
06
ff
06
00
00
ENDCHAR
STARTCHAR U+0374
ENCODING 884
SWIDTH 500 0
DWIDTH 8 0
BBX 8 16 0 -2
BITMAP 
00
00
00
00
1c
38
30
60
00
00
00
00
00
00
00
00
ENDCHAR
STARTCHAR U+0375
ENCODING 885
SWIDTH 500 0
DWIDTH 8 0
BBX 8 16 0 -2
BITMAP 
00
00
00
00
00
00
00
00
00
00
00
00
1c
38
30
60
ENDCHAR
STARTCHAR U+037A
ENCODING 890
SWIDTH 500 0
DWIDTH 8 0
BBX 8 16 0 -2
BITMAP 
00
00
00
00
00
00
00
00
00
00
00
00
00
00
30
38
ENDCHAR
STARTCHAR U+037E
ENCODING 894
SWIDTH 500 0
DWIDTH 8 0
BBX 8 16 0 -2
BITMAP 
00
00
00
00
00
00
00
00
38
38
00
00
38
18
18
30
ENDCHAR
STARTCHAR U+0384
ENCODING 900
SWIDTH 500 0
DWIDTH 8 0
BBX 8 16 0 -2
BITMAP 
30
30
30
00
00
00
00
00
00
00
00
00
00
00
00
00
ENDCHAR
STARTCHAR U+0385
ENCODING 901
SWIDTH 500 0
DWIDTH 8 0
BBX 8 16 0 -2
BITMAP 
30
30
30
cc
cc
00
00
00
00
00
00
00
00
00
00
00
ENDCHAR
STARTCHAR U+0386
ENCODING 902
SWIDTH 500 0
DWIDTH 8 0
BBX 8 16 0 -2
BITMAP 
c0
c0
c0
00
38
6c
6c
c6
c6
fe
c6
c6
c6
c6
00
00
ENDCHAR
STARTCHAR U+0387
ENCODING 903
SWIDTH 500 0
DWIDTH 8 0
BBX 8 16 0 -2
BITMAP 
00
00
00
00
00
00
00
00
18
3c
18
00
00
00
00
00
ENDCHAR
STARTCHAR U+0388
ENCODING 904
SWIDTH 500 0
DWIDTH 8 0
BBX 8 16 0 -2
BITMAP 
c0
c0
c0
00
fe
c0
c0
c0
fc
c0
c0
c0
c0
fe
00
00
ENDCHAR
STARTCHAR U+0389
ENCODING 905
SWIDTH 500 0
DWIDTH 8 0
BBX 8 16 0 -2
BITMAP 
c0
c0
c0
00
c6
c6
c6
c6
fe
c6
c6
c6
c6
c6
00
00
ENDCHAR
STARTCHAR U+038A
ENCODING 906
SWIDTH 500 0
DWIDTH 8 0
BBX 8 16 0 -2
BITMAP 
c0
c0
c0
00
7e
18
18
18
18
18
18
18
18
7e
00
00
ENDCHAR
STARTCHAR U+038C
ENCODING 908
SWIDTH 500 0
DWIDTH 8 0
BBX 8 16 0 -2
BITMAP 
c0
c0
c0
00
7c
c6
c6
c6
c6
c6
c6
c6
c6
7c
00
00
ENDCHAR
STARTCHAR U+038E
ENCODING 910
SWIDTH 500 0
DWIDTH 8 0
BBX 8 16 0 -2
BITMAP 
c0
c0
c0
00
c3
c3
66
66
34
18
18
18
18
18
00
00
ENDCHAR
STARTCHAR U+038F
ENCODING 911
SWIDTH 500 0
DWIDTH 8 0
BBX 8 16 0 -2
BITMAP 
c0
c0
c0
00
7e
c3
c3
c3
c3
c3
c3
66
34
34
f7
00
ENDCHAR
STARTCHAR U+0390
ENCODING 912
SWIDTH 500 0
DWIDTH 8 0
BBX 8 16 0 -2
BITMAP 
30
30
30
cc
cc
00
30
30
30
30
30
30
30
1c
00
00
ENDCHAR
STARTCHAR U+0391
ENCODING 913
SWIDTH 500 0
DWIDTH 8 0
BBX 8 16 0 -2
BITMAP 
00
00
00
00
38
6c
6c
c6
c6
fe
c6
c6
c6
c6
00
00
ENDCHAR
STARTCHAR U+0392
ENCODING 914
SWIDTH 500 0
DWIDTH 8 0
BBX 8 16 0 -2
BITMAP 
00
00
00
00
fc
c6
c6
c6
fc
c6
c6
c6
c6
fc
00
00
ENDCHAR
STARTCHAR U+0393
ENCODING 915
SWIDTH 500 0
DWIDTH 8 0
BBX 8 16 0 -2
BITMAP 
00
00
00
00
fe
c0
c0
c0
c0
c0
c0
c0
c0
c0
00
00
ENDCHAR
STARTCHAR U+0394
ENCODING 916
SWIDTH 500 0
DWIDTH 8 0
BBX 8 16 0 -2
BITMAP 
00
00
00
00
18
18
34
34
66
66
66
c3
c3
ff
00
00
ENDCHAR
STARTCHAR U+0395
ENCODING 917
SWIDTH 500 0
DWIDTH 8 0
BBX 8 16 0 -2
BITMAP 
00
00
00
00
fe
c0
c0
c0
fc
c0
c0
c0
c0
fe
00
00
ENDCHAR
STARTCHAR U+0396
ENCODING 918
SWIDTH 500 0
DWIDTH 8 0
BBX 8 16 0 -2
BITMAP 
00
00
00
00
fe
06
06
0c
18
30
60
c0
c0
fe
00
00
ENDCHAR
STARTCHAR U+0397
ENCODING 919
SWIDTH 500 0
DWIDTH 8 0
BBX 8 16 0 -2
BITMAP 
00
00
00
00
c6
c6
c6
c6
fe
c6
c6
c6
c6
c6
00
00
ENDCHAR
STARTCHAR U+0398
ENCODING 920
SWIDTH 500 0
DWIDTH 8 0
BBX 8 16 0 -2
BITMAP 
00
00
00
00
7c
c6
c6
c6
fe
c6
c6
c6
c6
7c
00
00
ENDCHAR
STARTCHAR U+0399
ENCODING 921
SWIDTH 500 0
DWIDTH 8 0
BBX 8 16 0 -2
BITMAP 
00
00
00
00
7e
18
18
18
18
18
18
18
18
7e
00
00
ENDCHAR
STARTCHAR U+039A
ENCODING 922
SWIDTH 500 0
DWIDTH 8 0
BBX 8 16 0 -2
BITMAP 
00
00
00
00
c6
cc
d8
d0
e0
e0
d0
d8
cc
c6
00
00
ENDCHAR
STARTCHAR U+039B
ENCODING 923
SWIDTH 500 0
DWIDTH 8 0
BBX 8 16 0 -2
BITMAP 
00
00
00
00
18
18
34
34
66
66
66
c3
c3
c3
00
00
ENDCHAR
STARTCHAR U+039C
ENCODING 924
SWIDTH 500 0
DWIDTH 8 0
BBX 8 16 0 -2
BITMAP 
00
00
00
00
c6
c6
ee
ee
da
da
c6
c6
c6
c6
00
00
ENDCHAR
STARTCHAR U+039D
ENCODING 925
SWIDTH 500 0
DWIDTH 8 0
BBX 8 16 0 -2
BITMAP 
00
00
00
00
c6
e6
e6
d6
d6
da
da
ce
ce
c6
00
00
ENDCHAR
STARTCHAR U+039E
ENCODING 926
SWIDTH 500 0
DWIDTH 8 0
BBX 8 16 0 -2
BITMAP 
00
00
00
00
fe
00
00
00
7c
00
00
00
00
fe
00
00
ENDCHAR
STARTCHAR U+039F
ENCODING 927
SWIDTH 500 0
DWIDTH 8 0
BBX 8 16 0 -2
BITMAP 
00
00
00
00
7c
c6
c6
c6
c6
c6
c6
c6
c6
7c
00
00
ENDCHAR
STARTCHAR U+03A0
ENCODING 928
SWIDTH 500 0
DWIDTH 8 0
BBX 8 16 0 -2
BITMAP 
00
00
00
00
ff
66
66
66
66
66
66
66
66
66
00
00
ENDCHAR
STARTCHAR U+03A1
ENCODING 929
SWIDTH 500 0
DWIDTH 8 0
BBX 8 16 0 -2
BITMAP 
00
00
00
00
fc
c6
c6
c6
fc
c0
c0
c0
c0
c0
00
00
ENDCHAR
STARTCHAR U+03A3
ENCODING 931
SWIDTH 500 0
DWIDTH 8 0
BBX 8 16 0 -2
BITMAP 
00
00
00
00
fe
c0
60
30
18
18
30
60
c0
fe
00
00
ENDCHAR
STARTCHAR U+03A4
ENCODING 932
SWIDTH 500 0
DWIDTH 8 0
BBX 8 16 0 -2
BITMAP 
00
00
00
00
ff
18
18
18
18
18
18
18
18
18
00
00
ENDCHAR
STARTCHAR U+03A5
ENCODING 933
SWIDTH 500 0
DWIDTH 8 0
BBX 8 16 0 -2
BITMAP 
00
00
00
00
c3
c3
66
66
34
18
18
18
18
18
00
00
ENDCHAR
STARTCHAR U+03A6
ENCODING 934
SWIDTH 500 0
DWIDTH 8 0
BBX 8 16 0 -2
BITMAP 
00
00
00
00
ff
18
7e
db
db
db
db
7e
18
ff
00
00
ENDCHAR
STARTCHAR U+03A7
ENCODING 935
SWIDTH 500 0
DWIDTH 8 0
BBX 8 16 0 -2
BITMAP 
00
00
00
00
c6
c6
6c
6c
38
38
6c
6c
c6
c6
00
00
ENDCHAR
STARTCHAR U+03A8
ENCODING 936
SWIDTH 500 0
DWIDTH 8 0
BBX 8 16 0 -2
BITMAP 
00
00
00
00
db
db
db
db
db
7e
18
18
18
18
00
00
ENDCHAR
STARTCHAR U+03A9
ENCODING 937
SWIDTH 500 0
DWIDTH 8 0
BBX 8 16 0 -2
BITMAP 
00
00
00
00
7e
c3
c3
c3
c3
c3
66
34
34
f7
00
00
ENDCHAR
STARTCHAR U+03AA
ENCODING 938
SWIDTH 500 0
DWIDTH 8 0
BBX 8 16 0 -2
BITMAP 
6c
6c
00
00
7e
18
18
18
18
18
18
18
18
7e
00
00
ENDCHAR
STARTCHAR U+03AB
ENCODING 939
SWIDTH 500 0
DWIDTH 8 0
BBX 8 16 0 -2
BITMAP 
6c
6c
00
00
c3
c3
66
66
34
18
18
18
18
18
00
00
ENDCHAR
STARTCHAR U+03AC
ENCODING 940
SWIDTH 500 0
DWIDTH 8 0
BBX 8 16 0 -2
BITMAP 
00
30
30
30
00
00
76
da
cc
cc
cc
cc
da
76
00
00
ENDCHAR
STARTCHAR U+03AD
ENCODING 941
SWIDTH 500 0
DWIDTH 8 0
BBX 8 16 0 -2
BITMAP 
00
30
30
30
00
00
7e
c0
c0
7c
c0
c0
c0
7e
00
00
ENDCHAR
STARTCHAR U+03AE
ENCODING 942
SWIDTH 500 0
DWIDTH 8 0
BBX 8 16 0 -2
BITMAP 
00
30
30
30
00
00
dc
e6
c6
c6
c6
c6
c6
c6
06
06
ENDCHAR
STARTCHAR U+03AF
ENCODING 943
SWIDTH 500 0
DWIDTH 8 0
BBX 8 16 0 -2
BITMAP 
00
30
30
30
00
00
30
30
30
30
30
30
30
1c
00
00
ENDCHAR
STARTCHAR U+03B0
ENCODING 944
SWIDTH 500 0
DWIDTH 8 0
BBX 8 16 0 -2
BITMAP 
30
30
30
cc
cc
00
c6
c6
c6
c6
c6
c6
c6
7c
00
00
ENDCHAR
STARTCHAR U+03B1
ENCODING 945
SWIDTH 500 0
DWIDTH 8 0
BBX 8 16 0 -2
BITMAP 
00
00
00
00
00
00
76
da
cc
cc
cc
cc
da
76
00
00
ENDCHAR
STARTCHAR U+03B2
ENCODING 946
SWIDTH 500 0
DWIDTH 8 0
BBX 8 16 0 -2
BITMAP 
00
00
00
00
78
cc
cc
cc
fc
c6
c6
c6
e6
dc
c0
c0
ENDCHAR
STARTCHAR U+03B3
ENCODING 947
SWIDTH 500 0
DWIDTH 8 0
BBX 8 16 0 -2
BITMAP 
00
00
00
00
00
00
73
db
1a
0c
18
18
30
30
00
00
ENDCHAR
STARTCHAR U+03B4
ENCODING 948
SWIDTH 500 0
DWIDTH 8 0
BBX 8 16 0 -2
BITMAP 
00
00
00
00
3c
60
60
60
38
6c
c6
c6
c6
7c
00
00
ENDCHAR
STARTCHAR U+03B5
ENCODING 949
SWIDTH 500 0
DWIDTH 8 0
BBX 8 16 0 -2
BITMAP 
00
00
00
00
00
00
7c
c6
c0
7c
c0
c0
c6
7c
00
00
ENDCHAR
STARTCHAR U+03B6
ENCODING 950
SWIDTH 500 0
DWIDTH 8 0
BBX 8 16 0 -2
BITMAP 
00
00
00
00
60
60
3c
18
30
60
60
60
60
3c
06
3c
ENDCHAR
STARTCHAR U+03B7
ENCODING 951
SWIDTH 500 0
DWIDTH 8 0
BBX 8 16 0 -2
BITMAP 
00
00
00
00
00
00
dc
e6
c6
c6
c6
c6
c6
c6
06
06
ENDCHAR
STARTCHAR U+03B8
ENCODING 952
SWIDTH 500 0
DWIDTH 8 0
BBX 8 16 0 -2
BITMAP 
00
00
00
00
38
6c
6c
c6
fe
c6
c6
6c
6c
38
00
00
ENDCHAR
STARTCHAR U+03B9
ENCODING 953
SWIDTH 500 0
DWIDTH 8 0
BBX 8 16 0 -2
BITMAP 
00
00
00
00
00
00
30
30
30
30
30
30
30
1c
00
00
ENDCHAR
STARTCHAR U+03BA
ENCODING 954
SWIDTH 500 0
DWIDTH 8 0
BBX 8 16 0 -2
BITMAP 
00
00
00
00
00
00
66
6c
68
70
70
68
6c
66
00
00
ENDCHAR
STARTCHAR U+03BB
ENCODING 955
SWIDTH 500 0
DWIDTH 8 0
BBX 8 16 0 -2
BITMAP 
00
00
00
00
60
60
30
30
18
38
6c
6c
c6
c6
00
00
ENDCHAR
STARTCHAR U+03BC
ENCODING 956
SWIDTH 500 0
DWIDTH 8 0
BBX 8 16 0 -2
BITMAP 
00
00
00
00
00
00
c6
c6
c6
c6
ee
ee
da
c6
c0
c0
ENDCHAR
STARTCHAR U+03BD
ENCODING 957
SWIDTH 500 0
DWIDTH 8 0
BBX 8 16 0 -2
BITMAP 
00
00
00
00
00
00
c6
c6
c6
cc
cc
d8
d0
e0
00
00
ENDCHAR
STARTCHAR U+03BE
ENCODING 958
SWIDTH 500 0
DWIDTH 8 0
BBX 8 16 0 -2
BITMAP 
00
00
00
00
c0
c0
7c
c0
c0
7c
c0
c0
7c
06
06
7c
ENDCHAR
STARTCHAR U+03BF
ENCODING 959
SWIDTH 500 0
DWIDTH 8 0
BBX 8 16 0 -2
BITMAP 
00
00
00
00
00
00
7c
c6
c6
c6
c6
c6
c6
7c
00
00
ENDCHAR
STARTCHAR U+03C0
ENCODING 960
SWIDTH 500 0
DWIDTH 8 0
BBX 8 16 0 -2
BITMAP 
00
00
00
00
00
00
fe
6c
6c
6c
6c
6c
6c
6c
00
00
ENDCHAR
STARTCHAR U+03C1
ENCODING 961
SWIDTH 500 0
DWIDTH 8 0
BBX 8 16 0 -2
BITMAP 
00
00
00
00
00
00
7c
c6
c6
c6
c6
c6
e6
dc
c0
c0
ENDCHAR
STARTCHAR U+03C2
ENCODING 962
SWIDTH 500 0
DWIDTH 8 0
BBX 8 16 0 -2
BITMAP 
00
00
00
00
00
00
3e
60
c0
c0
c0
60
3c
06
06
3c
ENDCHAR
STARTCHAR U+03C3
ENCODING 963
SWIDTH 500 0
DWIDTH 8 0
BBX 8 16 0 -2
BITMAP 
00
00
00
00
00
00
7f
d8
cc
cc
cc
cc
cc
78
00
00
ENDCHAR
STARTCHAR U+03C4
ENCODING 964
SWIDTH 500 0
DWIDTH 8 0
BBX 8 16 0 -2
BITMAP 
00
00
00
00
00
00
fe
30
30
30
30
30
30
1c
00
00
ENDCHAR
STARTCHAR U+03C5
ENCODING 965
SWIDTH 500 0
DWIDTH 8 0
BBX 8 16 0 -2
BITMAP 
00
00
00
00
00
00
c6
c6
c6
c6
c6
c6
c6
7c
00
00
ENDCHAR
STARTCHAR U+03C6
ENCODING 966
SWIDTH 500 0
DWIDTH 8 0
BBX 8 16 0 -2
BITMAP 
00
00
00
00
00
00
7e
db
db
db
db
db
db
7e
18
18
ENDCHAR
STARTCHAR U+03C7
ENCODING 967
SWIDTH 500 0
DWIDTH 8 0
BBX 8 16 0 -2
BITMAP 
00
00
00
00
00
00
c6
c6
6c
6c
38
38
6c
6c
c6
c6
ENDCHAR
STARTCHAR U+03C8
ENCODING 968
SWIDTH 500 0
DWIDTH 8 0
BBX 8 16 0 -2
BITMAP 
00
00
00
00
00
00
00
00
db
db
db
db
db
7e
18
18
ENDCHAR
STARTCHAR U+03C9
ENCODING 969
SWIDTH 500 0
DWIDTH 8 0
BBX 8 16 0 -2
BITMAP 
00
00
00
00
00
00
66
c3
c3
db
db
db
db
76
00
00
ENDCHAR
STARTCHAR U+03CA
ENCODING 970
SWIDTH 500 0
DWIDTH 8 0
BBX 8 16 0 -2
BITMAP 
00
00
6c
6c
00
00
30
30
30
30
30
30
30
1c
00
00
ENDCHAR
STARTCHAR U+03CB
ENCODING 971
SWIDTH 500 0
DWIDTH 8 0
BBX 8 16 0 -2
BITMAP 
00
00
6c
6c
00
00
c6
c6
c6
c6
c6
c6
c6
7c
00
00
ENDCHAR
STARTCHAR U+03CC
ENCODING 972
SWIDTH 500 0
DWIDTH 8 0
BBX 8 16 0 -2
BITMAP 
00
30
30
30
00
00
7c
c6
c6
c6
c6
c6
c6
7c
00
00
ENDCHAR
STARTCHAR U+03CD
ENCODING 973
SWIDTH 500 0
DWIDTH 8 0
BBX 8 16 0 -2
BITMAP 
00
30
30
30
00
00
c6
c6
c6
c6
c6
c6
c6
7c
00
00
ENDCHAR
STARTCHAR U+03CE
ENCODING 974
SWIDTH 500 0
DWIDTH 8 0
BBX 8 16 0 -2
BITMAP 
00
18
18
18
00
00
66
c3
c3
db
db
db
db
76
00
00
ENDCHAR
STARTCHAR U+03D0
ENCODING 976
SWIDTH 500 0
DWIDTH 8 0
BBX 8 16 0 -2
BITMAP 
00
00
00
00
38
6c
cc
d8
dc
e6
c6
c6
7c
00
00
00
ENDCHAR
STARTCHAR U+03D1
ENCODING 977
SWIDTH 500 0
DWIDTH 8 0
BBX 8 16 0 -2
BITMAP 
00
00
00
00
78
cc
cc
7e
0c
cc
cc
cc
78
00
00
00
ENDCHAR
STARTCHAR U+03D2
ENCODING 978
SWIDTH 500 0
DWIDTH 8 0
BBX 8 16 0 -2
BITMAP 
00
00
00
00
cc
aa
68
68
30
30
30
30
30
00
00
00
ENDCHAR
STARTCHAR U+03D3
ENCODING 979
SWIDTH 500 0
DWIDTH 8 0
BBX 8 16 0 -2
BITMAP 
00
00
00
00
ac
aa
68
68
30
30
30
30
30
00
00
00
ENDCHAR
STARTCHAR U+03D4
ENCODING 980
SWIDTH 500 0
DWIDTH 8 0
BBX 8 16 0 -2
BITMAP 
00
00
00
cc
cc
00
cc
aa
68
30
30
30
30
00
00
00
ENDCHAR
STARTCHAR U+03D5
ENCODING 981
SWIDTH 500 0
DWIDTH 8 0
BBX 8 16 0 -2
BITMAP 
00
00
00
00
00
30
30
fc
b6
b6
b6
b6
fc
30
30
00
ENDCHAR
STARTCHAR U+03D6
ENCODING 982
SWIDTH 500 0
DWIDTH 8 0
BBX 8 16 0 -2
BITMAP 
00
00
00
00
00
00
00
fe
86
b6
b6
b6
ec
00
00
00
ENDCHAR
STARTCHAR U+03D7
ENCODING 983
SWIDTH 500 0
DWIDTH 8 0
BBX 8 16 0 -2
BITMAP 
00
00
00
00
00
00
00
66
d6
34
3c
34
6e
66
06
1c
ENDCHAR
STARTCHAR U+03DA
ENCODING 986
SWIDTH 500 0
DWIDTH 8 0
BBX 8 16 0 -2
BITMAP 
00
00
00
00
7c
c6
c0
c0
c0
70
1c
06
06
7c
00
00
ENDCHAR
STARTCHAR U+03DB
ENCODING 987
SWIDTH 500 0
DWIDTH 8 0
BBX 8 16 0 -2
BITMAP 
00
00
00
00
00
00
7e
c0
c0
c0
7c
06
06
1c
00
00
ENDCHAR
STARTCHAR U+03DC
ENCODING 988
SWIDTH 500 0
DWIDTH 8 0
BBX 8 16 0 -2
BITMAP 
00
00
00
00
fe
c0
c0
c0
f8
c0
c0
c0
c0
00
00
00
ENDCHAR
STARTCHAR U+03DD
ENCODING 989
SWIDTH 500 0
DWIDTH 8 0
BBX 8 16 0 -2
BITMAP 
00
00
00
00
00
00
7e
60
60
7c
60
60
60
60
60
60
ENDCHAR
STARTCHAR U+03DE
ENCODING 990
SWIDTH 500 0
DWIDTH 8 0
BBX 8 16 0 -2
BITMAP 
00
00
00
00
e0
60
60
60
6e
7c
ec
18
18
1e
00
00
ENDCHAR
STARTCHAR U+03DF
ENCODING 991
SWIDTH 500 0
DWIDTH 8 0
BBX 8 16 0 -2
BITMAP 
00
00
00
00
00
38
30
70
60
ff
06
0e
0c
1c
00
00
ENDCHAR
STARTCHAR U+03E0
ENCODING 992
SWIDTH 500 0
DWIDTH 8 0
BBX 8 16 0 -2
BITMAP 
00
00
00
00
f8
ac
66
6e
1a
36
36
36
06
0c
00
00
ENDCHAR
STARTCHAR U+03E1
ENCODING 993
SWIDTH 500 0
DWIDTH 8 0
BBX 8 16 0 -2
BITMAP 
00
00
00
00
70
18
0c
1c
36
0e
1a
06
06
06
00
00
ENDCHAR
STARTCHAR U+03E2
ENCODING 994
SWIDTH 500 0
DWIDTH 8 0
BBX 8 16 0 -2
BITMAP 
00
00
00
00
00
b6
b6
b6
b6
b6
ee
06
fc
00
00
00
ENDCHAR
STARTCHAR U+03E3
ENCODING 995
SWIDTH 500 0
DWIDTH 8 0
BBX 8 16 0 -2
BITMAP 
00
00
00
00
00
00
00
b6
b6
b6
b6
b6
ee
06
fc
00
ENDCHAR
STARTCHAR U+03E4
ENCODING 996
SWIDTH 500 0
DWIDTH 8 0
BBX 8 16 0 -2
BITMAP 
00
00
00
00
76
c6
c6
c6
7e
06
06
06
06
00
00
00
ENDCHAR
STARTCHAR U+03E5
ENCODING 997
SWIDTH 500 0
DWIDTH 8 0
BBX 8 16 0 -2
BITMAP 
00
00
00
00
68
d8
d8
d8
78
18
18
18
18
00
00
00
ENDCHAR
STARTCHAR U+03E6
ENCODING 998
SWIDTH 500 0
DWIDTH 8 0
BBX 8 16 0 -2
BITMAP 
00
00
00
00
f0
60
60
7c
66
66
66
66
f6
06
1c
00
ENDCHAR
STARTCHAR U+03E7
ENCODING 999
SWIDTH 500 0
DWIDTH 8 0
BBX 8 16 0 -2
BITMAP 
00
00
00
00
00
60
30
7c
d6
66
06
c6
7c
00
00
00
ENDCHAR
STARTCHAR U+03E8
ENCODING 1000
SWIDTH 500 0
DWIDTH 8 0
BBX 8 16 0 -2
BITMAP 
00
00
00
00
7c
c6
c6
0c
38
60
c6
c6
7c
00
00
00
ENDCHAR
STARTCHAR U+03E9
ENCODING 1001
SWIDTH 500 0
DWIDTH 8 0
BBX 8 16 0 -2
BITMAP 
00
00
00
00
00
7c
c6
c6
6c
38
60
c0
7e
00
00
00
ENDCHAR
STARTCHAR U+03EA
ENCODING 1002
SWIDTH 500 0
DWIDTH 8 0
BBX 8 16 0 -2
BITMAP 
00
00
00
00
ec
30
30
68
68
cc
cc
86
fe
00
00
00
ENDCHAR
STARTCHAR U+03EB
ENCODING 1003
SWIDTH 500 0
DWIDTH 8 0
BBX 8 16 0 -2
BITMAP 
00
00
00
00
00
00
00
ec
30
68
68
cc
fc
00
00
00
ENDCHAR
STARTCHAR U+03EC
ENCODING 1004
SWIDTH 500 0
DWIDTH 8 0
BBX 8 16 0 -2
BITMAP 
00
00
00
00
7c
c0
fc
c6
c6
c6
c6
c6
7c
00
00
00
ENDCHAR
STARTCHAR U+03ED
ENCODING 1005
SWIDTH 500 0
DWIDTH 8 0
BBX 8 16 0 -2
BITMAP 
00
00
00
00
00
00
7c
c0
dc
c6
c6
c6
7c
00
00
00
ENDCHAR
STARTCHAR U+03EE
ENCODING 1006
SWIDTH 500 0
DWIDTH 8 0
BBX 8 16 0 -2
BITMAP 
00
00
00
00
78
30
fc
d4
30
30
30
30
30
00
00
00
ENDCHAR
STARTCHAR U+03EF
ENCODING 1007
SWIDTH 500 0
DWIDTH 8 0
BBX 8 16 0 -2
BITMAP 
00
00
00
00
00
00
30
34
fc
d0
30
30
30
00
00
00
ENDCHAR
STARTCHAR U+03F0
ENCODING 1008
SWIDTH 500 0
DWIDTH 8 0
BBX 8 16 0 -2
BITMAP 
00
00
00
00
00
00
00
c6
6c
68
78
6c
c6
00
00
00
ENDCHAR
STARTCHAR U+03F1
ENCODING 1009
SWIDTH 500 0
DWIDTH 8 0
BBX 8 16 0 -2
BITMAP 
00
00
00
00
00
00
00
7c
c6
c6
c6
e6
dc
c0
7c
00
ENDCHAR
STARTCHAR U+03F2
ENCODING 1010
SWIDTH 500 0
DWIDTH 8 0
BBX 8 16 0 -2
BITMAP 
00
00
00
00
00
00
00
7c
c6
c0
c0
c6
7c
00
00
00
ENDCHAR
STARTCHAR U+03F3
ENCODING 1011
SWIDTH 500 0
DWIDTH 8 0
BBX 8 16 0 -2
BITMAP 
00
00
00
00
00
0c
00
1c
0c
0c
0c
0c
cc
cc
78
00
ENDCHAR
STARTCHAR U+03F4
ENCODING 1012
SWIDTH 500 0
DWIDTH 8 0
BBX 8 16 0 -2
BITMAP 
00
00
00
00
7c
c6
c6
c6
fe
c6
c6
c6
7c
00
00
00
ENDCHAR
STARTCHAR U+03F5
ENCODING 1013
SWIDTH 500 0
DWIDTH 8 0
BBX 8 16 0 -2
BITMAP 
00
00
00
00
00
00
00
7c
c0
f8
c0
c0
7c
00
00
00
ENDCHAR
STARTCHAR U+0400
ENCODING 1024
SWIDTH 500 0
DWIDTH 8 0
BBX 8 16 0 -2
BITMAP 
00
00
00
30
18
00
fe
c0
c0
fc
c0
c0
fe
00
00
00
ENDCHAR
STARTCHAR U+0401
ENCODING 1025
SWIDTH 500 0
DWIDTH 8 0
BBX 8 16 0 -2
BITMAP 
6c
6c
00
00
fe
c0
c0
c0
fc
c0
c0
c0
c0
fe
00
00
ENDCHAR
STARTCHAR U+0402
ENCODING 1026
SWIDTH 500 0
DWIDTH 8 0
BBX 8 16 0 -2
BITMAP 
00
00
00
00
fe
30
30
30
3e
33
33
33
33
3e
00
00
ENDCHAR
STARTCHAR U+0403
ENCODING 1027
SWIDTH 500 0
DWIDTH 8 0
BBX 8 16 0 -2
BITMAP 
1c
70
00
00
fe
c0
c0
c0
c0
c0
c0
c0
c0
c0
00
00
ENDCHAR
STARTCHAR U+0404
ENCODING 1028
SWIDTH 500 0
DWIDTH 8 0
BBX 8 16 0 -2
BITMAP 
00
00
00
00
3c
66
c0
c0
fc
c0
c0
c0
66
3c
00
00
ENDCHAR
STARTCHAR U+0405
ENCODING 1029
SWIDTH 500 0
DWIDTH 8 0
BBX 8 16 0 -2
BITMAP 
00
00
00
00
7c
c6
c6
c0
70
1c
06
c6
c6
7c
00
00
ENDCHAR
STARTCHAR U+0406
ENCODING 1030
SWIDTH 500 0
DWIDTH 8 0
BBX 8 16 0 -2
BITMAP 
00
00
00
00
7e
18
18
18
18
18
18
18
18
7e
00
00
ENDCHAR
STARTCHAR U+0407
ENCODING 1031
SWIDTH 500 0
DWIDTH 8 0
BBX 8 16 0 -2
BITMAP 
6c
6c
00
00
7e
18
18
18
18
18
18
18
18
7e
00
00
ENDCHAR
STARTCHAR U+0408
ENCODING 1032
SWIDTH 500 0
DWIDTH 8 0
BBX 8 16 0 -2
BITMAP 
00
00
00
00
1e
0c
0c
0c
0c
0c
0c
cc
cc
78
00
00
ENDCHAR
STARTCHAR U+0409
ENCODING 1033
SWIDTH 500 0
DWIDTH 8 0
BBX 8 16 0 -2
BITMAP 
00
00
00
00
f8
d8
d8
d8
de
db
db
db
db
9e
00
00
ENDCHAR
STARTCHAR U+040A
ENCODING 1034
SWIDTH 500 0
DWIDTH 8 0
BBX 8 16 0 -2
BITMAP 
00
00
00
00
d8
d8
d8
d8
fe
db
db
db
db
de
00
00
ENDCHAR
STARTCHAR U+040B
ENCODING 1035
SWIDTH 500 0
DWIDTH 8 0
BBX 8 16 0 -2
BITMAP 
00
00
00
00
fe
30
30
30
3e
33
33
33
33
33
00
00
ENDCHAR
STARTCHAR U+040C
ENCODING 1036
SWIDTH 500 0
DWIDTH 8 0
BBX 8 16 0 -2
BITMAP 
1c
70
00
00
c0
ce
d8
d0
e0
e0
d0
d8
cc
c6
00
00
ENDCHAR
STARTCHAR U+040D
ENCODING 1037
SWIDTH 500 0
DWIDTH 8 0
BBX 8 16 0 -2
BITMAP 
00
00
00
30
18
c6
ce
ce
da
d6
e6
e6
c6
00
00
00
ENDCHAR
STARTCHAR U+040E
ENCODING 1038
SWIDTH 500 0
DWIDTH 8 0
BBX 8 16 0 -2
BITMAP 
c6
c6
7c
00
c3
c3
66
66
34
34
18
18
30
70
00
00
ENDCHAR
STARTCHAR U+040F
ENCODING 1039
SWIDTH 500 0
DWIDTH 8 0
BBX 8 16 0 -2
BITMAP 
00
00
00
00
c3
c3
c3
c3
c3
c3
ff
18
18
18
00
00
ENDCHAR
STARTCHAR U+0410
ENCODING 1040
SWIDTH 500 0
DWIDTH 8 0
BBX 8 16 0 -2
BITMAP 
00
00
00
00
38
6c
6c
c6
c6
fe
c6
c6
c6
c6
00
00
ENDCHAR
STARTCHAR U+0411
ENCODING 1041
SWIDTH 500 0
DWIDTH 8 0
BBX 8 16 0 -2
BITMAP 
00
00
00
00
fc
c0
c0
c0
fc
c6
c6
c6
c6
fc
00
00
ENDCHAR
STARTCHAR U+0412
ENCODING 1042
SWIDTH 500 0
DWIDTH 8 0
BBX 8 16 0 -2
BITMAP 
00
00
00
00
fc
c6
c6
c6
fc
c6
c6
c6
c6
fc
00
00
ENDCHAR
STARTCHAR U+0413
ENCODING 1043
SWIDTH 500 0
DWIDTH 8 0
BBX 8 16 0 -2
BITMAP 
00
00
00
00
fe
c0
c0
c0
c0
c0
c0
c0
c0
c0
00
00
ENDCHAR
STARTCHAR U+0414
ENCODING 1044
SWIDTH 500 0
DWIDTH 8 0
BBX 8 16 0 -2
BITMAP 
00
00
00
00
1e
36
36
36
66
66
66
c6
c6
ff
03
03
ENDCHAR
STARTCHAR U+0415
ENCODING 1045
SWIDTH 500 0
DWIDTH 8 0
BBX 8 16 0 -2
BITMAP 
00
00
00
00
fe
c0
c0
c0
fc
c0
c0
c0
c0
fe
00
00
ENDCHAR
STARTCHAR U+0416
ENCODING 1046
SWIDTH 500 0
DWIDTH 8 0
BBX 8 16 0 -2
BITMAP 
00
00
00
00
db
db
6a
6a
3c
3c
6a
6a
db
db
00
00
ENDCHAR
STARTCHAR U+0417
ENCODING 1047
SWIDTH 500 0
DWIDTH 8 0
BBX 8 16 0 -2
BITMAP 
00
00
00
00
7c
c6
06
06
7c
0c
06
06
c6
7c
00
00
ENDCHAR
STARTCHAR U+0418
ENCODING 1048
SWIDTH 500 0
DWIDTH 8 0
BBX 8 16 0 -2
BITMAP 
00
00
00
00
c6
ce
ce
da
da
d6
d6
e6
e6
c6
00
00
ENDCHAR
STARTCHAR U+0419
ENCODING 1049
SWIDTH 500 0
DWIDTH 8 0
BBX 8 16 0 -2
BITMAP 
c6
c6
7c
00
c6
ce
ce
da
da
d6
d6
e6
e6
c6
00
00
ENDCHAR
STARTCHAR U+041A
ENCODING 1050
SWIDTH 500 0
DWIDTH 8 0
BBX 8 16 0 -2
BITMAP 
00
00
00
00
c0
ce
d8
d0
e0
e0
d0
d8
cc
c6
00
00
ENDCHAR
STARTCHAR U+041B
ENCODING 1051
SWIDTH 500 0
DWIDTH 8 0
BBX 8 16 0 -2
BITMAP 
00
00
00
00
3e
36
36
36
36
36
36
66
66
c6
00
00
ENDCHAR
STARTCHAR U+041C
ENCODING 1052
SWIDTH 500 0
DWIDTH 8 0
BBX 8 16 0 -2
BITMAP 
00
00
00
00
c6
c6
ee
ee
da
da
c6
c6
c6
c6
00
00
ENDCHAR
STARTCHAR U+041D
ENCODING 1053
SWIDTH 500 0
DWIDTH 8 0
BBX 8 16 0 -2
BITMAP 
00
00
00
00
c6
c6
c6
c6
fe
c6
c6
c6
c6
c6
00
00
ENDCHAR
STARTCHAR U+041E
ENCODING 1054
SWIDTH 500 0
DWIDTH 8 0
BBX 8 16 0 -2
BITMAP 
00
00
00
00
7c
c6
c6
c6
c6
c6
c6
c6
c6
7c
00
00
ENDCHAR
STARTCHAR U+041F
ENCODING 1055
SWIDTH 500 0
DWIDTH 8 0
BBX 8 16 0 -2
BITMAP 
00
00
00
00
fe
c6
c6
c6
c6
c6
c6
c6
c6
c6
00
00
ENDCHAR
STARTCHAR U+0420
ENCODING 1056
SWIDTH 500 0
DWIDTH 8 0
BBX 8 16 0 -2
BITMAP 
00
00
00
00
fc
c6
c6
c6
fc
c0
c0
c0
c0
c0
00
00
ENDCHAR
STARTCHAR U+0421
ENCODING 1057
SWIDTH 500 0
DWIDTH 8 0
BBX 8 16 0 -2
BITMAP 
00
00
00
00
7c
c6
c6
c0
c0
c0
c0
c6
c6
7c
00
00
ENDCHAR
STARTCHAR U+0422
ENCODING 1058
SWIDTH 500 0
DWIDTH 8 0
BBX 8 16 0 -2
BITMAP 
00
00
00
00
ff
18
18
18
18
18
18
18
18
18
00
00
ENDCHAR
STARTCHAR U+0423
ENCODING 1059
SWIDTH 500 0
DWIDTH 8 0
BBX 8 16 0 -2
BITMAP 
00
00
00
00
c3
c3
66
66
34
34
18
18
30
70
00
00
ENDCHAR
STARTCHAR U+0424
ENCODING 1060
SWIDTH 500 0
DWIDTH 8 0
BBX 8 16 0 -2
BITMAP 
00
00
00
18
18
7e
db
db
db
db
db
7e
18
18
00
00
ENDCHAR
STARTCHAR U+0425
ENCODING 1061
SWIDTH 500 0
DWIDTH 8 0
BBX 8 16 0 -2
BITMAP 
00
00
00
00
c6
c6
6c
6c
38
38
6c
6c
c6
c6
00
00
ENDCHAR
STARTCHAR U+0426
ENCODING 1062
SWIDTH 500 0
DWIDTH 8 0
BBX 8 16 0 -2
BITMAP 
00
00
00
00
c6
c6
c6
c6
c6
c6
c6
c6
c6
ff
03
03
ENDCHAR
STARTCHAR U+0427
ENCODING 1063
SWIDTH 500 0
DWIDTH 8 0
BBX 8 16 0 -2
BITMAP 
00
00
00
00
c6
c6
c6
c6
c6
ce
7a
06
06
06
00
00
ENDCHAR
STARTCHAR U+0428
ENCODING 1064
SWIDTH 500 0
DWIDTH 8 0
BBX 8 16 0 -2
BITMAP 
00
00
00
00
db
db
db
db
db
db
db
db
db
ff
00
00
ENDCHAR
STARTCHAR U+0429
ENCODING 1065
SWIDTH 500 0
DWIDTH 8 0
BBX 8 16 0 -2
BITMAP 
00
00
00
00
db
db
db
db
db
db
db
db
db
ff
03
03
ENDCHAR
STARTCHAR U+042A
ENCODING 1066
SWIDTH 500 0
DWIDTH 8 0
BBX 8 16 0 -2
BITMAP 
00
00
00
00
f0
30
30
30
3e
33
33
33
33
3e
00
00
ENDCHAR
STARTCHAR U+042B
ENCODING 1067
SWIDTH 500 0
DWIDTH 8 0
BBX 8 16 0 -2
BITMAP 
00
00
00
00
c6
c6
c6
c6
f6
da
da
da
da
f6
00
00
ENDCHAR
STARTCHAR U+042C
ENCODING 1068
SWIDTH 500 0
DWIDTH 8 0
BBX 8 16 0 -2
BITMAP 
00
00
00
00
c0
c0
c0
c0
fc
c6
c6
c6
c6
fc
00
00
ENDCHAR
STARTCHAR U+042D
ENCODING 1069
SWIDTH 500 0
DWIDTH 8 0
BBX 8 16 0 -2
BITMAP 
00
00
00
00
78
cc
06
06
7e
06
06
06
cc
78
00
00
ENDCHAR
STARTCHAR U+042E
ENCODING 1070
SWIDTH 500 0
DWIDTH 8 0
BBX 8 16 0 -2
BITMAP 
00
00
00
00
dc
d6
d6
d6
f6
d6
d6
d6
d6
dc
00
00
ENDCHAR
STARTCHAR U+042F
ENCODING 1071
SWIDTH 500 0
DWIDTH 8 0
BBX 8 16 0 -2
BITMAP 
00
00
00
00
7e
c6
c6
c6
7e
36
66
66
c6
c6
00
00
ENDCHAR
STARTCHAR U+0430
ENCODING 1072
SWIDTH 500 0
DWIDTH 8 0
BBX 8 16 0 -2
BITMAP 
00
00
00
00
00
00
7c
c6
06
7e
c6
c6
ce
7a
00
00
ENDCHAR
STARTCHAR U+0431
ENCODING 1073
SWIDTH 500 0
DWIDTH 8 0
BBX 8 16 0 -2
BITMAP 
00
00
00
00
00
00
fc
c0
c0
fc
c6
c6
c6
fc
00
00
ENDCHAR
STARTCHAR U+0432
ENCODING 1074
SWIDTH 500 0
DWIDTH 8 0
BBX 8 16 0 -2
BITMAP 
00
00
00
00
00
00
fc
c6
c6
fc
c6
c6
c6
fc
00
00
ENDCHAR
STARTCHAR U+0433
ENCODING 1075
SWIDTH 500 0
DWIDTH 8 0
BBX 8 16 0 -2
BITMAP 
00
00
00
00
00
00
fe
c0
c0
c0
c0
c0
c0
c0
00
00
ENDCHAR
STARTCHAR U+0434
ENCODING 1076
SWIDTH 500 0
DWIDTH 8 0
BBX 8 16 0 -2
BITMAP 
00
00
00
00
00
00
3e
36
66
66
c6
c6
c6
ff
03
00
ENDCHAR
STARTCHAR U+0435
ENCODING 1077
SWIDTH 500 0
DWIDTH 8 0
BBX 8 16 0 -2
BITMAP 
00
00
00
00
00
00
7c
c6
c6
fe
c0
c0
c6
7c
00
00
ENDCHAR
STARTCHAR U+0436
ENCODING 1078
SWIDTH 500 0
DWIDTH 8 0
BBX 8 16 0 -2
BITMAP 
00
00
00
00
00
00
db
db
6a
3c
3c
6a
db
db
00
00
ENDCHAR
STARTCHAR U+0437
ENCODING 1079
SWIDTH 500 0
DWIDTH 8 0
BBX 8 16 0 -2
BITMAP 
00
00
00
00
00
00
7c
c6
06
7c
0c
06
c6
7c
00
00
ENDCHAR
STARTCHAR U+0438
ENCODING 1080
SWIDTH 500 0
DWIDTH 8 0
BBX 8 16 0 -2
BITMAP 
00
00
00
00
00
00
ce
ce
da
da
d6
d6
e6
e6
00
00
ENDCHAR
STARTCHAR U+0439
ENCODING 1081
SWIDTH 500 0
DWIDTH 8 0
BBX 8 16 0 -2
BITMAP 
00
c6
c6
7c
00
00
ce
ce
da
da
d6
d6
e6
e6
00
00
ENDCHAR
STARTCHAR U+043A
ENCODING 1082
SWIDTH 500 0
DWIDTH 8 0
BBX 8 16 0 -2
BITMAP 
00
00
00
00
00
00
ce
d8
d0
e0
d0
d8
cc
c6
00
00
ENDCHAR
STARTCHAR U+043B
ENCODING 1083
SWIDTH 500 0
DWIDTH 8 0
BBX 8 16 0 -2
BITMAP 
00
00
00
00
00
00
3e
36
36
36
36
66
66
c6
00
00
ENDCHAR
STARTCHAR U+043C
ENCODING 1084
SWIDTH 500 0
DWIDTH 8 0
BBX 8 16 0 -2
BITMAP 
00
00
00
00
00
00
c6
ee
ee
da
da
c6
c6
c6
00
00
ENDCHAR
STARTCHAR U+043D
ENCODING 1085
SWIDTH 500 0
DWIDTH 8 0
BBX 8 16 0 -2
BITMAP 
00
00
00
00
00
00
c6
c6
c6
fe
c6
c6
c6
c6
00
00
ENDCHAR
STARTCHAR U+043E
ENCODING 1086
SWIDTH 500 0
DWIDTH 8 0
BBX 8 16 0 -2
BITMAP 
00
00
00
00
00
00
7c
c6
c6
c6
c6
c6
c6
7c
00
00
ENDCHAR
STARTCHAR U+043F
ENCODING 1087
SWIDTH 500 0
DWIDTH 8 0
BBX 8 16 0 -2
BITMAP 
00
00
00
00
00
00
fe
c6
c6
c6
c6
c6
c6
c6
00
00
ENDCHAR
STARTCHAR U+0440
ENCODING 1088
SWIDTH 500 0
DWIDTH 8 0
BBX 8 16 0 -2
BITMAP 
00
00
00
00
00
00
dc
e6
c6
c6
c6
c6
e6
dc
c0
c0
ENDCHAR
STARTCHAR U+0441
ENCODING 1089
SWIDTH 500 0
DWIDTH 8 0
BBX 8 16 0 -2
BITMAP 
00
00
00
00
00
00
7c
c6
c0
c0
c0
c0
c6
7c
00
00
ENDCHAR
STARTCHAR U+0442
ENCODING 1090
SWIDTH 500 0
DWIDTH 8 0
BBX 8 16 0 -2
BITMAP 
00
00
00
00
00
00
ff
18
18
18
18
18
18
18
00
00
ENDCHAR
STARTCHAR U+0443
ENCODING 1091
SWIDTH 500 0
DWIDTH 8 0
BBX 8 16 0 -2
BITMAP 
00
00
00
00
00
00
c6
c6
6c
6c
38
38
30
30
60
e0
ENDCHAR
STARTCHAR U+0444
ENCODING 1092
SWIDTH 500 0
DWIDTH 8 0
BBX 8 16 0 -2
BITMAP 
00
00
00
00
00
18
18
7e
db
db
db
db
7e
18
18
00
ENDCHAR
STARTCHAR U+0445
ENCODING 1093
SWIDTH 500 0
DWIDTH 8 0
BBX 8 16 0 -2
BITMAP 
00
00
00
00
00
00
c6
c6
6c
38
38
6c
c6
c6
00
00
ENDCHAR
STARTCHAR U+0446
ENCODING 1094
SWIDTH 500 0
DWIDTH 8 0
BBX 8 16 0 -2
BITMAP 
00
00
00
00
00
00
c6
c6
c6
c6
c6
c6
c6
ff
03
03
ENDCHAR
STARTCHAR U+0447
ENCODING 1095
SWIDTH 500 0
DWIDTH 8 0
BBX 8 16 0 -2
BITMAP 
00
00
00
00
00
00
c6
c6
c6
c6
ce
7a
06
06
00
00
ENDCHAR
STARTCHAR U+0448
ENCODING 1096
SWIDTH 500 0
DWIDTH 8 0
BBX 8 16 0 -2
BITMAP 
00
00
00
00
00
00
db
db
db
db
db
db
db
ff
00
00
ENDCHAR
STARTCHAR U+0449
ENCODING 1097
SWIDTH 500 0
DWIDTH 8 0
BBX 8 16 0 -2
BITMAP 
00
00
00
00
00
00
db
db
db
db
db
db
db
ff
03
03
ENDCHAR
STARTCHAR U+044A
ENCODING 1098
SWIDTH 500 0
DWIDTH 8 0
BBX 8 16 0 -2
BITMAP 
00
00
00
00
00
00
f0
30
30
3e
33
33
33
3e
00
00
ENDCHAR
STARTCHAR U+044B
ENCODING 1099
SWIDTH 500 0
DWIDTH 8 0
BBX 8 16 0 -2
BITMAP 
00
00
00
00
00
00
c6
c6
c6
f6
da
da
da
f6
00
00
ENDCHAR
STARTCHAR U+044C
ENCODING 1100
SWIDTH 500 0
DWIDTH 8 0
BBX 8 16 0 -2
BITMAP 
00
00
00
00
00
00
c0
c0
c0
fc
c6
c6
c6
fc
00
00
ENDCHAR
STARTCHAR U+044D
ENCODING 1101
SWIDTH 500 0
DWIDTH 8 0
BBX 8 16 0 -2
BITMAP 
00
00
00
00
00
00
78
cc
06
7e
06
06
cc
78
00
00
ENDCHAR
STARTCHAR U+044E
ENCODING 1102
SWIDTH 500 0
DWIDTH 8 0
BBX 8 16 0 -2
BITMAP 
00
00
00
00
00
00
dc
d6
d6
f6
d6
d6
d6
dc
00
00
ENDCHAR
STARTCHAR U+044F
ENCODING 1103
SWIDTH 500 0
DWIDTH 8 0
BBX 8 16 0 -2
BITMAP 
00
00
00
00
00
00
7e
c6
c6
c6
7e
36
66
c6
00
00
ENDCHAR
STARTCHAR U+0450
ENCODING 1104
SWIDTH 500 0
DWIDTH 8 0
BBX 8 16 0 -2
BITMAP 
00
00
00
00
30
18
00
7c
c6
fe
c0
c6
7c
00
00
00
ENDCHAR
STARTCHAR U+0451
ENCODING 1105
SWIDTH 500 0
DWIDTH 8 0
BBX 8 16 0 -2
BITMAP 
00
00
6c
6c
00
00
7c
c6
c6
fe
c0
c0
c6
7c
00
00
ENDCHAR
STARTCHAR U+0452
ENCODING 1106
SWIDTH 500 0
DWIDTH 8 0
BBX 8 16 0 -2
BITMAP 
00
00
00
00
60
60
f8
60
60
7c
66
66
66
66
1c
00
ENDCHAR
STARTCHAR U+0453
ENCODING 1107
SWIDTH 500 0
DWIDTH 8 0
BBX 8 16 0 -2
BITMAP 
00
00
1c
70
00
00
fe
c0
c0
c0
c0
c0
c0
c0
00
00
ENDCHAR
STARTCHAR U+0454
ENCODING 1108
SWIDTH 500 0
DWIDTH 8 0
BBX 8 16 0 -2
BITMAP 
00
00
00
00
00
00
3c
66
c0
fc
c0
c0
66
3c
00
00
ENDCHAR
STARTCHAR U+0455
ENCODING 1109
SWIDTH 500 0
DWIDTH 8 0
BBX 8 16 0 -2
BITMAP 
00
00
00
00
00
00
7c
c6
c0
70
1c
06
c6
7c
00
00
ENDCHAR
STARTCHAR U+0456
ENCODING 1110
SWIDTH 500 0
DWIDTH 8 0
BBX 8 16 0 -2
BITMAP 
00
00
00
18
18
00
38
18
18
18
18
18
18
7e
00
00
ENDCHAR
STARTCHAR U+0457
ENCODING 1111
SWIDTH 500 0
DWIDTH 8 0
BBX 8 16 0 -2
BITMAP 
00
00
00
6c
6c
00
38
18
18
18
18
18
18
7e
00
00
ENDCHAR
STARTCHAR U+0458
ENCODING 1112
SWIDTH 500 0
DWIDTH 8 0
BBX 8 16 0 -2
BITMAP 
00
00
00
0c
0c
00
1c
0c
0c
0c
0c
0c
0c
0c
d8
70
ENDCHAR
STARTCHAR U+0459
ENCODING 1113
SWIDTH 500 0
DWIDTH 8 0
BBX 8 16 0 -2
BITMAP 
00
00
00
00
00
00
f8
d8
d8
de
db
db
db
9e
00
00
ENDCHAR
STARTCHAR U+045A
ENCODING 1114
SWIDTH 500 0
DWIDTH 8 0
BBX 8 16 0 -2
BITMAP 
00
00
00
00
00
00
d8
d8
d8
fe
db
db
db
de
00
00
ENDCHAR
STARTCHAR U+045B
ENCODING 1115
SWIDTH 500 0
DWIDTH 8 0
BBX 8 16 0 -2
BITMAP 
00
00
00
00
60
60
f8
60
60
6c
76
66
66
66
00
00
ENDCHAR
STARTCHAR U+045C
ENCODING 1116
SWIDTH 500 0
DWIDTH 8 0
BBX 8 16 0 -2
BITMAP 
00
00
1c
70
00
00
ce
d8
d0
e0
d0
d8
cc
c6
00
00
ENDCHAR
STARTCHAR U+045D
ENCODING 1117
SWIDTH 500 0
DWIDTH 8 0
BBX 8 16 0 -2
BITMAP 
00
00
00
00
30
18
00
c6
ce
da
d6
e6
c6
00
00
00
ENDCHAR
STARTCHAR U+045E
ENCODING 1118
SWIDTH 500 0
DWIDTH 8 0
BBX 8 16 0 -2
BITMAP 
00
c6
c6
7c
00
00
c6
c6
6c
6c
38
38
30
30
60
e0
ENDCHAR
STARTCHAR U+045F
ENCODING 1119
SWIDTH 500 0
DWIDTH 8 0
BBX 8 16 0 -2
BITMAP 
00
00
00
00
00
00
66
66
66
66
66
66
7e
18
18
18
ENDCHAR
STARTCHAR U+0460
ENCODING 1120
SWIDTH 500 0
DWIDTH 8 0
BBX 8 16 0 -2
BITMAP 
00
00
00
00
76
c3
c3
c3
c3
db
db
db
db
76
00
00
ENDCHAR
STARTCHAR U+0461
ENCODING 1121
SWIDTH 500 0
DWIDTH 8 0
BBX 8 16 0 -2
BITMAP 
00
00
00
00
00
00
66
c3
c3
db
db
db
db
76
00
00
ENDCHAR
STARTCHAR U+0462
ENCODING 1122
SWIDTH 500 0
DWIDTH 8 0
BBX 8 16 0 -2
BITMAP 
00
00
00
00
30
fc
30
30
3e
33
33
33
33
3e
00
00
ENDCHAR
STARTCHAR U+0463
ENCODING 1123
SWIDTH 500 0
DWIDTH 8 0
BBX 8 16 0 -2
BITMAP 
00
00
00
00
60
60
f8
60
60
7c
66
66
66
7c
00
00
ENDCHAR
STARTCHAR U+0464
ENCODING 1124
SWIDTH 500 0
DWIDTH 8 0
BBX 8 16 0 -2
BITMAP 
00
00
00
00
ce
db
d0
d0
fe
d0
d0
d0
db
ce
00
00
ENDCHAR
STARTCHAR U+0465
ENCODING 1125
SWIDTH 500 0
DWIDTH 8 0
BBX 8 16 0 -2
BITMAP 
00
00
00
00
00
00
ce
db
d0
fe
d0
d0
db
ce
00
00
ENDCHAR
STARTCHAR U+0466
ENCODING 1126
SWIDTH 500 0
DWIDTH 8 0
BBX 8 16 0 -2
BITMAP 
00
00
00
00
18
18
34
34
66
76
6a
db
db
db
00
00
ENDCHAR
STARTCHAR U+0467
ENCODING 1127
SWIDTH 500 0
DWIDTH 8 0
BBX 8 16 0 -2
BITMAP 
00
00
00
00
00
00
18
34
34
66
76
db
db
db
00
00
ENDCHAR
STARTCHAR U+0468
ENCODING 1128
SWIDTH 500 0
DWIDTH 8 0
BBX 8 16 0 -2
BITMAP 
00
00
00
00
d8
d8
d4
d4
d6
f6
ea
db
db
db
00
00
ENDCHAR
STARTCHAR U+0469
ENCODING 1129
SWIDTH 500 0
DWIDTH 8 0
BBX 8 16 0 -2
BITMAP 
00
00
00
00
00
00
d8
d4
d4
d6
f6
db
db
db
00
00
ENDCHAR
STARTCHAR U+046A
ENCODING 1130
SWIDTH 500 0
DWIDTH 8 0
BBX 8 16 0 -2
BITMAP 
00
00
00
00
7e
66
66
34
18
3c
6a
db
db
db
00
00
ENDCHAR
STARTCHAR U+046B
ENCODING 1131
SWIDTH 500 0
DWIDTH 8 0
BBX 8 16 0 -2
BITMAP 
00
00
00
00
00
00
7e
66
34
18
7e
db
db
db
00
00
ENDCHAR
STARTCHAR U+046C
ENCODING 1132
SWIDTH 500 0
DWIDTH 8 0
BBX 8 16 0 -2
BITMAP 
00
00
00
00
df
d3
d3
da
f4
de
d5
d5
d5
d5
00
00
ENDCHAR
STARTCHAR U+046D
ENCODING 1133
SWIDTH 500 0
DWIDTH 8 0
BBX 8 16 0 -2
BITMAP 
00
00
00
00
00
00
df
d3
da
f4
de
d5
d5
d5
00
00
ENDCHAR
STARTCHAR U+046E
ENCODING 1134
SWIDTH 500 0
DWIDTH 8 0
BBX 8 16 0 -2
BITMAP 
00
00
6c
38
7c
c6
06
06
7c
0c
06
06
06
7c
c0
c0
ENDCHAR
STARTCHAR U+046F
ENCODING 1135
SWIDTH 500 0
DWIDTH 8 0
BBX 8 16 0 -2
BITMAP 
00
00
00
6c
38
00
7c
c6
06
7c
0c
06
06
7c
c0
c0
ENDCHAR
STARTCHAR U+0470
ENCODING 1136
SWIDTH 500 0
DWIDTH 8 0
BBX 8 16 0 -2
BITMAP 
00
00
00
00
db
db
db
db
db
7e
18
18
18
18
00
00
ENDCHAR
STARTCHAR U+0471
ENCODING 1137
SWIDTH 500 0
DWIDTH 8 0
BBX 8 16 0 -2
BITMAP 
00
00
00
00
00
00
00
00
db
db
db
db
db
7e
18
18
ENDCHAR
STARTCHAR U+0472
ENCODING 1138
SWIDTH 500 0
DWIDTH 8 0
BBX 8 16 0 -2
BITMAP 
00
00
00
00
7c
c6
c6
c6
fe
c6
c6
c6
c6
7c
00
00
ENDCHAR
STARTCHAR U+0473
ENCODING 1139
SWIDTH 500 0
DWIDTH 8 0
BBX 8 16 0 -2
BITMAP 
00
00
00
00
00
00
7c
c6
c6
fe
c6
c6
c6
7c
00
00
ENDCHAR
STARTCHAR U+0474
ENCODING 1140
SWIDTH 500 0
DWIDTH 8 0
BBX 8 16 0 -2
BITMAP 
00
00
00
00
c7
cc
cc
cc
68
68
68
30
30
30
00
00
ENDCHAR
STARTCHAR U+0475
ENCODING 1141
SWIDTH 500 0
DWIDTH 8 0
BBX 8 16 0 -2
BITMAP 
00
00
00
00
00
00
ce
d8
d8
68
68
68
30
30
00
00
ENDCHAR
STARTCHAR U+0476
ENCODING 1142
SWIDTH 500 0
DWIDTH 8 0
BBX 8 16 0 -2
BITMAP 
ee
33
00
00
c7
cc
cc
cc
68
68
68
30
30
30
00
00
ENDCHAR
STARTCHAR U+0477
ENCODING 1143
SWIDTH 500 0
DWIDTH 8 0
BBX 8 16 0 -2
BITMAP 
00
00
ee
33
00
00
ce
d8
d8
68
68
68
30
30
00
00
ENDCHAR
STARTCHAR U+0478
ENCODING 1144
SWIDTH 500 0
DWIDTH 8 0
BBX 8 16 0 -2
BITMAP 
00
00
00
00
60
d0
db
db
db
d5
d6
d4
d4
6c
18
18
ENDCHAR
STARTCHAR U+0479
ENCODING 1145
SWIDTH 500 0
DWIDTH 8 0
BBX 8 16 0 -2
BITMAP 
00
00
00
00
00
00
6b
db
db
d5
d6
d4
d4
6c
18
18
ENDCHAR
STARTCHAR U+047A
ENCODING 1146
SWIDTH 500 0
DWIDTH 8 0
BBX 8 16 0 -2
BITMAP 
00
00
00
18
7e
db
c3
c3
c3
c3
c3
c3
db
7e
18
00
ENDCHAR
STARTCHAR U+047B
ENCODING 1147
SWIDTH 500 0
DWIDTH 8 0
BBX 8 16 0 -2
BITMAP 
00
00
00
00
00
18
7e
db
c3
c3
c3
c3
db
7e
18
00
ENDCHAR
STARTCHAR U+047C
ENCODING 1148
SWIDTH 500 0
DWIDTH 8 0
BBX 8 16 0 -2
BITMAP 
7c
c7
38
00
76
c3
c3
c3
c3
db
db
db
db
76
00
00
ENDCHAR
STARTCHAR U+047D
ENCODING 1149
SWIDTH 500 0
DWIDTH 8 0
BBX 8 16 0 -2
BITMAP 
00
00
7c
c7
38
00
66
c3
c3
db
db
db
db
76
00
00
ENDCHAR
STARTCHAR U+047E
ENCODING 1150
SWIDTH 500 0
DWIDTH 8 0
BBX 8 16 0 -2
BITMAP 
ff
18
00
00
76
c3
c3
c3
c3
db
db
db
db
76
00
00
ENDCHAR
STARTCHAR U+047F
ENCODING 1151
SWIDTH 500 0
DWIDTH 8 0
BBX 8 16 0 -2
BITMAP 
00
00
ff
18
00
00
66
c3
c3
db
db
db
db
76
00
00
ENDCHAR
STARTCHAR U+0480
ENCODING 1152
SWIDTH 500 0
DWIDTH 8 0
BBX 8 16 0 -2
BITMAP 
00
00
00
00
7c
c6
c6
c0
c0
c0
c0
c0
7c
0c
0c
0c
ENDCHAR
STARTCHAR U+0481
ENCODING 1153
SWIDTH 500 0
DWIDTH 8 0
BBX 8 16 0 -2
BITMAP 
00
00
00
00
00
00
7c
c6
c6
c0
c0
c0
7c
0c
0c
0c
ENDCHAR
STARTCHAR U+0482
ENCODING 1154
SWIDTH 500 0
DWIDTH 8 0
BBX 8 16 0 -2
BITMAP 
00
00
00
00
00
00
36
1c
cc
6a
33
38
6c
00
00
00
ENDCHAR
STARTCHAR U+0483
ENCODING 1155
SWIDTH 500 0
DWIDTH 8 0
BBX 8 16 0 -2
BITMAP 
00
18
f8
c0
00
00
00
00
00
00
00
00
00
00
00
00
ENDCHAR
STARTCHAR U+0484
ENCODING 1156
SWIDTH 500 0
DWIDTH 8 0
BBX 8 16 0 -2
BITMAP 
00
30
68
d8
80
00
00
00
00
00
00
00
00
00
00
00
ENDCHAR
STARTCHAR U+0485
ENCODING 1157
SWIDTH 500 0
DWIDTH 8 0
BBX 8 16 0 -2
BITMAP 
00
c0
f8
c0
00
00
00
00
00
00
00
00
00
00
00
00
ENDCHAR
STARTCHAR U+0486
ENCODING 1158
SWIDTH 500 0
DWIDTH 8 0
BBX 8 16 0 -2
BITMAP 
00
18
f8
18
00
00
00
00
00
00
00
00
00
00
00
00
ENDCHAR
STARTCHAR U+0488
ENCODING 1160
SWIDTH 500 0
DWIDTH 8 0
BBX 8 16 0 -2
BITMAP 
00
00
00
00
18
66
00
c3
00
66
18
00
00
00
00
00
ENDCHAR
STARTCHAR U+0489
ENCODING 1161
SWIDTH 500 0
DWIDTH 8 0
BBX 8 16 0 -2
BITMAP 
00
00
00
18
db
66
00
e7
00
66
db
18
00
00
00
00
ENDCHAR
STARTCHAR U+048C
ENCODING 1164
SWIDTH 500 0
DWIDTH 8 0
BBX 8 16 0 -2
BITMAP 
00
00
00
00
c0
f0
c0
c0
fc
c6
c6
c6
c6
fc
00
00
ENDCHAR
STARTCHAR U+048D
ENCODING 1165
SWIDTH 500 0
DWIDTH 8 0
BBX 8 16 0 -2
BITMAP 
00
00
00
00
00
00
c0
f0
c0
c0
fc
c6
c6
fc
00
00
ENDCHAR
STARTCHAR U+048E
ENCODING 1166
SWIDTH 500 0
DWIDTH 8 0
BBX 8 16 0 -2
BITMAP 
00
00
00
00
fc
c6
c6
da
ce
fc
c6
c0
c0
c0
00
00
ENDCHAR
STARTCHAR U+048F
ENCODING 1167
SWIDTH 500 0
DWIDTH 8 0
BBX 8 16 0 -2
BITMAP 
00
00
00
00
00
00
dc
e6
c6
c6
da
ee
dc
c6
c0
c0
ENDCHAR
STARTCHAR U+0490
ENCODING 1168
SWIDTH 500 0
DWIDTH 8 0
BBX 8 16 0 -2
BITMAP 
00
00
06
06
fe
c0
c0
c0
c0
c0
c0
c0
c0
c0
00
00
ENDCHAR
STARTCHAR U+0491
ENCODING 1169
SWIDTH 500 0
DWIDTH 8 0
BBX 8 16 0 -2
BITMAP 
00
00
00
00
06
06
fe
c0
c0
c0
c0
c0
c0
c0
00
00
ENDCHAR
STARTCHAR U+0492
ENCODING 1170
SWIDTH 500 0
DWIDTH 8 0
BBX 8 16 0 -2
BITMAP 
00
00
00
00
3f
30
30
30
30
fc
30
30
30
30
00
00
ENDCHAR
STARTCHAR U+0493
ENCODING 1171
SWIDTH 500 0
DWIDTH 8 0
BBX 8 16 0 -2
BITMAP 
00
00
00
00
00
00
3f
30
30
30
fc
30
30
30
00
00
ENDCHAR
STARTCHAR U+0494
ENCODING 1172
SWIDTH 500 0
DWIDTH 8 0
BBX 8 16 0 -2
BITMAP 
00
00
00
00
fe
c0
c0
c0
c0
fc
c6
c6
c6
c6
1c
00
ENDCHAR
STARTCHAR U+0495
ENCODING 1173
SWIDTH 500 0
DWIDTH 8 0
BBX 8 16 0 -2
BITMAP 
00
00
00
00
00
00
fe
c0
c0
c0
fc
c6
c6
c6
1c
00
ENDCHAR
STARTCHAR U+0496
ENCODING 1174
SWIDTH 500 0
DWIDTH 8 0
BBX 8 16 0 -2
BITMAP 
00
00
00
00
db
db
6a
6a
3c
3c
6a
6a
db
db
03
03
ENDCHAR
STARTCHAR U+0497
ENCODING 1175
SWIDTH 500 0
DWIDTH 8 0
BBX 8 16 0 -2
BITMAP 
00
00
00
00
00
00
db
db
6a
3c
3c
6a
db
db
03
03
ENDCHAR
STARTCHAR U+0498
ENCODING 1176
SWIDTH 500 0
DWIDTH 8 0
BBX 8 16 0 -2
BITMAP 
00
00
00
00
7c
c6
06
06
7c
0c
06
06
c6
7c
18
70
ENDCHAR
STARTCHAR U+0499
ENCODING 1177
SWIDTH 500 0
DWIDTH 8 0
BBX 8 16 0 -2
BITMAP 
00
00
00
00
00
00
7c
c6
06
7c
0c
06
c6
7c
18
70
ENDCHAR
STARTCHAR U+049A
ENCODING 1178
SWIDTH 500 0
DWIDTH 8 0
BBX 8 16 0 -2
BITMAP 
00
00
00
00
c0
ce
d8
d0
e0
e0
d0
d8
cc
c6
06
06
ENDCHAR
STARTCHAR U+049B
ENCODING 1179
SWIDTH 500 0
DWIDTH 8 0
BBX 8 16 0 -2
BITMAP 
00
00
00
00
00
00
ce
d8
d0
e0
d0
d8
cc
c6
06
06
ENDCHAR
STARTCHAR U+049C
ENCODING 1180
SWIDTH 500 0
DWIDTH 8 0
BBX 8 16 0 -2
BITMAP 
00
00
00
00
c0
c7
d4
d4
f8
d4
d4
d4
c6
c3
00
00
ENDCHAR
STARTCHAR U+049D
ENCODING 1181
SWIDTH 500 0
DWIDTH 8 0
BBX 8 16 0 -2
BITMAP 
00
00
00
00
00
00
c7
d4
d4
f8
d4
d4
c6
c3
00
00
ENDCHAR
STARTCHAR U+049E
ENCODING 1182
SWIDTH 500 0
DWIDTH 8 0
BBX 8 16 0 -2
BITMAP 
00
00
00
00
60
f7
6c
68
70
70
68
6c
66
63
00
00
ENDCHAR
STARTCHAR U+049F
ENCODING 1183
SWIDTH 500 0
DWIDTH 8 0
BBX 8 16 0 -2
BITMAP 
00
00
00
00
00
00
67
f4
68
70
68
6c
66
63
00
00
ENDCHAR
STARTCHAR U+04A0
ENCODING 1184
SWIDTH 500 0
DWIDTH 8 0
BBX 8 16 0 -2
BITMAP 
00
00
00
00
e0
67
6c
68
70
70
68
6c
66
63
00
00
ENDCHAR
STARTCHAR U+04A1
ENCODING 1185
SWIDTH 500 0
DWIDTH 8 0
BBX 8 16 0 -2
BITMAP 
00
00
00
00
00
00
e7
6c
68
70
68
6c
66
63
00
00
ENDCHAR
STARTCHAR U+04A2
ENCODING 1186
SWIDTH 500 0
DWIDTH 8 0
BBX 8 16 0 -2
BITMAP 
00
00
00
00
c6
c6
c6
c6
fe
c6
c6
c6
c6
c7
03
03
ENDCHAR
STARTCHAR U+04A3
ENCODING 1187
SWIDTH 500 0
DWIDTH 8 0
BBX 8 16 0 -2
BITMAP 
00
00
00
00
00
00
c6
c6
c6
fe
c6
c6
c6
c7
03
03
ENDCHAR
STARTCHAR U+04A4
ENCODING 1188
SWIDTH 500 0
DWIDTH 8 0
BBX 8 16 0 -2
BITMAP 
00
00
00
00
cf
cc
cc
cc
fc
cc
cc
cc
cc
cc
00
00
ENDCHAR
STARTCHAR U+04A5
ENCODING 1189
SWIDTH 500 0
DWIDTH 8 0
BBX 8 16 0 -2
BITMAP 
00
00
00
00
00
00
cf
cc
cc
fc
cc
cc
cc
cc
00
00
ENDCHAR
STARTCHAR U+04A6
ENCODING 1190
SWIDTH 500 0
DWIDTH 8 0
BBX 8 16 0 -2
BITMAP 
00
00
00
00
f8
d8
d8
d8
d8
de
db
db
db
db
03
0e
ENDCHAR
STARTCHAR U+04A7
ENCODING 1191
SWIDTH 500 0
DWIDTH 8 0
BBX 8 16 0 -2
BITMAP 
00
00
00
00
00
00
f8
d8
d8
d8
de
db
db
db
03
0e
ENDCHAR
STARTCHAR U+04A8
ENCODING 1192
SWIDTH 500 0
DWIDTH 8 0
BBX 8 16 0 -2
BITMAP 
00
00
00
00
3c
60
c0
dc
d6
d6
d6
d6
6c
38
0e
00
ENDCHAR
STARTCHAR U+04A9
ENCODING 1193
SWIDTH 500 0
DWIDTH 8 0
BBX 8 16 0 -2
BITMAP 
00
00
00
00
00
00
3c
60
dc
d6
d6
d6
6c
38
0e
00
ENDCHAR
STARTCHAR U+04AA
ENCODING 1194
SWIDTH 500 0
DWIDTH 8 0
BBX 8 16 0 -2
BITMAP 
00
00
00
00
7c
c6
c6
c0
c0
c0
c0
c6
c6
7c
30
1c
ENDCHAR
STARTCHAR U+04AB
ENCODING 1195
SWIDTH 500 0
DWIDTH 8 0
BBX 8 16 0 -2
BITMAP 
00
00
00
00
00
00
7c
c6
c6
c0
c0
c6
c6
7c
30
1c
ENDCHAR
STARTCHAR U+04AC
ENCODING 1196
SWIDTH 500 0
DWIDTH 8 0
BBX 8 16 0 -2
BITMAP 
00
00
00
00
ff
18
18
18
18
18
18
18
18
1c
0c
0c
ENDCHAR
STARTCHAR U+04AD
ENCODING 1197
SWIDTH 500 0
DWIDTH 8 0
BBX 8 16 0 -2
BITMAP 
00
00
00
00
00
00
ff
18
18
18
18
18
18
1c
0c
0c
ENDCHAR
STARTCHAR U+04AE
ENCODING 1198
SWIDTH 500 0
DWIDTH 8 0
BBX 8 16 0 -2
BITMAP 
00
00
00
00
c3
c3
66
66
34
18
18
18
18
18
00
00
ENDCHAR
STARTCHAR U+04AF
ENCODING 1199
SWIDTH 500 0
DWIDTH 8 0
BBX 8 16 0 -2
BITMAP 
00
00
00
00
00
00
66
66
66
34
34
18
18
18
18
18
ENDCHAR
STARTCHAR U+04B0
ENCODING 1200
SWIDTH 500 0
DWIDTH 8 0
BBX 8 16 0 -2
BITMAP 
00
00
00
00
c3
c3
66
66
34
18
18
7e
18
18
00
00
ENDCHAR
STARTCHAR U+04B1
ENCODING 1201
SWIDTH 500 0
DWIDTH 8 0
BBX 8 16 0 -2
BITMAP 
00
00
00
00
00
00
66
66
66
34
18
18
7e
18
00
00
ENDCHAR
STARTCHAR U+04B2
ENCODING 1202
SWIDTH 500 0
DWIDTH 8 0
BBX 8 16 0 -2
BITMAP 
00
00
00
00
c6
c6
6c
6c
38
38
6c
6c
c6
c7
03
03
ENDCHAR
STARTCHAR U+04B3
ENCODING 1203
SWIDTH 500 0
DWIDTH 8 0
BBX 8 16 0 -2
BITMAP 
00
00
00
00
00
00
c6
c6
6c
38
38
6c
c6
c7
03
03
ENDCHAR
STARTCHAR U+04B4
ENCODING 1204
SWIDTH 500 0
DWIDTH 8 0
BBX 8 16 0 -2
BITMAP 
00
00
00
00
fa
66
66
66
66
66
66
66
66
7f
03
03
ENDCHAR
STARTCHAR U+04B5
ENCODING 1205
SWIDTH 500 0
DWIDTH 8 0
BBX 8 16 0 -2
BITMAP 
00
00
00
00
00
00
fa
66
66
66
66
66
66
7f
03
03
ENDCHAR
STARTCHAR U+04B6
ENCODING 1206
SWIDTH 500 0
DWIDTH 8 0
BBX 8 16 0 -2
BITMAP 
00
00
00
00
c6
c6
c6
c6
c6
ce
7a
06
06
07
03
03
ENDCHAR
STARTCHAR U+04B7
ENCODING 1207
SWIDTH 500 0
DWIDTH 8 0
BBX 8 16 0 -2
BITMAP 
00
00
00
00
00
00
c6
c6
c6
c6
ce
7a
06
07
03
03
ENDCHAR
STARTCHAR U+04B8
ENCODING 1208
SWIDTH 500 0
DWIDTH 8 0
BBX 8 16 0 -2
BITMAP 
00
00
00
00
c6
c6
c6
c6
d6
d6
7a
36
36
06
00
00
ENDCHAR
STARTCHAR U+04B9
ENCODING 1209
SWIDTH 500 0
DWIDTH 8 0
BBX 8 16 0 -2
BITMAP 
00
00
00
00
00
00
c6
c6
c6
d6
d6
7a
36
06
00
00
ENDCHAR
STARTCHAR U+04BA
ENCODING 1210
SWIDTH 500 0
DWIDTH 8 0
BBX 8 16 0 -2
BITMAP 
00
00
00
00
c0
c0
c0
dc
e6
c6
c6
c6
c6
c6
00
00
ENDCHAR
STARTCHAR U+04BB
ENCODING 1211
SWIDTH 500 0
DWIDTH 8 0
BBX 8 16 0 -2
BITMAP 
00
00
00
00
00
00
c0
c0
dc
e6
c6
c6
c6
c6
00
00
ENDCHAR
STARTCHAR U+04BC
ENCODING 1212
SWIDTH 500 0
DWIDTH 8 0
BBX 8 16 0 -2
BITMAP 
00
00
00
00
dc
d6
d6
d6
7e
30
30
36
36
1c
00
00
ENDCHAR
STARTCHAR U+04BD
ENCODING 1213
SWIDTH 500 0
DWIDTH 8 0
BBX 8 16 0 -2
BITMAP 
00
00
00
00
00
00
dc
d6
d6
7e
30
30
36
1c
00
00
ENDCHAR
STARTCHAR U+04BE
ENCODING 1214
SWIDTH 500 0
DWIDTH 8 0
BBX 8 16 0 -2
BITMAP 
00
00
00
00
dc
d6
d6
d6
7e
30
30
36
36
1c
18
0e
ENDCHAR
STARTCHAR U+04BF
ENCODING 1215
SWIDTH 500 0
DWIDTH 8 0
BBX 8 16 0 -2
BITMAP 
00
00
00
00
00
00
dc
d6
d6
7e
30
30
36
1c
18
0e
ENDCHAR
STARTCHAR U+04C0
ENCODING 1216
SWIDTH 500 0
DWIDTH 8 0
BBX 8 16 0 -2
BITMAP 
00
00
00
00
7e
18
18
18
18
18
18
18
18
7e
00
00
ENDCHAR
STARTCHAR U+04C1
ENCODING 1217
SWIDTH 500 0
DWIDTH 8 0
BBX 8 16 0 -2
BITMAP 
c3
c3
7e
00
db
db
6a
6a
3c
3c
6a
6a
db
db
00
00
ENDCHAR
STARTCHAR U+04C2
ENCODING 1218
SWIDTH 500 0
DWIDTH 8 0
BBX 8 16 0 -2
BITMAP 
00
66
66
3c
00
00
db
db
6a
3c
3c
6a
db
db
00
00
ENDCHAR
STARTCHAR U+04C3
ENCODING 1219
SWIDTH 500 0
DWIDTH 8 0
BBX 8 16 0 -2
BITMAP 
00
00
00
00
c0
ce
d8
d0
e0
fc
c6
c6
c6
c6
06
1c
ENDCHAR
STARTCHAR U+04C4
ENCODING 1220
SWIDTH 500 0
DWIDTH 8 0
BBX 8 16 0 -2
BITMAP 
00
00
00
00
00
00
ce
d8
d0
e0
fc
c6
c6
c6
06
1c
ENDCHAR
STARTCHAR U+04C7
ENCODING 1223
SWIDTH 500 0
DWIDTH 8 0
BBX 8 16 0 -2
BITMAP 
00
00
00
00
c6
c6
c6
c6
fe
c6
c6
c6
c6
c6
06
1c
ENDCHAR
STARTCHAR U+04C8
ENCODING 1224
SWIDTH 500 0
DWIDTH 8 0
BBX 8 16 0 -2
BITMAP 
00
00
00
00
00
00
c6
c6
c6
fe
c6
c6
c6
c6
06
1c
ENDCHAR
STARTCHAR U+04CB
ENCODING 1227
SWIDTH 500 0
DWIDTH 8 0
BBX 8 16 0 -2
BITMAP 
00
00
00
00
c6
c6
c6
c6
c6
ce
7a
06
06
0e
0c
0c
ENDCHAR
STARTCHAR U+04CC
ENCODING 1228
SWIDTH 500 0
DWIDTH 8 0
BBX 8 16 0 -2
BITMAP 
00
00
00
00
00
00
c6
c6
c6
c6
ce
7a
06
0e
0c
0c
ENDCHAR
STARTCHAR U+04D0
ENCODING 1232
SWIDTH 500 0
DWIDTH 8 0
BBX 8 16 0 -2
BITMAP 
c6
c6
7c
00
38
6c
6c
c6
c6
fe
c6
c6
c6
c6
00
00
ENDCHAR
STARTCHAR U+04D1
ENCODING 1233
SWIDTH 500 0
DWIDTH 8 0
BBX 8 16 0 -2
BITMAP 
00
c6
c6
7c
00
00
7c
c6
06
7e
c6
c6
ce
7a
00
00
ENDCHAR
STARTCHAR U+04D2
ENCODING 1234
SWIDTH 500 0
DWIDTH 8 0
BBX 8 16 0 -2
BITMAP 
6c
6c
00
00
38
6c
6c
c6
c6
fe
c6
c6
c6
c6
00
00
ENDCHAR
STARTCHAR U+04D3
ENCODING 1235
SWIDTH 500 0
DWIDTH 8 0
BBX 8 16 0 -2
BITMAP 
00
00
6c
6c
00
00
7c
c6
06
7e
c6
c6
ce
7a
00
00
ENDCHAR
STARTCHAR U+04D4
ENCODING 1236
SWIDTH 500 0
DWIDTH 8 0
BBX 8 16 0 -2
BITMAP 
00
00
00
00
3f
68
d8
d8
ff
d8
d8
d8
d8
df
00
00
ENDCHAR
STARTCHAR U+04D5
ENCODING 1237
SWIDTH 500 0
DWIDTH 8 0
BBX 8 16 0 -2
BITMAP 
00
00
00
00
00
00
7e
db
1b
7f
d8
d8
db
7e
00
00
ENDCHAR
STARTCHAR U+04D6
ENCODING 1238
SWIDTH 500 0
DWIDTH 8 0
BBX 8 16 0 -2
BITMAP 
c6
c6
7c
00
fe
c0
c0
c0
fc
c0
c0
c0
c0
fe
00
00
ENDCHAR
STARTCHAR U+04D7
ENCODING 1239
SWIDTH 500 0
DWIDTH 8 0
BBX 8 16 0 -2
BITMAP 
00
00
c6
c6
7c
00
7c
c6
c6
fe
c0
c0
c6
7c
00
00
ENDCHAR
STARTCHAR U+04D8
ENCODING 1240
SWIDTH 500 0
DWIDTH 8 0
BBX 8 16 0 -2
BITMAP 
00
00
00
00
38
6c
c6
06
06
fe
c6
c6
6c
38
00
00
ENDCHAR
STARTCHAR U+04D9
ENCODING 1241
SWIDTH 500 0
DWIDTH 8 0
BBX 8 16 0 -2
BITMAP 
00
00
00
00
00
00
7c
c6
06
06
fe
c6
c6
7c
00
00
ENDCHAR
STARTCHAR U+04DA
ENCODING 1242
SWIDTH 500 0
DWIDTH 8 0
BBX 8 16 0 -2
BITMAP 
6c
6c
00
00
38
6c
c6
06
06
fe
c6
c6
6c
38
00
00
ENDCHAR
STARTCHAR U+04DB
ENCODING 1243
SWIDTH 500 0
DWIDTH 8 0
BBX 8 16 0 -2
BITMAP 
00
00
6c
6c
00
00
7c
c6
06
06
fe
c6
c6
7c
00
00
ENDCHAR
STARTCHAR U+04DC
ENCODING 1244
SWIDTH 500 0
DWIDTH 8 0
BBX 8 16 0 -2
BITMAP 
6c
6c
00
00
db
db
6a
6a
3c
3c
6a
6a
db
db
00
00
ENDCHAR
STARTCHAR U+04DD
ENCODING 1245
SWIDTH 500 0
DWIDTH 8 0
BBX 8 16 0 -2
BITMAP 
00
00
6c
6c
00
00
db
db
6a
3c
3c
6a
db
db
00
00
ENDCHAR
STARTCHAR U+04DE
ENCODING 1246
SWIDTH 500 0
DWIDTH 8 0
BBX 8 16 0 -2
BITMAP 
6c
6c
00
00
7c
c6
06
06
7c
0c
06
06
c6
7c
00
00
ENDCHAR
STARTCHAR U+04DF
ENCODING 1247
SWIDTH 500 0
DWIDTH 8 0
BBX 8 16 0 -2
BITMAP 
00
00
6c
6c
00
00
7c
c6
06
7c
0c
06
c6
7c
00
00
ENDCHAR
STARTCHAR U+04E0
ENCODING 1248
SWIDTH 500 0
DWIDTH 8 0
BBX 8 16 0 -2
BITMAP 
00
00
00
00
fe
0c
18
30
3c
06
06
06
ce
7c
00
00
ENDCHAR
STARTCHAR U+04E1
ENCODING 1249
SWIDTH 500 0
DWIDTH 8 0
BBX 8 16 0 -2
BITMAP 
00
00
00
00
00
00
7e
0c
18
30
3c
06
06
06
c6
7c
ENDCHAR
STARTCHAR U+04E2
ENCODING 1250
SWIDTH 500 0
DWIDTH 8 0
BBX 8 16 0 -2
BITMAP 
00
7c
00
00
c6
ce
ce
da
da
d6
d6
e6
e6
c6
00
00
ENDCHAR
STARTCHAR U+04E3
ENCODING 1251
SWIDTH 500 0
DWIDTH 8 0
BBX 8 16 0 -2
BITMAP 
00
00
00
7c
00
00
ce
ce
da
da
d6
d6
e6
e6
00
00
ENDCHAR
STARTCHAR U+04E4
ENCODING 1252
SWIDTH 500 0
DWIDTH 8 0
BBX 8 16 0 -2
BITMAP 
6c
6c
00
00
c6
ce
ce
da
da
d6
d6
e6
e6
c6
00
00
ENDCHAR
STARTCHAR U+04E5
ENCODING 1253
SWIDTH 500 0
DWIDTH 8 0
BBX 8 16 0 -2
BITMAP 
00
00
6c
6c
00
00
ce
ce
da
da
d6
d6
e6
e6
00
00
ENDCHAR
STARTCHAR U+04E6
ENCODING 1254
SWIDTH 500 0
DWIDTH 8 0
BBX 8 16 0 -2
BITMAP 
6c
6c
00
00
7c
c6
c6
c6
c6
c6
c6
c6
c6
7c
00
00
ENDCHAR
STARTCHAR U+04E7
ENCODING 1255
SWIDTH 500 0
DWIDTH 8 0
BBX 8 16 0 -2
BITMAP 
00
00
6c
6c
00
00
7c
c6
c6
c6
c6
c6
c6
7c
00
00
ENDCHAR
STARTCHAR U+04E8
ENCODING 1256
SWIDTH 500 0
DWIDTH 8 0
BBX 8 16 0 -2
BITMAP 
00
00
00
00
7c
c6
c6
c6
fe
c6
c6
c6
c6
7c
00
00
ENDCHAR
STARTCHAR U+04E9
ENCODING 1257
SWIDTH 500 0
DWIDTH 8 0
BBX 8 16 0 -2
BITMAP 
00
00
00
00
00
00
7c
c6
c6
fe
c6
c6
c6
7c
00
00
ENDCHAR
STARTCHAR U+04EA
ENCODING 1258
SWIDTH 500 0
DWIDTH 8 0
BBX 8 16 0 -2
BITMAP 
6c
6c
00
00
7c
c6
c6
c6
fe
c6
c6
c6
c6
7c
00
00
ENDCHAR
STARTCHAR U+04EB
ENCODING 1259
SWIDTH 500 0
DWIDTH 8 0
BBX 8 16 0 -2
BITMAP 
00
00
6c
6c
00
00
7c
c6
c6
fe
c6
c6
c6
7c
00
00
ENDCHAR
STARTCHAR U+04EC
ENCODING 1260
SWIDTH 500 0
DWIDTH 8 0
BBX 8 16 0 -2
BITMAP 
6c
6c
00
00
78
cc
06
06
7e
06
06
06
cc
78
00
00
ENDCHAR
STARTCHAR U+04ED
ENCODING 1261
SWIDTH 500 0
DWIDTH 8 0
BBX 8 16 0 -2
BITMAP 
00
00
6c
6c
00
00
78
cc
06
7e
06
06
cc
78
00
00
ENDCHAR
STARTCHAR U+04EE
ENCODING 1262
SWIDTH 500 0
DWIDTH 8 0
BBX 8 16 0 -2
BITMAP 
00
7e
00
00
c3
c3
66
66
34
34
18
18
30
70
00
00
ENDCHAR
STARTCHAR U+04EF
ENCODING 1263
SWIDTH 500 0
DWIDTH 8 0
BBX 8 16 0 -2
BITMAP 
00
00
00
7c
00
00
c6
c6
6c
6c
38
38
30
30
60
e0
ENDCHAR
STARTCHAR U+04F0
ENCODING 1264
SWIDTH 500 0
DWIDTH 8 0
BBX 8 16 0 -2
BITMAP 
6c
6c
00
00
c3
c3
66
66
34
34
18
18
30
70
00
00
ENDCHAR
STARTCHAR U+04F1
ENCODING 1265
SWIDTH 500 0
DWIDTH 8 0
BBX 8 16 0 -2
BITMAP 
00
00
6c
6c
00
00
c6
c6
6c
6c
38
38
30
30
60
e0
ENDCHAR
STARTCHAR U+04F2
ENCODING 1266
SWIDTH 500 0
DWIDTH 8 0
BBX 8 16 0 -2
BITMAP 
77
cc
00
00
c3
c3
66
66
34
34
18
18
30
70
00
00
ENDCHAR
STARTCHAR U+04F3
ENCODING 1267
SWIDTH 500 0
DWIDTH 8 0
BBX 8 16 0 -2
BITMAP 
00
00
77
cc
00
00
c6
c6
6c
6c
38
38
30
30
60
e0
ENDCHAR
STARTCHAR U+04F4
ENCODING 1268
SWIDTH 500 0
DWIDTH 8 0
BBX 8 16 0 -2
BITMAP 
6c
6c
00
00
c6
c6
c6
c6
c6
ce
7a
06
06
06
00
00
ENDCHAR
STARTCHAR U+04F5
ENCODING 1269
SWIDTH 500 0
DWIDTH 8 0
BBX 8 16 0 -2
BITMAP 
00
00
6c
6c
00
00
c6
c6
c6
c6
ce
7a
06
06
00
00
ENDCHAR
STARTCHAR U+04F8
ENCODING 1272
SWIDTH 500 0
DWIDTH 8 0
BBX 8 16 0 -2
BITMAP 
6c
6c
00
00
c6
c6
c6
c6
f6
da
da
da
da
f6
00
00
ENDCHAR
STARTCHAR U+04F9
ENCODING 1273
SWIDTH 500 0
DWIDTH 8 0
BBX 8 16 0 -2
BITMAP 
00
00
6c
6c
00
00
c6
c6
c6
f6
da
da
da
f6
00
00
ENDCHAR
STARTCHAR U+0531
ENCODING 1329
SWIDTH 500 0
DWIDTH 8 0
BBX 8 16 0 -2
BITMAP 
00
00
00
00
cc
cc
cc
cc
cc
cc
cc
cf
cd
78
00
00
ENDCHAR
STARTCHAR U+0532
ENCODING 1330
SWIDTH 500 0
DWIDTH 8 0
BBX 8 16 0 -2
BITMAP 
00
00
00
00
7c
c6
c6
c0
fc
c6
c0
c0
c0
c0
00
00
ENDCHAR
STARTCHAR U+0533
ENCODING 1331
SWIDTH 500 0
DWIDTH 8 0
BBX 8 16 0 -2
BITMAP 
00
00
00
00
78
cc
cc
cc
cc
7e
0d
0c
0c
0c
00
00
ENDCHAR
STARTCHAR U+0534
ENCODING 1332
SWIDTH 500 0
DWIDTH 8 0
BBX 8 16 0 -2
BITMAP 
00
00
00
00
78
cc
cc
0c
0c
0e
0d
0c
0c
0c
00
00
ENDCHAR
STARTCHAR U+0535
ENCODING 1333
SWIDTH 500 0
DWIDTH 8 0
BBX 8 16 0 -2
BITMAP 
00
00
00
00
c0
c0
fc
c6
c0
c0
c0
c6
c6
7c
00
00
ENDCHAR
STARTCHAR U+0536
ENCODING 1334
SWIDTH 500 0
DWIDTH 8 0
BBX 8 16 0 -2
BITMAP 
00
00
00
00
3c
66
66
66
66
3c
0c
18
30
fc
06
00
ENDCHAR
STARTCHAR U+0537
ENCODING 1335
SWIDTH 500 0
DWIDTH 8 0
BBX 8 16 0 -2
BITMAP 
00
00
00
00
c0
c0
c0
fc
c6
c0
c0
c0
c0
fc
06
00
ENDCHAR
STARTCHAR U+0538
ENCODING 1336
SWIDTH 500 0
DWIDTH 8 0
BBX 8 16 0 -2
BITMAP 
00
00
00
00
7c
c6
c6
c0
c0
c0
c0
c0
c0
fc
06
00
ENDCHAR
STARTCHAR U+0539
ENCODING 1337
SWIDTH 500 0
DWIDTH 8 0
BBX 8 16 0 -2
BITMAP 
00
00
00
00
78
cc
cc
df
d4
d4
d8
c0
c0
c0
00
00
ENDCHAR
STARTCHAR U+053A
ENCODING 1338
SWIDTH 500 0
DWIDTH 8 0
BBX 8 16 0 -2
BITMAP 
00
00
00
00
0c
0c
0c
0c
7f
cc
cc
cc
cc
78
00
00
ENDCHAR
STARTCHAR U+053B
ENCODING 1339
SWIDTH 500 0
DWIDTH 8 0
BBX 8 16 0 -2
BITMAP 
00
00
00
00
c0
c0
dc
e6
c6
c0
c0
c0
c0
c0
00
00
ENDCHAR
STARTCHAR U+053C
ENCODING 1340
SWIDTH 500 0
DWIDTH 8 0
BBX 8 16 0 -2
BITMAP 
00
00
00
00
c0
c0
c0
c0
c0
c0
c0
c0
c0
fc
06
00
ENDCHAR
STARTCHAR U+053D
ENCODING 1341
SWIDTH 500 0
DWIDTH 8 0
BBX 8 16 0 -2
BITMAP 
00
00
00
00
c0
c0
c0
fb
db
db
ce
c0
c0
c0
00
00
ENDCHAR
STARTCHAR U+053E
ENCODING 1342
SWIDTH 500 0
DWIDTH 8 0
BBX 8 16 0 -2
BITMAP 
00
00
00
00
fe
38
6c
c6
c6
c6
c6
c6
6c
38
00
00
ENDCHAR
STARTCHAR U+053F
ENCODING 1343
SWIDTH 500 0
DWIDTH 8 0
BBX 8 16 0 -2
BITMAP 
00
00
00
00
c6
c6
c6
c6
c6
c6
c6
7e
06
06
00
00
ENDCHAR
STARTCHAR U+0540
ENCODING 1344
SWIDTH 500 0
DWIDTH 8 0
BBX 8 16 0 -2
BITMAP 
00
00
00
00
18
30
30
18
30
60
c0
e0
38
0e
00
00
ENDCHAR
STARTCHAR U+0541
ENCODING 1345
SWIDTH 500 0
DWIDTH 8 0
BBX 8 16 0 -2
BITMAP 
00
00
00
00
3c
66
66
66
66
3c
6c
d8
d8
76
00
00
ENDCHAR
STARTCHAR U+0542
ENCODING 1346
SWIDTH 500 0
DWIDTH 8 0
BBX 8 16 0 -2
BITMAP 
00
00
00
00
78
cc
cc
0c
0c
0c
0c
0c
0c
0e
03
00
ENDCHAR
STARTCHAR U+0543
ENCODING 1347
SWIDTH 500 0
DWIDTH 8 0
BBX 8 16 0 -2
BITMAP 
00
00
00
00
0c
ec
38
6c
6c
c6
c6
c6
c6
fe
00
00
ENDCHAR
STARTCHAR U+0544
ENCODING 1348
SWIDTH 500 0
DWIDTH 8 0
BBX 8 16 0 -2
BITMAP 
00
00
00
00
cf
cd
cc
cc
cc
cc
cc
cc
cc
78
00
00
ENDCHAR
STARTCHAR U+0545
ENCODING 1349
SWIDTH 500 0
DWIDTH 8 0
BBX 8 16 0 -2
BITMAP 
00
00
00
00
3c
66
06
c6
fc
c6
06
06
66
3c
00
00
ENDCHAR
STARTCHAR U+0546
ENCODING 1350
SWIDTH 500 0
DWIDTH 8 0
BBX 8 16 0 -2
BITMAP 
00
00
00
00
c0
70
30
30
30
30
30
30
33
33
1e
00
ENDCHAR
STARTCHAR U+0547
ENCODING 1351
SWIDTH 500 0
DWIDTH 8 0
BBX 8 16 0 -2
BITMAP 
00
00
00
c0
7c
60
c0
c0
c6
c6
c6
c6
c6
7c
00
00
ENDCHAR
STARTCHAR U+0548
ENCODING 1352
SWIDTH 500 0
DWIDTH 8 0
BBX 8 16 0 -2
BITMAP 
00
00
00
00
7c
c6
c6
c6
c6
c6
c6
c6
c6
c6
00
00
ENDCHAR
STARTCHAR U+0549
ENCODING 1353
SWIDTH 500 0
DWIDTH 8 0
BBX 8 16 0 -2
BITMAP 
00
00
00
00
3c
66
66
66
66
3c
18
18
30
fe
00
00
ENDCHAR
STARTCHAR U+054A
ENCODING 1354
SWIDTH 500 0
DWIDTH 8 0
BBX 8 16 0 -2
BITMAP 
00
00
00
00
7e
db
db
db
db
1b
1b
03
03
03
00
00
ENDCHAR
STARTCHAR U+054B
ENCODING 1355
SWIDTH 500 0
DWIDTH 8 0
BBX 8 16 0 -2
BITMAP 
00
00
00
00
3c
66
66
66
66
34
1c
18
30
fc
06
00
ENDCHAR
STARTCHAR U+054C
ENCODING 1356
SWIDTH 500 0
DWIDTH 8 0
BBX 8 16 0 -2
BITMAP 
00
00
00
00
78
cc
cc
cf
cd
cc
cc
cc
cc
cc
00
00
ENDCHAR
STARTCHAR U+054D
ENCODING 1357
SWIDTH 500 0
DWIDTH 8 0
BBX 8 16 0 -2
BITMAP 
00
00
00
00
c6
c6
c6
c6
c6
c6
c6
c6
c6
7c
00
00
ENDCHAR
STARTCHAR U+054E
ENCODING 1358
SWIDTH 500 0
DWIDTH 8 0
BBX 8 16 0 -2
BITMAP 
00
00
00
00
cc
cc
cc
cc
cc
cc
cc
7c
0c
0e
03
00
ENDCHAR
STARTCHAR U+054F
ENCODING 1359
SWIDTH 500 0
DWIDTH 8 0
BBX 8 16 0 -2
BITMAP 
00
00
00
00
7c
c6
c6
c0
70
1c
06
c6
c6
7c
00
00
ENDCHAR
STARTCHAR U+0550
ENCODING 1360
SWIDTH 500 0
DWIDTH 8 0
BBX 8 16 0 -2
BITMAP 
00
00
00
00
7c
c6
c6
c0
c0
c0
c0
c0
c0
c0
00
00
ENDCHAR
STARTCHAR U+0551
ENCODING 1361
SWIDTH 500 0
DWIDTH 8 0
BBX 8 16 0 -2
BITMAP 
00
00
00
00
7c
c6
c6
c6
7c
c6
06
06
c6
7c
00
00
ENDCHAR
STARTCHAR U+0552
ENCODING 1362
SWIDTH 500 0
DWIDTH 8 0
BBX 8 16 0 -2
BITMAP 
00
00
00
00
c0
c0
d8
ec
cc
cc
c7
c0
c0
c0
00
00
ENDCHAR
STARTCHAR U+0553
ENCODING 1363
SWIDTH 500 0
DWIDTH 8 0
BBX 8 16 0 -2
BITMAP 
00
00
00
00
30
78
d4
d4
d4
d4
d4
d4
78
30
00
00
ENDCHAR
STARTCHAR U+0554
ENCODING 1364
SWIDTH 500 0
DWIDTH 8 0
BBX 8 16 0 -2
BITMAP 
00
00
00
00
1c
36
36
36
3c
30
fc
30
30
30
00
00
ENDCHAR
STARTCHAR U+0555
ENCODING 1365
SWIDTH 500 0
DWIDTH 8 0
BBX 8 16 0 -2
BITMAP 
00
00
00
00
7c
c6
c6
c6
c6
c6
c6
c6
c6
7c
00
00
ENDCHAR
STARTCHAR U+0556
ENCODING 1366
SWIDTH 500 0
DWIDTH 8 0
BBX 8 16 0 -2
BITMAP 
00
00
00
00
78
d8
d8
78
1e
1b
1b
1b
db
7e
00
00
ENDCHAR
STARTCHAR U+0559
ENCODING 1369
SWIDTH 500 0
DWIDTH 8 0
BBX 8 16 0 -2
BITMAP 
30
60
60
30
00
00
00
00
00
00
00
00
00
00
00
00
ENDCHAR
STARTCHAR U+055A
ENCODING 1370
SWIDTH 500 0
DWIDTH 8 0
BBX 8 16 0 -2
BITMAP 
60
30
30
60
00
00
00
00
00
00
00
00
00
00
00
00
ENDCHAR
STARTCHAR U+055B
ENCODING 1371
SWIDTH 500 0
DWIDTH 8 0
BBX 8 16 0 -2
BITMAP 
18
38
70
00
00
00
00
00
00
00
00
00
00
00
00
00
ENDCHAR
STARTCHAR U+055C
ENCODING 1372
SWIDTH 500 0
DWIDTH 8 0
BBX 8 16 0 -2
BITMAP 
1c
70
00
00
00
00
00
00
00
00
00
00
00
00
00
00
ENDCHAR
STARTCHAR U+055D
ENCODING 1373
SWIDTH 500 0
DWIDTH 8 0
BBX 8 16 0 -2
BITMAP 
60
30
18
00
00
00
00
00
00
00
00
00
00
00
00
00
ENDCHAR
STARTCHAR U+055E
ENCODING 1374
SWIDTH 500 0
DWIDTH 8 0
BBX 8 16 0 -2
BITMAP 
78
cc
d4
38
00
00
00
00
00
00
00
00
00
00
00
00
ENDCHAR
STARTCHAR U+055F
ENCODING 1375
SWIDTH 500 0
DWIDTH 8 0
BBX 8 16 0 -2
BITMAP 
70
d0
c0
7c
00
00
00
00
00
00
00
00
00
00
00
00
ENDCHAR
STARTCHAR U+0561
ENCODING 1377
SWIDTH 500 0
DWIDTH 8 0
BBX 8 16 0 -2
BITMAP 
00
00
00
00
00
00
db
db
db
db
db
db
db
77
00
00
ENDCHAR
STARTCHAR U+0562
ENCODING 1378
SWIDTH 500 0
DWIDTH 8 0
BBX 8 16 0 -2
BITMAP 
00
00
00
00
00
00
00
dc
e6
c6
c6
c0
fe
c0
c0
c0
ENDCHAR
STARTCHAR U+0563
ENCODING 1379
SWIDTH 500 0
DWIDTH 8 0
BBX 8 16 0 -2
BITMAP 
00
00
00
00
00
00
74
dc
cc
cc
cc
cc
7f
0c
0c
0c
ENDCHAR
STARTCHAR U+0564
ENCODING 1380
SWIDTH 500 0
DWIDTH 8 0
BBX 8 16 0 -2
BITMAP 
00
00
00
00
00
00
d8
ec
cc
cc
cc
cc
cc
cf
0c
0c
ENDCHAR
STARTCHAR U+0565
ENCODING 1381
SWIDTH 500 0
DWIDTH 8 0
BBX 8 16 0 -2
BITMAP 
00
00
00
00
00
c0
c0
c0
fe
c0
c6
c6
e6
dc
00
00
ENDCHAR
STARTCHAR U+0566
ENCODING 1382
SWIDTH 500 0
DWIDTH 8 0
BBX 8 16 0 -2
BITMAP 
00
00
00
00
00
00
74
dc
cc
cc
cc
cc
7c
0c
0c
0f
ENDCHAR
STARTCHAR U+0567
ENCODING 1383
SWIDTH 500 0
DWIDTH 8 0
BBX 8 16 0 -2
BITMAP 
00
00
00
00
c0
c0
fc
c0
c0
c0
c0
c0
c0
78
0c
00
ENDCHAR
STARTCHAR U+0568
ENCODING 1384
SWIDTH 500 0
DWIDTH 8 0
BBX 8 16 0 -2
BITMAP 
00
00
00
00
00
00
dc
e6
c6
c6
c6
c6
c6
c6
c0
fe
ENDCHAR
STARTCHAR U+0569
ENCODING 1385
SWIDTH 500 0
DWIDTH 8 0
BBX 8 16 0 -2
BITMAP 
00
00
00
00
00
00
d8
ec
cc
df
d4
d4
d8
c0
c0
c0
ENDCHAR
STARTCHAR U+056A
ENCODING 1386
SWIDTH 500 0
DWIDTH 8 0
BBX 8 16 0 -2
BITMAP 
00
00
00
00
0c
0c
0c
7f
cc
cc
cc
cc
cc
78
00
00
ENDCHAR
STARTCHAR U+056B
ENCODING 1387
SWIDTH 500 0
DWIDTH 8 0
BBX 8 16 0 -2
BITMAP 
00
00
00
00
c0
c0
dc
e6
c6
c6
c6
c6
c6
c6
c0
c0
ENDCHAR
STARTCHAR U+056C
ENCODING 1388
SWIDTH 500 0
DWIDTH 8 0
BBX 8 16 0 -2
BITMAP 
00
00
00
00
00
00
c0
c0
c0
c0
c0
c0
c0
c0
c0
fc
ENDCHAR
STARTCHAR U+056D
ENCODING 1389
SWIDTH 500 0
DWIDTH 8 0
BBX 8 16 0 -2
BITMAP 
00
00
00
00
c0
c0
c0
fb
db
db
db
db
ce
c0
c0
c0
ENDCHAR
STARTCHAR U+056E
ENCODING 1390
SWIDTH 500 0
DWIDTH 8 0
BBX 8 16 0 -2
BITMAP 
00
00
00
00
f0
18
0c
7f
cc
cc
cc
cc
cc
78
00
00
ENDCHAR
STARTCHAR U+056F
ENCODING 1391
SWIDTH 500 0
DWIDTH 8 0
BBX 8 16 0 -2
BITMAP 
00
00
00
00
c0
c0
c6
c6
c6
c6
c6
c6
c6
7e
06
06
ENDCHAR
STARTCHAR U+0570
ENCODING 1392
SWIDTH 500 0
DWIDTH 8 0
BBX 8 16 0 -2
BITMAP 
00
00
00
00
c0
c0
c0
dc
e6
c6
c6
c6
c6
c6
00
00
ENDCHAR
STARTCHAR U+0571
ENCODING 1393
SWIDTH 500 0
DWIDTH 8 0
BBX 8 16 0 -2
BITMAP 
00
00
00
00
18
30
18
7e
c6
c6
c6
c6
c6
7e
00
00
ENDCHAR
STARTCHAR U+0572
ENCODING 1394
SWIDTH 500 0
DWIDTH 8 0
BBX 8 16 0 -2
BITMAP 
00
00
00
00
00
00
d8
ec
cc
cc
cc
cc
cc
cc
0c
0f
ENDCHAR
STARTCHAR U+0573
ENCODING 1395
SWIDTH 500 0
DWIDTH 8 0
BBX 8 16 0 -2
BITMAP 
00
00
00
00
1e
33
30
ff
33
33
33
33
37
1d
00
00
ENDCHAR
STARTCHAR U+0574
ENCODING 1396
SWIDTH 500 0
DWIDTH 8 0
BBX 8 16 0 -2
BITMAP 
00
00
00
00
06
0d
0c
cc
cc
cc
cc
cc
dc
74
00
00
ENDCHAR
STARTCHAR U+0575
ENCODING 1397
SWIDTH 500 0
DWIDTH 8 0
BBX 8 16 0 -2
BITMAP 
00
00
00
00
00
00
1c
0c
0c
0c
0c
0c
0c
0c
d8
70
ENDCHAR
STARTCHAR U+0576
ENCODING 1398
SWIDTH 500 0
DWIDTH 8 0
BBX 8 16 0 -2
BITMAP 
00
00
00
00
7c
c6
c0
c6
c6
c6
c6
c6
ce
7a
00
00
ENDCHAR
STARTCHAR U+0577
ENCODING 1399
SWIDTH 500 0
DWIDTH 8 0
BBX 8 16 0 -2
BITMAP 
00
00
00
00
78
cc
0c
18
18
30
30
60
60
7f
00
00
ENDCHAR
STARTCHAR U+0578
ENCODING 1400
SWIDTH 500 0
DWIDTH 8 0
BBX 8 16 0 -2
BITMAP 
00
00
00
00
00
00
dc
e6
c6
c6
c6
c6
c6
c6
00
00
ENDCHAR
STARTCHAR U+0579
ENCODING 1401
SWIDTH 500 0
DWIDTH 8 0
BBX 8 16 0 -2
BITMAP 
00
00
00
00
30
60
30
18
18
30
30
60
60
7f
00
00
ENDCHAR
STARTCHAR U+057A
ENCODING 1402
SWIDTH 500 0
DWIDTH 8 0
BBX 8 16 0 -2
BITMAP 
00
00
00
00
00
00
db
db
db
db
db
db
db
77
03
03
ENDCHAR
STARTCHAR U+057B
ENCODING 1403
SWIDTH 500 0
DWIDTH 8 0
BBX 8 16 0 -2
BITMAP 
00
00
00
00
78
cc
cc
d8
68
30
30
60
60
7f
00
00
ENDCHAR
STARTCHAR U+057C
ENCODING 1404
SWIDTH 500 0
DWIDTH 8 0
BBX 8 16 0 -2
BITMAP 
00
00
00
00
00
00
d8
ec
cc
cc
cc
cc
cc
cf
00
00
ENDCHAR
STARTCHAR U+057D
ENCODING 1405
SWIDTH 500 0
DWIDTH 8 0
BBX 8 16 0 -2
BITMAP 
00
00
00
00
00
00
c6
c6
c6
c6
c6
c6
ce
7a
00
00
ENDCHAR
STARTCHAR U+057E
ENCODING 1406
SWIDTH 500 0
DWIDTH 8 0
BBX 8 16 0 -2
BITMAP 
00
00
00
00
0c
0c
0c
cc
cc
cc
cc
cc
dc
74
0c
0f
ENDCHAR
STARTCHAR U+057F
ENCODING 1407
SWIDTH 500 0
DWIDTH 8 0
BBX 8 16 0 -2
BITMAP 
00
00
00
00
00
00
da
dd
db
db
db
db
db
6b
00
00
ENDCHAR
STARTCHAR U+0580
ENCODING 1408
SWIDTH 500 0
DWIDTH 8 0
BBX 8 16 0 -2
BITMAP 
00
00
00
00
00
00
dc
e6
c6
c6
c6
c6
c6
c6
c0
c0
ENDCHAR
STARTCHAR U+0581
ENCODING 1409
SWIDTH 500 0
DWIDTH 8 0
BBX 8 16 0 -2
BITMAP 
00
00
00
00
00
00
7a
ce
c6
c6
c6
ce
7a
06
c6
7c
ENDCHAR
STARTCHAR U+0582
ENCODING 1410
SWIDTH 500 0
DWIDTH 8 0
BBX 8 16 0 -2
BITMAP 
00
00
00
00
00
00
38
18
18
18
18
18
18
1e
00
00
ENDCHAR
STARTCHAR U+0583
ENCODING 1411
SWIDTH 500 0
DWIDTH 8 0
BBX 8 16 0 -2
BITMAP 
00
00
00
00
18
18
da
dd
db
db
db
db
db
6b
18
18
ENDCHAR
STARTCHAR U+0584
ENCODING 1412
SWIDTH 500 0
DWIDTH 8 0
BBX 8 16 0 -2
BITMAP 
00
00
00
1e
33
30
30
fc
30
30
30
30
30
30
00
00
ENDCHAR
STARTCHAR U+0585
ENCODING 1413
SWIDTH 500 0
DWIDTH 8 0
BBX 8 16 0 -2
BITMAP 
00
00
00
00
00
00
7c
c6
c6
c6
c6
c6
c6
7c
00
00
ENDCHAR
STARTCHAR U+0586
ENCODING 1414
SWIDTH 500 0
DWIDTH 8 0
BBX 8 16 0 -2
BITMAP 
00
00
00
00
78
d8
d8
78
1e
1b
1b
1b
db
7e
18
18
ENDCHAR
STARTCHAR U+0587
ENCODING 1415
SWIDTH 500 0
DWIDTH 8 0
BBX 8 16 0 -2
BITMAP 
00
00
00
00
c0
c0
c0
cc
cc
cc
cc
cc
cc
7b
00
00
ENDCHAR
STARTCHAR U+0589
ENCODING 1417
SWIDTH 500 0
DWIDTH 8 0
BBX 8 16 0 -2
BITMAP 
00
00
00
00
00
00
38
38
00
00
00
38
38
00
00
00
ENDCHAR
STARTCHAR U+058A
ENCODING 1418
SWIDTH 500 0
DWIDTH 8 0
BBX 8 16 0 -2
BITMAP 
00
00
00
00
00
00
00
00
00
00
00
00
e6
7c
00
00
ENDCHAR
STARTCHAR U+0591
ENCODING 1425
SWIDTH 500 0
DWIDTH 8 0
BBX 8 16 0 -2
BITMAP 
00
00
00
00
00
00
00
00
00
00
00
18
18
3c
66
00
ENDCHAR
STARTCHAR U+0592
ENCODING 1426
SWIDTH 500 0
DWIDTH 8 0
BBX 8 16 0 -2
BITMAP 
00
00
38
00
ee
00
00
00
00
00
00
00
00
00
00
00
ENDCHAR
STARTCHAR U+0593
ENCODING 1427
SWIDTH 500 0
DWIDTH 8 0
BBX 8 16 0 -2
BITMAP 
1c
70
1c
70
1c
70
00
00
00
00
00
00
00
00
00
00
ENDCHAR
STARTCHAR U+0594
ENCODING 1428
SWIDTH 500 0
DWIDTH 8 0
BBX 8 16 0 -2
BITMAP 
00
38
00
38
00
00
00
00
00
00
00
00
00
00
00
00
ENDCHAR
STARTCHAR U+0595
ENCODING 1429
SWIDTH 500 0
DWIDTH 8 0
BBX 8 16 0 -2
BITMAP 
00
6c
60
6c
00
00
00
00
00
00
00
00
00
00
00
00
ENDCHAR
STARTCHAR U+0596
ENCODING 1430
SWIDTH 500 0
DWIDTH 8 0
BBX 8 16 0 -2
BITMAP 
00
00
00
00
00
00
00
00
00
00
00
00
30
30
1c
00
ENDCHAR
STARTCHAR U+0597
ENCODING 1431
SWIDTH 500 0
DWIDTH 8 0
BBX 8 16 0 -2
BITMAP 
18
3c
7e
3c
18
00
00
00
00
00
00
00
00
00
00
00
ENDCHAR
STARTCHAR U+0598
ENCODING 1432
SWIDTH 500 0
DWIDTH 8 0
BBX 8 16 0 -2
BITMAP 
00
6c
d6
da
6c
00
00
00
00
00
00
00
00
00
00
00
ENDCHAR
STARTCHAR U+0599
ENCODING 1433
SWIDTH 500 0
DWIDTH 8 0
BBX 8 16 0 -2
BITMAP 
00
00
c0
60
60
00
00
00
00
00
00
00
00
00
00
00
ENDCHAR
STARTCHAR U+059A
ENCODING 1434
SWIDTH 500 0
DWIDTH 8 0
BBX 8 16 0 -2
BITMAP 
00
00
00
00
00
00
00
00
00
00
00
00
06
0c
06
00
ENDCHAR
STARTCHAR U+059B
ENCODING 1435
SWIDTH 500 0
DWIDTH 8 0
BBX 8 16 0 -2
BITMAP 
00
00
00
00
00
00
00
00
00
00
00
00
e8
e8
18
f0
ENDCHAR
STARTCHAR U+059C
ENCODING 1436
SWIDTH 500 0
DWIDTH 8 0
BBX 8 16 0 -2
BITMAP 
00
1c
30
30
00
00
00
00
00
00
00
00
00
00
00
00
ENDCHAR
STARTCHAR U+059D
ENCODING 1437
SWIDTH 500 0
DWIDTH 8 0
BBX 8 16 0 -2
BITMAP 
00
00
07
0c
0c
00
00
00
00
00
00
00
00
00
00
00
ENDCHAR
STARTCHAR U+059E
ENCODING 1438
SWIDTH 500 0
DWIDTH 8 0
BBX 8 16 0 -2
BITMAP 
00
00
3b
6c
6c
00
00
00
00
00
00
00
00
00
00
00
ENDCHAR
STARTCHAR U+059F
ENCODING 1439
SWIDTH 500 0
DWIDTH 8 0
BBX 8 16 0 -2
BITMAP 
00
c6
ad
c6
6c
00
00
00
00
00
00
00
00
00
00
00
ENDCHAR
STARTCHAR U+05A0
ENCODING 1440
SWIDTH 500 0
DWIDTH 8 0
BBX 8 16 0 -2
BITMAP 
00
06
0d
06
0c
00
00
00
00
00
00
00
00
00
00
00
ENDCHAR
STARTCHAR U+05A1
ENCODING 1441
SWIDTH 500 0
DWIDTH 8 0
BBX 8 16 0 -2
BITMAP 
00
00
00
d0
e0
80
00
00
00
00
00
00
00
00
00
00
ENDCHAR
STARTCHAR U+05A3
ENCODING 1443
SWIDTH 500 0
DWIDTH 8 0
BBX 8 16 0 -2
BITMAP 
00
00
00
00
00
00
00
00
00
00
00
00
18
18
78
00
ENDCHAR
STARTCHAR U+05A4
ENCODING 1444
SWIDTH 500 0
DWIDTH 8 0
BBX 8 16 0 -2
BITMAP 
00
00
00
00
00
00
00
00
00
00
00
00
18
30
18
00
ENDCHAR
STARTCHAR U+05A5
ENCODING 1445
SWIDTH 500 0
DWIDTH 8 0
BBX 8 16 0 -2
BITMAP 
00
00
00
00
00
00
00
00
00
00
00
00
18
18
70
00
ENDCHAR
STARTCHAR U+05A6
ENCODING 1446
SWIDTH 500 0
DWIDTH 8 0
BBX 8 16 0 -2
BITMAP 
00
00
00
00
00
00
00
00
00
00
00
00
6c
6c
d8
00
ENDCHAR
STARTCHAR U+05A7
ENCODING 1447
SWIDTH 500 0
DWIDTH 8 0
BBX 8 16 0 -2
BITMAP 
00
00
00
00
00
00
00
00
00
00
00
38
60
38
0c
38
ENDCHAR
STARTCHAR U+05A8
ENCODING 1448
SWIDTH 500 0
DWIDTH 8 0
BBX 8 16 0 -2
BITMAP 
00
00
70
18
18
00
00
00
00
00
00
00
00
00
00
00
ENDCHAR
STARTCHAR U+05A9
ENCODING 1449
SWIDTH 500 0
DWIDTH 8 0
BBX 8 16 0 -2
BITMAP 
00
60
d0
60
30
00
00
00
00
00
00
00
00
00
00
00
ENDCHAR
STARTCHAR U+05AA
ENCODING 1450
SWIDTH 500 0
DWIDTH 8 0
BBX 8 16 0 -2
BITMAP 
00
00
00
00
00
00
00
00
00
00
00
00
66
3c
18
18
ENDCHAR
STARTCHAR U+05AB
ENCODING 1451
SWIDTH 500 0
DWIDTH 8 0
BBX 8 16 0 -2
BITMAP 
00
30
60
30
00
00
00
00
00
00
00
00
00
00
00
00
ENDCHAR
STARTCHAR U+05AC
ENCODING 1452
SWIDTH 500 0
DWIDTH 8 0
BBX 8 16 0 -2
BITMAP 
00
0c
0c
3c
00
00
00
00
00
00
00
00
00
00
00
00
ENDCHAR
STARTCHAR U+05AD
ENCODING 1453
SWIDTH 500 0
DWIDTH 8 0
BBX 8 16 0 -2
BITMAP 
00
00
00
00
00
00
00
00
00
00
00
00
0c
0c
07
00
ENDCHAR
STARTCHAR U+05AE
ENCODING 1454
SWIDTH 500 0
DWIDTH 8 0
BBX 8 16 0 -2
BITMAP 
00
d8
a8
a8
b0
00
00
00
00
00
00
00
00
00
00
00
ENDCHAR
STARTCHAR U+05AF
ENCODING 1455
SWIDTH 500 0
DWIDTH 8 0
BBX 8 16 0 -2
BITMAP 
00
38
6c
6c
38
00
00
00
00
00
00
00
00
00
00
00
ENDCHAR
STARTCHAR U+05B0
ENCODING 1456
SWIDTH 500 0
DWIDTH 8 0
BBX 8 16 0 -2
BITMAP 
00
00
00
00
00
00
00
00
00
00
00
00
38
00
38
00
ENDCHAR
STARTCHAR U+05B1
ENCODING 1457
SWIDTH 500 0
DWIDTH 8 0
BBX 8 16 0 -2
BITMAP 
00
00
00
00
00
00
00
00
00
00
00
00
6a
00
36
00
ENDCHAR
STARTCHAR U+05B2
ENCODING 1458
SWIDTH 500 0
DWIDTH 8 0
BBX 8 16 0 -2
BITMAP 
00
00
00
00
00
00
00
00
00
00
00
00
7a
00
06
00
ENDCHAR
STARTCHAR U+05B3
ENCODING 1459
SWIDTH 500 0
DWIDTH 8 0
BBX 8 16 0 -2
BITMAP 
00
00
00
00
00
00
00
00
00
00
00
00
7a
30
36
00
ENDCHAR
STARTCHAR U+05B4
ENCODING 1460
SWIDTH 500 0
DWIDTH 8 0
BBX 8 16 0 -2
BITMAP 
00
00
00
00
00
00
00
00
00
00
00
00
38
38
00
00
ENDCHAR
STARTCHAR U+05B5
ENCODING 1461
SWIDTH 500 0
DWIDTH 8 0
BBX 8 16 0 -2
BITMAP 
00
00
00
00
00
00
00
00
00
00
00
00
ee
ee
00
00
ENDCHAR
STARTCHAR U+05B6
ENCODING 1462
SWIDTH 500 0
DWIDTH 8 0
BBX 8 16 0 -2
BITMAP 
00
00
00
00
00
00
00
00
00
00
00
00
00
ee
00
38
ENDCHAR
STARTCHAR U+05B7
ENCODING 1463
SWIDTH 500 0
DWIDTH 8 0
BBX 8 16 0 -2
BITMAP 
00
00
00
00
00
00
00
00
00
00
00
00
00
7c
00
00
ENDCHAR
STARTCHAR U+05B8
ENCODING 1464
SWIDTH 500 0
DWIDTH 8 0
BBX 8 16 0 -2
BITMAP 
00
00
00
00
00
00
00
00
00
00
00
00
00
7e
18
18
ENDCHAR
STARTCHAR U+05B9
ENCODING 1465
SWIDTH 500 0
DWIDTH 8 0
BBX 8 16 0 -2
BITMAP 
00
00
70
70
00
00
00
00
00
00
00
00
00
00
00
00
ENDCHAR
STARTCHAR U+05BB
ENCODING 1467
SWIDTH 500 0
DWIDTH 8 0
BBX 8 16 0 -2
BITMAP 
00
00
00
00
00
00
00
00
00
00
00
00
60
18
06
00
ENDCHAR
STARTCHAR U+05BC
ENCODING 1468
SWIDTH 500 0
DWIDTH 8 0
BBX 8 16 0 -2
BITMAP 
00
00
00
00
00
00
00
00
38
00
00
00
00
00
00
00
ENDCHAR
STARTCHAR U+05BD
ENCODING 1469
SWIDTH 500 0
DWIDTH 8 0
BBX 8 16 0 -2
BITMAP 
00
00
00
00
00
00
00
00
00
00
00
00
18
18
18
00
ENDCHAR
STARTCHAR U+05BE
ENCODING 1470
SWIDTH 500 0
DWIDTH 8 0
BBX 8 16 0 -2
BITMAP 
00
00
00
00
7e
fc
00
00
00
00
00
00
00
00
00
00
ENDCHAR
STARTCHAR U+05BF
ENCODING 1471
SWIDTH 500 0
DWIDTH 8 0
BBX 8 16 0 -2
BITMAP 
00
00
00
7c
00
00
00
00
00
00
00
00
00
00
00
00
ENDCHAR
STARTCHAR U+05C0
ENCODING 1472
SWIDTH 500 0
DWIDTH 8 0
BBX 8 16 0 -2
BITMAP 
00
00
00
00
00
00
00
30
30
30
30
30
30
00
00
00
ENDCHAR
STARTCHAR U+05C1
ENCODING 1473
SWIDTH 500 0
DWIDTH 8 0
BBX 8 16 0 -2
BITMAP 
00
00
0e
0e
00
00
00
00
00
00
00
00
00
00
00
00
ENDCHAR
STARTCHAR U+05C2
ENCODING 1474
SWIDTH 500 0
DWIDTH 8 0
BBX 8 16 0 -2
BITMAP 
00
00
e0
e0
00
00
00
00
00
00
00
00
00
00
00
00
ENDCHAR
STARTCHAR U+05C3
ENCODING 1475
SWIDTH 500 0
DWIDTH 8 0
BBX 8 16 0 -2
BITMAP 
00
00
00
00
00
00
00
30
30
00
00
30
30
00
00
00
ENDCHAR
STARTCHAR U+05C4
ENCODING 1476
SWIDTH 500 0
DWIDTH 8 0
BBX 8 16 0 -2
BITMAP 
00
00
38
38
00
00
00
00
00
00
00
00
00
00
00
00
ENDCHAR
STARTCHAR U+05D0
ENCODING 1488
SWIDTH 500 0
DWIDTH 8 0
BBX 8 16 0 -2
BITMAP 
00
00
00
00
00
ce
c6
66
36
6c
d8
cc
c6
c6
00
00
ENDCHAR
STARTCHAR U+05D1
ENCODING 1489
SWIDTH 500 0
DWIDTH 8 0
BBX 8 16 0 -2
BITMAP 
00
00
00
00
00
fc
0c
0c
0c
0c
0c
0c
0c
ff
00
00
ENDCHAR
STARTCHAR U+05D2
ENCODING 1490
SWIDTH 500 0
DWIDTH 8 0
BBX 8 16 0 -2
BITMAP 
00
00
00
00
00
70
18
18
18
0c
1c
34
66
c6
00
00
ENDCHAR
STARTCHAR U+05D3
ENCODING 1491
SWIDTH 500 0
DWIDTH 8 0
BBX 8 16 0 -2
BITMAP 
00
00
00
00
00
fe
0c
0c
0c
0c
0c
0c
0c
0c
00
00
ENDCHAR
STARTCHAR U+05D4
ENCODING 1492
SWIDTH 500 0
DWIDTH 8 0
BBX 8 16 0 -2
BITMAP 
00
00
00
00
00
fe
06
06
66
66
66
66
66
66
00
00
ENDCHAR
STARTCHAR U+05D5
ENCODING 1493
SWIDTH 500 0
DWIDTH 8 0
BBX 8 16 0 -2
BITMAP 
00
00
00
00
00
78
18
18
18
18
18
18
18
18
00
00
ENDCHAR
STARTCHAR U+05D6
ENCODING 1494
SWIDTH 500 0
DWIDTH 8 0
BBX 8 16 0 -2
BITMAP 
00
00
00
00
00
70
1c
1a
18
18
18
18
18
18
00
00
ENDCHAR
STARTCHAR U+05D7
ENCODING 1495
SWIDTH 500 0
DWIDTH 8 0
BBX 8 16 0 -2
BITMAP 
00
00
00
00
00
fe
66
66
66
66
66
66
66
66
00
00
ENDCHAR
STARTCHAR U+05D8
ENCODING 1496
SWIDTH 500 0
DWIDTH 8 0
BBX 8 16 0 -2
BITMAP 
00
00
00
00
00
ce
da
c6
c6
c6
c6
c6
c6
fe
00
00
ENDCHAR
STARTCHAR U+05D9
ENCODING 1497
SWIDTH 500 0
DWIDTH 8 0
BBX 8 16 0 -2
BITMAP 
00
00
00
00
00
78
18
18
18
00
00
00
00
00
00
00
ENDCHAR
STARTCHAR U+05DA
ENCODING 1498
SWIDTH 500 0
DWIDTH 8 0
BBX 8 16 0 -2
BITMAP 
00
00
00
00
00
fe
06
06
06
06
06
06
06
06
06
06
ENDCHAR
STARTCHAR U+05DB
ENCODING 1499
SWIDTH 500 0
DWIDTH 8 0
BBX 8 16 0 -2
BITMAP 
00
00
00
00
00
fe
06
06
06
06
06
06
06
fc
00
00
ENDCHAR
STARTCHAR U+05DC
ENCODING 1500
SWIDTH 500 0
DWIDTH 8 0
BBX 8 16 0 -2
BITMAP 
00
00
00
60
60
7e
06
06
06
06
0c
0c
18
70
00
00
ENDCHAR
STARTCHAR U+05DD
ENCODING 1501
SWIDTH 500 0
DWIDTH 8 0
BBX 8 16 0 -2
BITMAP 
00
00
00
00
00
fe
66
66
66
66
66
66
66
7e
00
00
ENDCHAR
STARTCHAR U+05DE
ENCODING 1502
SWIDTH 500 0
DWIDTH 8 0
BBX 8 16 0 -2
BITMAP 
00
00
00
00
00
d8
d8
74
34
66
66
c3
c3
df
00
00
ENDCHAR
STARTCHAR U+05DF
ENCODING 1503
SWIDTH 500 0
DWIDTH 8 0
BBX 8 16 0 -2
BITMAP 
00
00
00
00
00
78
18
18
18
18
18
18
18
18
18
18
ENDCHAR
STARTCHAR U+05E0
ENCODING 1504
SWIDTH 500 0
DWIDTH 8 0
BBX 8 16 0 -2
BITMAP 
00
00
00
00
00
3c
0c
0c
0c
0c
0c
0c
0c
7c
00
00
ENDCHAR
STARTCHAR U+05E1
ENCODING 1505
SWIDTH 500 0
DWIDTH 8 0
BBX 8 16 0 -2
BITMAP 
00
00
00
00
00
fe
c6
c6
c6
c6
c6
c6
cc
f8
00
00
ENDCHAR
STARTCHAR U+05E2
ENCODING 1506
SWIDTH 500 0
DWIDTH 8 0
BBX 8 16 0 -2
BITMAP 
00
00
00
00
00
36
36
36
36
36
36
36
36
fe
00
00
ENDCHAR
STARTCHAR U+05E3
ENCODING 1507
SWIDTH 500 0
DWIDTH 8 0
BBX 8 16 0 -2
BITMAP 
00
00
00
00
00
fe
c6
c6
c6
f6
06
06
06
06
06
06
ENDCHAR
STARTCHAR U+05E4
ENCODING 1508
SWIDTH 500 0
DWIDTH 8 0
BBX 8 16 0 -2
BITMAP 
00
00
00
00
00
fe
c6
c6
c6
f6
06
06
06
fe
00
00
ENDCHAR
STARTCHAR U+05E5
ENCODING 1509
SWIDTH 500 0
DWIDTH 8 0
BBX 8 16 0 -2
BITMAP 
00
00
00
00
00
66
66
6c
68
70
60
60
60
60
60
60
ENDCHAR
STARTCHAR U+05E6
ENCODING 1510
SWIDTH 500 0
DWIDTH 8 0
BBX 8 16 0 -2
BITMAP 
00
00
00
00
00
c6
c6
6c
38
18
0c
06
06
fe
00
00
ENDCHAR
STARTCHAR U+05E7
ENCODING 1511
SWIDTH 500 0
DWIDTH 8 0
BBX 8 16 0 -2
BITMAP 
00
00
00
00
00
fe
66
66
6c
6c
68
60
60
60
60
60
ENDCHAR
STARTCHAR U+05E8
ENCODING 1512
SWIDTH 500 0
DWIDTH 8 0
BBX 8 16 0 -2
BITMAP 
00
00
00
00
00
fe
06
06
06
06
06
06
06
06
00
00
ENDCHAR
STARTCHAR U+05E9
ENCODING 1513
SWIDTH 500 0
DWIDTH 8 0
BBX 8 16 0 -2
BITMAP 
00
00
00
00
00
db
db
db
db
db
db
db
db
ff
00
00
ENDCHAR
STARTCHAR U+05EA
ENCODING 1514
SWIDTH 500 0
DWIDTH 8 0
BBX 8 16 0 -2
BITMAP 
00
00
00
00
00
7e
66
66
66
66
66
66
66
e6
00
00
ENDCHAR
STARTCHAR U+05F0
ENCODING 1520
SWIDTH 500 0
DWIDTH 8 0
BBX 8 16 0 -2
BITMAP 
00
00
00
00
00
00
ee
66
66
66
66
66
66
00
00
00
ENDCHAR
STARTCHAR U+05F1
ENCODING 1521
SWIDTH 500 0
DWIDTH 8 0
BBX 8 16 0 -2
BITMAP 
00
00
00
00
00
00
ee
66
66
06
06
06
06
00
00
00
ENDCHAR
STARTCHAR U+05F2
ENCODING 1522
SWIDTH 500 0
DWIDTH 8 0
BBX 8 16 0 -2
BITMAP 
00
00
00
00
00
00
ee
66
66
00
00
00
00
00
00
00
ENDCHAR
STARTCHAR U+05F3
ENCODING 1523
SWIDTH 500 0
DWIDTH 8 0
BBX 8 16 0 -2
BITMAP 
00
00
00
00
00
00
18
30
00
00
00
00
00
00
00
00
ENDCHAR
STARTCHAR U+05F4
ENCODING 1524
SWIDTH 500 0
DWIDTH 8 0
BBX 8 16 0 -2
BITMAP 
00
00
00
00
00
00
6c
d8
00
00
00
00
00
00
00
00
ENDCHAR
STARTCHAR U+060C
ENCODING 1548
SWIDTH 500 0
DWIDTH 8 0
BBX 8 16 0 -2
BITMAP 
00
00
00
00
00
18
30
38
38
00
00
00
00
00
00
00
ENDCHAR
STARTCHAR U+061B
ENCODING 1563
SWIDTH 500 0
DWIDTH 8 0
BBX 8 16 0 -2
BITMAP 
00
00
00
00
00
18
30
38
00
38
00
00
00
00
00
00
ENDCHAR
STARTCHAR U+061F
ENCODING 1567
SWIDTH 500 0
DWIDTH 8 0
BBX 8 16 0 -2
BITMAP 
00
7e
c3
c0
60
30
18
18
00
18
00
00
00
00
00
00
ENDCHAR
STARTCHAR U+0621
ENCODING 1569
SWIDTH 500 0
DWIDTH 8 0
BBX 8 16 0 -2
BITMAP 
00
00
00
00
00
1e
30
36
18
30
00
00
00
00
00
00
ENDCHAR
STARTCHAR U+0622
ENCODING 1570
SWIDTH 500 0
DWIDTH 8 0
BBX 8 16 0 -2
BITMAP 
3e
e0
18
1c
1c
18
18
18
18
00
00
00
00
00
00
00
ENDCHAR
STARTCHAR U+0623
ENCODING 1571
SWIDTH 500 0
DWIDTH 8 0
BBX 8 16 0 -2
BITMAP 
70
c0
6c
ce
0c
0c
0c
0c
0c
00
00
00
00
00
00
00
ENDCHAR
STARTCHAR U+0624
ENCODING 1572
SWIDTH 500 0
DWIDTH 8 0
BBX 8 16 0 -2
BITMAP 
00
70
c0
70
c0
0e
1b
1b
1f
03
06
cc
78
00
00
00
ENDCHAR
STARTCHAR U+0625
ENCODING 1573
SWIDTH 500 0
DWIDTH 8 0
BBX 8 16 0 -2
BITMAP 
00
00
0c
0e
0c
0c
74
cc
6c
c0
00
00
00
00
00
00
ENDCHAR
STARTCHAR U+0626
ENCODING 1574
SWIDTH 500 0
DWIDTH 8 0
BBX 8 16 0 -2
BITMAP 
00
00
00
07
0c
06
0c
00
1c
d8
9c
8c
f8
00
00
00
ENDCHAR
STARTCHAR U+0627
ENCODING 1575
SWIDTH 500 0
DWIDTH 8 0
BBX 8 16 0 -2
BITMAP 
00
30
38
38
30
30
30
30
30
00
00
00
00
00
00
00
ENDCHAR
STARTCHAR U+0628
ENCODING 1576
SWIDTH 500 0
DWIDTH 8 0
BBX 8 16 0 -2
BITMAP 
00
00
00
00
00
06
c3
83
fe
00
00
30
00
00
00
00
ENDCHAR
STARTCHAR U+0629
ENCODING 1577
SWIDTH 500 0
DWIDTH 8 0
BBX 8 16 0 -2
BITMAP 
00
36
00
00
1c
36
33
33
1e
00
00
00
00
00
00
00
ENDCHAR
STARTCHAR U+062A
ENCODING 1578
SWIDTH 500 0
DWIDTH 8 0
BBX 8 16 0 -2
BITMAP 
00
00
6c
00
00
06
c3
83
fe
00
00
00
00
00
00
00
ENDCHAR
STARTCHAR U+062B
ENCODING 1579
SWIDTH 500 0
DWIDTH 8 0
BBX 8 16 0 -2
BITMAP 
30
00
6c
00
00
06
c3
83
fe
00
00
00
00
00
00
00
ENDCHAR
STARTCHAR U+062C
ENCODING 1580
SWIDTH 500 0
DWIDTH 8 0
BBX 8 16 0 -2
BITMAP 
00
00
00
00
00
00
fc
67
c0
80
98
80
c3
7e
00
00
ENDCHAR
STARTCHAR U+062D
ENCODING 1581
SWIDTH 500 0
DWIDTH 8 0
BBX 8 16 0 -2
BITMAP 
00
00
00
00
00
00
fc
67
c0
80
80
80
c3
7e
00
00
ENDCHAR
STARTCHAR U+062E
ENCODING 1582
SWIDTH 500 0
DWIDTH 8 0
BBX 8 16 0 -2
BITMAP 
00
00
00
30
00
00
fc
67
c0
80
80
80
c3
7e
00
00
ENDCHAR
STARTCHAR U+062F
ENCODING 1583
SWIDTH 500 0
DWIDTH 8 0
BBX 8 16 0 -2
BITMAP 
00
00
00
00
0c
06
03
63
7e
00
00
00
00
00
00
00
ENDCHAR
STARTCHAR U+0630
ENCODING 1584
SWIDTH 500 0
DWIDTH 8 0
BBX 8 16 0 -2
BITMAP 
00
00
30
00
0c
06
03
63
7e
00
00
00
00
00
00
00
ENDCHAR
STARTCHAR U+0631
ENCODING 1585
SWIDTH 500 0
DWIDTH 8 0
BBX 8 16 0 -2
BITMAP 
00
00
00
00
00
00
06
03
03
03
06
cc
78
00
00
00
ENDCHAR
STARTCHAR U+0632
ENCODING 1586
SWIDTH 500 0
DWIDTH 8 0
BBX 8 16 0 -2
BITMAP 
00
00
00
18
00
00
06
03
03
03
06
cc
78
00
00
00
ENDCHAR
STARTCHAR U+0633
ENCODING 1587
SWIDTH 500 0
DWIDTH 8 0
BBX 8 16 0 -2
BITMAP 
00
00
00
00
00
06
b3
db
f6
c0
c0
80
00
00
00
00
ENDCHAR
STARTCHAR U+0634
ENCODING 1588
SWIDTH 500 0
DWIDTH 8 0
BBX 8 16 0 -2
BITMAP 
00
60
00
d8
00
06
b3
db
f6
c0
c0
80
00
00
00
00
ENDCHAR
STARTCHAR U+0635
ENCODING 1589
SWIDTH 500 0
DWIDTH 8 0
BBX 8 16 0 -2
BITMAP 
00
00
00
00
00
1e
b3
e3
fe
c0
c0
80
00
00
00
00
ENDCHAR
STARTCHAR U+0636
ENCODING 1590
SWIDTH 500 0
DWIDTH 8 0
BBX 8 16 0 -2
BITMAP 
00
00
00
60
00
1e
b3
e3
fe
c0
c0
80
00
00
00
00
ENDCHAR
STARTCHAR U+0637
ENCODING 1591
SWIDTH 500 0
DWIDTH 8 0
BBX 8 16 0 -2
BITMAP 
00
60
60
60
60
6e
73
63
fe
00
00
00
00
00
00
00
ENDCHAR
STARTCHAR U+0638
ENCODING 1592
SWIDTH 500 0
DWIDTH 8 0
BBX 8 16 0 -2
BITMAP 
00
60
6c
60
60
6e
73
63
fe
00
00
00
00
00
00
00
ENDCHAR
STARTCHAR U+0639
ENCODING 1593
SWIDTH 500 0
DWIDTH 8 0
BBX 8 16 0 -2
BITMAP 
00
00
00
1e
33
30
18
3f
60
c0
80
80
80
c3
7e
00
ENDCHAR
STARTCHAR U+063A
ENCODING 1594
SWIDTH 500 0
DWIDTH 8 0
BBX 8 16 0 -2
BITMAP 
00
0c
00
1e
33
30
18
3f
60
c0
80
80
80
c3
7e
00
ENDCHAR
STARTCHAR U+0640
ENCODING 1600
SWIDTH 500 0
DWIDTH 8 0
BBX 8 16 0 -2
BITMAP 
00
00
00
00
00
00
00
00
ff
00
00
00
00
00
00
00
ENDCHAR
STARTCHAR U+0641
ENCODING 1601
SWIDTH 500 0
DWIDTH 8 0
BBX 8 16 0 -2
BITMAP 
00
0c
00
00
1e
1b
cd
87
fe
00
00
00
00
00
00
00
ENDCHAR
STARTCHAR U+0642
ENCODING 1602
SWIDTH 500 0
DWIDTH 8 0
BBX 8 16 0 -2
BITMAP 
00
00
36
00
00
1e
1b
cd
87
83
86
fc
00
00
00
00
ENDCHAR
STARTCHAR U+0643
ENCODING 1603
SWIDTH 500 0
DWIDTH 8 0
BBX 8 16 0 -2
BITMAP 
00
03
1b
33
1b
c3
83
83
fe
00
00
00
00
00
00
00
ENDCHAR
STARTCHAR U+0644
ENCODING 1604
SWIDTH 500 0
DWIDTH 8 0
BBX 8 16 0 -2
BITMAP 
00
03
03
03
03
03
03
c3
83
83
86
fc
00
00
00
00
ENDCHAR
STARTCHAR U+0645
ENCODING 1605
SWIDTH 500 0
DWIDTH 8 0
BBX 8 16 0 -2
BITMAP 
00
00
00
00
1e
33
1b
ff
80
80
c0
c0
60
60
00
00
ENDCHAR
STARTCHAR U+0646
ENCODING 1606
SWIDTH 500 0
DWIDTH 8 0
BBX 8 16 0 -2
BITMAP 
00
00
00
18
00
00
06
c3
83
83
86
fc
00
00
00
00
ENDCHAR
STARTCHAR U+0647
ENCODING 1607
SWIDTH 500 0
DWIDTH 8 0
BBX 8 16 0 -2
BITMAP 
00
00
00
00
1c
36
33
33
1e
00
00
00
00
00
00
00
ENDCHAR
STARTCHAR U+0648
ENCODING 1608
SWIDTH 500 0
DWIDTH 8 0
BBX 8 16 0 -2
BITMAP 
00
00
00
00
00
0e
1b
1b
1f
03
06
cc
78
00
00
00
ENDCHAR
STARTCHAR U+0649
ENCODING 1609
SWIDTH 500 0
DWIDTH 8 0
BBX 8 16 0 -2
BITMAP 
00
00
00
00
00
0e
1b
18
ce
83
83
86
fc
00
00
00
ENDCHAR
STARTCHAR U+064A
ENCODING 1610
SWIDTH 500 0
DWIDTH 8 0
BBX 8 16 0 -2
BITMAP 
00
00
00
00
00
0e
1b
18
ce
83
83
86
fc
00
d8
00
ENDCHAR
STARTCHAR U+064B
ENCODING 1611
SWIDTH 500 0
DWIDTH 8 0
BBX 8 16 0 -2
BITMAP 
1c
78
e0
1c
78
e0
00
00
00
00
00
00
00
00
00
00
ENDCHAR
STARTCHAR U+064C
ENCODING 1612
SWIDTH 500 0
DWIDTH 8 0
BBX 8 16 0 -2
BITMAP 
00
76
76
36
36
6c
00
00
00
00
00
00
00
00
00
00
ENDCHAR
STARTCHAR U+064D
ENCODING 1613
SWIDTH 500 0
DWIDTH 8 0
BBX 8 16 0 -2
BITMAP 
00
00
00
00
00
00
00
00
00
1c
78
e0
1c
78
e0
00
ENDCHAR
STARTCHAR U+064E
ENCODING 1614
SWIDTH 500 0
DWIDTH 8 0
BBX 8 16 0 -2
BITMAP 
00
1c
78
e0
00
00
00
00
00
00
00
00
00
00
00
00
ENDCHAR
STARTCHAR U+064F
ENCODING 1615
SWIDTH 500 0
DWIDTH 8 0
BBX 8 16 0 -2
BITMAP 
00
38
38
18
18
30
00
00
00
00
00
00
00
00
00
00
ENDCHAR
STARTCHAR U+0650
ENCODING 1616
SWIDTH 500 0
DWIDTH 8 0
BBX 8 16 0 -2
BITMAP 
00
00
00
00
00
00
00
00
00
00
00
00
1c
78
e0
00
ENDCHAR
STARTCHAR U+0651
ENCODING 1617
SWIDTH 500 0
DWIDTH 8 0
BBX 8 16 0 -2
BITMAP 
66
db
76
00
00
00
00
00
00
00
00
00
00
00
00
00
ENDCHAR
STARTCHAR U+0652
ENCODING 1618
SWIDTH 500 0
DWIDTH 8 0
BBX 8 16 0 -2
BITMAP 
00
00
00
00
0e
1b
33
36
1c
00
00
00
00
00
00
00
ENDCHAR
STARTCHAR U+0660
ENCODING 1632
SWIDTH 500 0
DWIDTH 8 0
BBX 8 16 0 -2
BITMAP 
00
00
00
00
00
30
78
30
00
00
00
00
00
00
00
00
ENDCHAR
STARTCHAR U+0661
ENCODING 1633
SWIDTH 500 0
DWIDTH 8 0
BBX 8 16 0 -2
BITMAP 
00
60
60
60
30
30
30
18
18
18
0c
0c
0c
0c
00
00
ENDCHAR
STARTCHAR U+0662
ENCODING 1634
SWIDTH 500 0
DWIDTH 8 0
BBX 8 16 0 -2
BITMAP 
00
86
86
8c
cc
d8
70
30
30
18
18
18
18
18
00
00
ENDCHAR
STARTCHAR U+0663
ENCODING 1635
SWIDTH 500 0
DWIDTH 8 0
BBX 8 16 0 -2
BITMAP 
00
b6
b6
b4
fc
d8
c0
c0
60
60
60
30
30
30
00
00
ENDCHAR
STARTCHAR U+0664
ENCODING 1636
SWIDTH 500 0
DWIDTH 8 0
BBX 8 16 0 -2
BITMAP 
00
00
0c
1c
30
60
30
18
30
60
c0
c0
6e
7c
00
00
ENDCHAR
STARTCHAR U+0665
ENCODING 1637
SWIDTH 500 0
DWIDTH 8 0
BBX 8 16 0 -2
BITMAP 
00
00
38
38
6c
6c
c6
c6
c6
c6
6c
38
38
00
00
00
ENDCHAR
STARTCHAR U+0666
ENCODING 1638
SWIDTH 500 0
DWIDTH 8 0
BBX 8 16 0 -2
BITMAP 
00
c0
c0
7c
0c
0c
0c
0c
0c
0e
06
06
06
06
00
00
ENDCHAR
STARTCHAR U+0667
ENCODING 1639
SWIDTH 500 0
DWIDTH 8 0
BBX 8 16 0 -2
BITMAP 
00
00
86
86
86
cc
cc
cc
68
68
68
30
30
30
00
00
ENDCHAR
STARTCHAR U+0668
ENCODING 1640
SWIDTH 500 0
DWIDTH 8 0
BBX 8 16 0 -2
BITMAP 
00
00
30
30
30
68
68
68
cc
cc
cc
86
86
86
00
00
ENDCHAR
STARTCHAR U+0669
ENCODING 1641
SWIDTH 500 0
DWIDTH 8 0
BBX 8 16 0 -2
BITMAP 
00
70
d8
d8
98
98
b8
e8
0c
0c
0c
06
06
06
00
00
ENDCHAR
STARTCHAR U+066B
ENCODING 1643
SWIDTH 500 0
DWIDTH 8 0
BBX 8 16 0 -2
BITMAP 
00
00
00
00
00
00
18
1c
0c
0c
18
70
00
00
00
00
ENDCHAR
STARTCHAR U+066C
ENCODING 1644
SWIDTH 500 0
DWIDTH 8 0
BBX 8 16 0 -2
BITMAP 
00
00
00
00
00
00
00
38
38
18
30
00
00
00
00
00
ENDCHAR
STARTCHAR U+0901
ENCODING 2305
SWIDTH 500 0
DWIDTH 8 0
BBX 8 16 0 -2
BITMAP 
00
1e
1a
0e
0e
00
00
00
00
00
00
00
00
00
00
00
ENDCHAR
STARTCHAR U+0902
ENCODING 2306
SWIDTH 500 0
DWIDTH 8 0
BBX 8 16 0 -2
BITMAP 
00
00
06
06
00
00
00
00
00
00
00
00
00
00
00
00
ENDCHAR
STARTCHAR U+0903
ENCODING 2307
SWIDTH 500 0
DWIDTH 8 0
BBX 8 16 0 -2
BITMAP 
00
00
00
00
00
00
00
07
07
00
00
07
07
00
00
00
ENDCHAR
STARTCHAR U+0905
ENCODING 2309
SWIDTH 500 0
DWIDTH 8 0
BBX 8 16 0 -2
BITMAP 
00
00
00
00
00
ff
ff
fc
fc
fc
dc
fc
fc
6c
0c
00
ENDCHAR
STARTCHAR U+0906
ENCODING 2310
SWIDTH 500 0
DWIDTH 8 0
BBX 8 16 0 -2
BITMAP 
00
00
00
00
00
ff
ff
ff
ff
ff
df
ff
ff
6f
0d
00
ENDCHAR
STARTCHAR U+0907
ENCODING 2311
SWIDTH 500 0
DWIDTH 8 0
BBX 8 16 0 -2
BITMAP 
00
00
00
00
00
ff
ff
78
78
70
78
78
78
78
18
00
ENDCHAR
STARTCHAR U+0908
ENCODING 2312
SWIDTH 500 0
DWIDTH 8 0
BBX 8 16 0 -2
BITMAP 
00
00
38
38
30
ff
ff
78
78
70
78
78
78
78
18
00
ENDCHAR
STARTCHAR U+0909
ENCODING 2313
SWIDTH 500 0
DWIDTH 8 0
BBX 8 16 0 -2
BITMAP 
00
00
00
00
00
ff
ff
1c
3c
38
68
6c
3c
38
00
00
ENDCHAR
STARTCHAR U+090A
ENCODING 2314
SWIDTH 500 0
DWIDTH 8 0
BBX 8 16 0 -2
BITMAP 
00
00
00
00
00
ff
ff
38
78
7c
dc
de
7e
74
00
00
ENDCHAR
STARTCHAR U+090B
ENCODING 2315
SWIDTH 500 0
DWIDTH 8 0
BBX 8 16 0 -2
BITMAP 
00
00
00
00
00
ff
ff
f0
fc
3c
7c
f6
fc
36
36
00
ENDCHAR
STARTCHAR U+090C
ENCODING 2316
SWIDTH 500 0
DWIDTH 8 0
BBX 8 16 0 -2
BITMAP 
00
00
00
00
00
ff
ff
1c
ec
fc
d6
ce
ec
68
6c
1c
ENDCHAR
STARTCHAR U+090D
ENCODING 2317
SWIDTH 500 0
DWIDTH 8 0
BBX 8 16 0 -2
BITMAP 
00
68
38
38
38
ff
ff
68
68
68
68
70
38
1c
0c
1c
ENDCHAR
STARTCHAR U+090E
ENCODING 2318
SWIDTH 500 0
DWIDTH 8 0
BBX 8 16 0 -2
BITMAP 
00
e0
70
78
18
ff
ff
68
68
68
68
70
38
1c
0c
1c
ENDCHAR
STARTCHAR U+090F
ENCODING 2319
SWIDTH 500 0
DWIDTH 8 0
BBX 8 16 0 -2
BITMAP 
00
00
00
00
00
ff
ff
68
68
68
68
70
38
1c
0c
1c
ENDCHAR
STARTCHAR U+0910
ENCODING 2320
SWIDTH 500 0
DWIDTH 8 0
BBX 8 16 0 -2
BITMAP 
00
60
70
38
18
ff
ff
68
68
68
68
70
38
1c
0c
1c
ENDCHAR
STARTCHAR U+0911
ENCODING 2321
SWIDTH 500 0
DWIDTH 8 0
BBX 8 16 0 -2
BITMAP 
00
0f
0f
0f
06
ff
ff
ff
ff
ff
df
ff
ff
6f
0d
00
ENDCHAR
STARTCHAR U+0912
ENCODING 2322
SWIDTH 500 0
DWIDTH 8 0
BBX 8 16 0 -2
BITMAP 
00
38
1c
1e
06
ff
ff
ff
ff
ff
df
ff
ff
6f
0d
00
ENDCHAR
STARTCHAR U+0913
ENCODING 2323
SWIDTH 500 0
DWIDTH 8 0
BBX 8 16 0 -2
BITMAP 
00
18
1c
0e
06
ff
ff
ff
ff
ff
df
ff
ff
6f
0d
00
ENDCHAR
STARTCHAR U+0914
ENCODING 2324
SWIDTH 500 0
DWIDTH 8 0
BBX 8 16 0 -2
BITMAP 
0c
0c
1a
1e
0e
ff
ff
ff
ff
ff
df
ff
ff
6f
0d
00
ENDCHAR
STARTCHAR U+0915
ENCODING 2325
SWIDTH 500 0
DWIDTH 8 0
BBX 8 16 0 -2
BITMAP 
00
00
00
00
00
ff
ff
70
fc
fc
f4
74
34
34
30
00
ENDCHAR
STARTCHAR U+0916
ENCODING 2326
SWIDTH 500 0
DWIDTH 8 0
BBX 8 16 0 -2
BITMAP 
00
00
00
00
00
ff
ff
74
7c
7c
7c
6c
74
34
0c
00
ENDCHAR
STARTCHAR U+0917
ENCODING 2327
SWIDTH 500 0
DWIDTH 8 0
BBX 8 16 0 -2
BITMAP 
00
00
00
00
00
ff
ff
7c
7c
7c
7c
7c
1c
1c
0c
00
ENDCHAR
STARTCHAR U+0918
ENCODING 2328
SWIDTH 500 0
DWIDTH 8 0
BBX 8 16 0 -2
BITMAP 
00
00
00
00
00
ff
ff
6c
7c
7c
7c
3c
1c
1c
0c
00
ENDCHAR
STARTCHAR U+0919
ENCODING 2329
SWIDTH 500 0
DWIDTH 8 0
BBX 8 16 0 -2
BITMAP 
00
00
00
00
00
ff
ff
78
78
7c
d8
68
78
30
00
00
ENDCHAR
STARTCHAR U+091A
ENCODING 2330
SWIDTH 500 0
DWIDTH 8 0
BBX 8 16 0 -2
BITMAP 
00
00
00
00
00
ff
ff
1c
fc
7c
7c
3c
1c
1c
0c
00
ENDCHAR
STARTCHAR U+091B
ENCODING 2331
SWIDTH 500 0
DWIDTH 8 0
BBX 8 16 0 -2
BITMAP 
00
00
00
00
00
ff
ff
fc
fc
dc
7c
74
6c
7a
7e
0e
ENDCHAR
STARTCHAR U+091C
ENCODING 2332
SWIDTH 500 0
DWIDTH 8 0
BBX 8 16 0 -2
BITMAP 
00
00
00
00
00
ff
ff
0c
dc
7c
6c
6c
3c
34
0c
00
ENDCHAR
STARTCHAR U+091D
ENCODING 2333
SWIDTH 500 0
DWIDTH 8 0
BBX 8 16 0 -2
BITMAP 
00
00
00
00
00
ff
ff
74
f4
7c
7c
7c
f4
74
3c
00
ENDCHAR
STARTCHAR U+091E
ENCODING 2334
SWIDTH 500 0
DWIDTH 8 0
BBX 8 16 0 -2
BITMAP 
00
00
00
00
00
ff
ff
0c
74
3c
7c
74
74
0c
00
00
ENDCHAR
STARTCHAR U+091F
ENCODING 2335
SWIDTH 500 0
DWIDTH 8 0
BBX 8 16 0 -2
BITMAP 
00
00
00
00
00
ff
ff
18
38
78
60
60
7c
3c
00
00
ENDCHAR
STARTCHAR U+0920
ENCODING 2336
SWIDTH 500 0
DWIDTH 8 0
BBX 8 16 0 -2
BITMAP 
00
00
00
00
00
ff
ff
18
78
78
6c
6c
7c
38
00
00
ENDCHAR
STARTCHAR U+0921
ENCODING 2337
SWIDTH 500 0
DWIDTH 8 0
BBX 8 16 0 -2
BITMAP 
00
00
00
00
00
ff
ff
3c
3c
38
7c
6c
3c
38
00
00
ENDCHAR
STARTCHAR U+0922
ENCODING 2338
SWIDTH 500 0
DWIDTH 8 0
BBX 8 16 0 -2
BITMAP 
00
00
00
00
00
ff
ff
38
78
60
68
7c
3c
3c
00
00
ENDCHAR
STARTCHAR U+0923
ENCODING 2339
SWIDTH 500 0
DWIDTH 8 0
BBX 8 16 0 -2
BITMAP 
00
00
00
00
00
ff
ff
7c
7c
7c
7c
34
0c
0c
00
00
ENDCHAR
STARTCHAR U+0924
ENCODING 2340
SWIDTH 500 0
DWIDTH 8 0
BBX 8 16 0 -2
BITMAP 
00
00
00
00
00
ff
ff
1c
7c
7c
6c
6c
7c
3c
34
00
ENDCHAR
STARTCHAR U+0925
ENCODING 2341
SWIDTH 500 0
DWIDTH 8 0
BBX 8 16 0 -2
BITMAP 
00
00
00
00
00
7f
7f
74
74
74
7c
3c
0c
0c
00
00
ENDCHAR
STARTCHAR U+0926
ENCODING 2342
SWIDTH 500 0
DWIDTH 8 0
BBX 8 16 0 -2
BITMAP 
00
00
00
00
00
ff
ff
3c
7c
70
78
3c
3c
0c
00
00
ENDCHAR
STARTCHAR U+0927
ENCODING 2343
SWIDTH 500 0
DWIDTH 8 0
BBX 8 16 0 -2
BITMAP 
00
00
00
00
00
3f
6f
6c
7c
7c
7c
3c
1c
1c
0c
00
ENDCHAR
STARTCHAR U+0928
ENCODING 2344
SWIDTH 500 0
DWIDTH 8 0
BBX 8 16 0 -2
BITMAP 
00
00
00
00
00
ff
ff
1c
3c
7c
7c
1c
1c
1c
0c
00
ENDCHAR
STARTCHAR U+0929
ENCODING 2345
SWIDTH 500 0
DWIDTH 8 0
BBX 8 16 0 -2
BITMAP 
00
00
00
00
00
ff
ff
1c
3c
7c
7c
1c
1c
1c
34
00
ENDCHAR
STARTCHAR U+092A
ENCODING 2346
SWIDTH 500 0
DWIDTH 8 0
BBX 8 16 0 -2
BITMAP 
00
00
00
00
00
ff
ff
7c
7c
3c
3c
1c
1c
1c
0c
00
ENDCHAR
STARTCHAR U+092B
ENCODING 2347
SWIDTH 500 0
DWIDTH 8 0
BBX 8 16 0 -2
BITMAP 
00
00
00
00
00
ff
ff
f8
fc
7e
7e
3e
3c
3c
18
00
ENDCHAR
STARTCHAR U+092C
ENCODING 2348
SWIDTH 500 0
DWIDTH 8 0
BBX 8 16 0 -2
BITMAP 
00
00
00
00
00
ff
ff
3c
7c
7c
7c
3c
3c
1c
0c
00
ENDCHAR
STARTCHAR U+092D
ENCODING 2349
SWIDTH 500 0
DWIDTH 8 0
BBX 8 16 0 -2
BITMAP 
00
00
00
00
00
ff
6f
7c
7c
7c
7c
7c
1c
1c
0c
00
ENDCHAR
STARTCHAR U+092E
ENCODING 2350
SWIDTH 500 0
DWIDTH 8 0
BBX 8 16 0 -2
BITMAP 
00
00
00
00
00
ff
ff
74
74
7c
7c
74
0c
0c
00
00
ENDCHAR
STARTCHAR U+092F
ENCODING 2351
SWIDTH 500 0
DWIDTH 8 0
BBX 8 16 0 -2
BITMAP 
00
00
00
00
00
ff
ff
3c
7c
6c
7c
3c
1c
1c
0c
00
ENDCHAR
STARTCHAR U+0930
ENCODING 2352
SWIDTH 500 0
DWIDTH 8 0
BBX 8 16 0 -2
BITMAP 
00
00
00
00
00
ff
ff
30
70
70
30
30
30
18
1c
00
ENDCHAR
STARTCHAR U+0931
ENCODING 2353
SWIDTH 500 0
DWIDTH 8 0
BBX 8 16 0 -2
BITMAP 
00
00
00
00
00
ff
ff
30
70
70
30
30
30
18
1c
70
ENDCHAR
STARTCHAR U+0932
ENCODING 2354
SWIDTH 500 0
DWIDTH 8 0
BBX 8 16 0 -2
BITMAP 
00
00
00
00
00
ff
ff
0c
7c
7c
6c
6c
6c
34
0c
00
ENDCHAR
STARTCHAR U+0933
ENCODING 2355
SWIDTH 500 0
DWIDTH 8 0
BBX 8 16 0 -2
BITMAP 
00
00
00
00
00
ff
ff
18
6c
fc
de
d6
fe
7c
00
00
ENDCHAR
STARTCHAR U+0934
ENCODING 2356
SWIDTH 500 0
DWIDTH 8 0
BBX 8 16 0 -2
BITMAP 
00
00
00
00
00
ff
ff
18
6c
fc
de
d6
fe
7c
00
38
ENDCHAR
STARTCHAR U+0935
ENCODING 2357
SWIDTH 500 0
DWIDTH 8 0
BBX 8 16 0 -2
BITMAP 
00
00
00
00
00
ff
ff
3c
7c
6c
6c
3c
3c
1c
0c
00
ENDCHAR
STARTCHAR U+0936
ENCODING 2358
SWIDTH 500 0
DWIDTH 8 0
BBX 8 16 0 -2
BITMAP 
00
00
00
00
00
ff
ff
6c
6c
3c
7c
7c
74
1c
0c
00
ENDCHAR
STARTCHAR U+0937
ENCODING 2359
SWIDTH 500 0
DWIDTH 8 0
BBX 8 16 0 -2
BITMAP 
00
00
00
00
00
ff
ff
7c
7c
3c
3c
1c
1c
1c
0c
00
ENDCHAR
STARTCHAR U+0938
ENCODING 2360
SWIDTH 500 0
DWIDTH 8 0
BBX 8 16 0 -2
BITMAP 
00
00
00
00
00
ff
ff
74
74
7c
7c
6c
74
34
30
00
ENDCHAR
STARTCHAR U+0939
ENCODING 2361
SWIDTH 500 0
DWIDTH 8 0
BBX 8 16 0 -2
BITMAP 
00
00
00
00
00
ff
ff
18
78
60
78
7c
68
70
38
1c
ENDCHAR
STARTCHAR U+093C
ENCODING 2364
SWIDTH 500 0
DWIDTH 8 0
BBX 8 16 0 -2
BITMAP 
00
00
00
00
00
00
00
00
00
00
00
00
00
00
18
38
ENDCHAR
STARTCHAR U+093D
ENCODING 2365
SWIDTH 500 0
DWIDTH 8 0
BBX 8 16 0 -2
BITMAP 
00
00
00
00
00
3c
7c
70
70
30
78
68
68
38
38
00
ENDCHAR
STARTCHAR U+093E
ENCODING 2366
SWIDTH 500 0
DWIDTH 8 0
BBX 8 16 0 -2
BITMAP 
00
00
00
00
00
f0
f8
60
60
60
60
60
60
60
00
00
ENDCHAR
STARTCHAR U+093F
ENCODING 2367
SWIDTH 500 0
DWIDTH 8 0
BBX 8 16 0 -2
BITMAP 
00
70
78
6c
60
f0
f8
60
60
60
60
60
60
60
00
00
ENDCHAR
STARTCHAR U+0940
ENCODING 2368
SWIDTH 500 0
DWIDTH 8 0
BBX 8 16 0 -2
BITMAP 
00
c0
e0
a0
70
78
7c
30
30
30
30
30
30
30
00
00
ENDCHAR
STARTCHAR U+0941
ENCODING 2369
SWIDTH 500 0
DWIDTH 8 0
BBX 8 16 0 -2
BITMAP 
00
00
00
00
00
00
00
00
00
00
00
00
00
3e
1a
1c
ENDCHAR
STARTCHAR U+0942
ENCODING 2370
SWIDTH 500 0
DWIDTH 8 0
BBX 8 16 0 -2
BITMAP 
00
00
00
00
00
00
00
00
00
00
00
00
00
1c
34
3e
ENDCHAR
STARTCHAR U+0943
ENCODING 2371
SWIDTH 500 0
DWIDTH 8 0
BBX 8 16 0 -2
BITMAP 
00
00
00
00
00
00
00
00
00
00
00
00
00
38
30
3c
ENDCHAR
STARTCHAR U+0944
ENCODING 2372
SWIDTH 500 0
DWIDTH 8 0
BBX 8 16 0 -2
BITMAP 
00
00
00
00
00
00
00
00
00
00
00
38
60
38
30
3c
ENDCHAR
STARTCHAR U+0945
ENCODING 2373
SWIDTH 500 0
DWIDTH 8 0
BBX 8 16 0 -2
BITMAP 
00
68
38
38
38
00
00
00
00
00
00
00
00
00
00
00
ENDCHAR
STARTCHAR U+0946
ENCODING 2374
SWIDTH 500 0
DWIDTH 8 0
BBX 8 16 0 -2
BITMAP 
00
e0
70
78
18
18
00
00
00
00
00
00
00
00
00
00
ENDCHAR
STARTCHAR U+0947
ENCODING 2375
SWIDTH 500 0
DWIDTH 8 0
BBX 8 16 0 -2
BITMAP 
00
60
70
38
18
18
00
00
00
00
00
00
00
00
00
00
ENDCHAR
STARTCHAR U+0948
ENCODING 2376
SWIDTH 500 0
DWIDTH 8 0
BBX 8 16 0 -2
BITMAP 
30
30
78
78
18
00
00
00
00
00
00
00
00
00
00
00
ENDCHAR
STARTCHAR U+0949
ENCODING 2377
SWIDTH 500 0
DWIDTH 8 0
BBX 8 16 0 -2
BITMAP 
00
18
68
38
38
3c
3e
18
18
18
18
18
18
18
00
00
ENDCHAR
STARTCHAR U+094A
ENCODING 2378
SWIDTH 500 0
DWIDTH 8 0
BBX 8 16 0 -2
BITMAP 
00
c0
f0
70
38
3c
3e
18
18
18
18
18
18
18
00
00
ENDCHAR
STARTCHAR U+094B
ENCODING 2379
SWIDTH 500 0
DWIDTH 8 0
BBX 8 16 0 -2
BITMAP 
00
e0
e0
30
30
3c
3e
18
18
18
18
18
18
18
00
00
ENDCHAR
STARTCHAR U+094C
ENCODING 2380
SWIDTH 500 0
DWIDTH 8 0
BBX 8 16 0 -2
BITMAP 
60
70
f0
f8
38
3c
3e
18
18
18
18
18
18
18
00
00
ENDCHAR
STARTCHAR U+094D
ENCODING 2381
SWIDTH 500 0
DWIDTH 8 0
BBX 8 16 0 -2
BITMAP 
00
00
00
00
00
00
00
00
00
00
00
00
00
38
18
18
ENDCHAR
STARTCHAR U+0950
ENCODING 2384
SWIDTH 500 0
DWIDTH 8 0
BBX 8 16 0 -2
BITMAP 
00
00
00
00
0c
34
ea
fe
36
70
fc
7e
de
fe
74
00
ENDCHAR
STARTCHAR U+0951
ENCODING 2385
SWIDTH 500 0
DWIDTH 8 0
BBX 8 16 0 -2
BITMAP 
38
38
38
30
30
00
00
00
00
00
00
00
00
00
00
00
ENDCHAR
STARTCHAR U+0952
ENCODING 2386
SWIDTH 500 0
DWIDTH 8 0
BBX 8 16 0 -2
BITMAP 
00
00
00
00
00
00
00
00
00
00
00
00
00
00
ff
ff
ENDCHAR
STARTCHAR U+0953
ENCODING 2387
SWIDTH 500 0
DWIDTH 8 0
BBX 8 16 0 -2
BITMAP 
30
38
18
18
00
00
00
00
00
00
00
00
00
00
00
00
ENDCHAR
STARTCHAR U+0954
ENCODING 2388
SWIDTH 500 0
DWIDTH 8 0
BBX 8 16 0 -2
BITMAP 
18
38
30
30
00
00
00
00
00
00
00
00
00
00
00
00
ENDCHAR
STARTCHAR U+0958
ENCODING 2392
SWIDTH 500 0
DWIDTH 8 0
BBX 8 16 0 -2
BITMAP 
00
00
00
00
00
ff
ff
70
fc
fc
f4
74
34
74
30
00
ENDCHAR
STARTCHAR U+0959
ENCODING 2393
SWIDTH 500 0
DWIDTH 8 0
BBX 8 16 0 -2
BITMAP 
00
00
00
00
00
ff
ff
74
7c
7c
7c
6c
74
3c
0c
00
ENDCHAR
STARTCHAR U+095A
ENCODING 2394
SWIDTH 500 0
DWIDTH 8 0
BBX 8 16 0 -2
BITMAP 
00
00
00
00
00
ff
ff
7c
7c
7c
7c
7c
1c
3c
34
00
ENDCHAR
STARTCHAR U+095B
ENCODING 2395
SWIDTH 500 0
DWIDTH 8 0
BBX 8 16 0 -2
BITMAP 
00
00
00
00
00
ff
ff
0c
dc
7c
6c
6c
3c
3c
1c
00
ENDCHAR
STARTCHAR U+095C
ENCODING 2396
SWIDTH 500 0
DWIDTH 8 0
BBX 8 16 0 -2
BITMAP 
00
00
00
00
00
ff
ff
3c
3c
38
7c
6c
3c
38
18
18
ENDCHAR
STARTCHAR U+095D
ENCODING 2397
SWIDTH 500 0
DWIDTH 8 0
BBX 8 16 0 -2
BITMAP 
00
00
00
00
00
ff
ff
38
78
60
68
7c
3c
3c
00
38
ENDCHAR
STARTCHAR U+095E
ENCODING 2398
SWIDTH 500 0
DWIDTH 8 0
BBX 8 16 0 -2
BITMAP 
00
00
00
00
00
ff
ff
f8
fc
7e
7e
3e
3c
7c
68
00
ENDCHAR
STARTCHAR U+095F
ENCODING 2399
SWIDTH 500 0
DWIDTH 8 0
BBX 8 16 0 -2
BITMAP 
00
00
00
00
00
ff
ff
3c
7c
6c
7c
3c
1c
1c
0c
30
ENDCHAR
STARTCHAR U+0960
ENCODING 2400
SWIDTH 500 0
DWIDTH 8 0
BBX 8 16 0 -2
BITMAP 
00
00
00
00
00
ff
ff
f0
fc
3c
7c
de
38
36
34
0e
ENDCHAR
STARTCHAR U+0961
ENCODING 2401
SWIDTH 500 0
DWIDTH 8 0
BBX 8 16 0 -2
BITMAP 
00
00
00
00
00
ff
ff
1c
ec
fc
d6
de
e8
6e
68
0e
ENDCHAR
STARTCHAR U+0962
ENCODING 2402
SWIDTH 500 0
DWIDTH 8 0
BBX 8 16 0 -2
BITMAP 
00
00
00
00
00
00
00
00
00
00
00
78
78
68
78
1c
ENDCHAR
STARTCHAR U+0963
ENCODING 2403
SWIDTH 500 0
DWIDTH 8 0
BBX 8 16 0 -2
BITMAP 
00
00
00
00
00
00
00
00
00
00
00
78
78
68
78
1c
ENDCHAR
STARTCHAR U+0964
ENCODING 2404
SWIDTH 500 0
DWIDTH 8 0
BBX 8 16 0 -2
BITMAP 
00
00
00
00
00
60
70
70
70
70
70
70
70
70
30
00
ENDCHAR
STARTCHAR U+0965
ENCODING 2405
SWIDTH 500 0
DWIDTH 8 0
BBX 8 16 0 -2
BITMAP 
00
00
00
00
00
60
78
78
78
78
78
78
78
78
38
00
ENDCHAR
STARTCHAR U+0966
ENCODING 2406
SWIDTH 500 0
DWIDTH 8 0
BBX 8 16 0 -2
BITMAP 
00
00
00
00
00
00
00
60
f0
d0
d0
70
70
00
00
00
ENDCHAR
STARTCHAR U+0967
ENCODING 2407
SWIDTH 500 0
DWIDTH 8 0
BBX 8 16 0 -2
BITMAP 
00
00
00
00
00
30
38
78
78
38
38
70
70
30
30
18
ENDCHAR
STARTCHAR U+0968
ENCODING 2408
SWIDTH 500 0
DWIDTH 8 0
BBX 8 16 0 -2
BITMAP 
00
00
00
00
00
00
f0
78
18
38
f8
70
30
30
30
18
ENDCHAR
STARTCHAR U+0969
ENCODING 2409
SWIDTH 500 0
DWIDTH 8 0
BBX 8 16 0 -2
BITMAP 
00
00
00
00
00
00
e0
70
f0
f0
30
f0
f0
60
30
30
ENDCHAR
STARTCHAR U+096A
ENCODING 2410
SWIDTH 500 0
DWIDTH 8 0
BBX 8 16 0 -2
BITMAP 
00
00
00
00
00
18
dc
78
70
70
70
70
70
30
00
00
ENDCHAR
STARTCHAR U+096B
ENCODING 2411
SWIDTH 500 0
DWIDTH 8 0
BBX 8 16 0 -2
BITMAP 
00
00
00
00
00
00
d0
d0
d0
70
70
70
f0
f0
18
00
ENDCHAR
STARTCHAR U+096C
ENCODING 2412
SWIDTH 500 0
DWIDTH 8 0
BBX 8 16 0 -2
BITMAP 
00
00
00
00
00
70
f0
c0
f0
70
e0
f0
78
70
38
18
ENDCHAR
STARTCHAR U+096D
ENCODING 2413
SWIDTH 500 0
DWIDTH 8 0
BBX 8 16 0 -2
BITMAP 
00
00
00
00
00
00
d0
f8
f8
dc
fc
6c
78
38
00
00
ENDCHAR
STARTCHAR U+096E
ENCODING 2414
SWIDTH 500 0
DWIDTH 8 0
BBX 8 16 0 -2
BITMAP 
00
00
00
00
00
00
f8
f8
60
e0
e0
f8
78
78
00
00
ENDCHAR
STARTCHAR U+096F
ENCODING 2415
SWIDTH 500 0
DWIDTH 8 0
BBX 8 16 0 -2
BITMAP 
00
00
00
00
00
e0
f0
d0
f0
60
60
60
30
30
38
38
ENDCHAR
STARTCHAR U+0970
ENCODING 2416
SWIDTH 500 0
DWIDTH 8 0
BBX 8 16 0 -2
BITMAP 
00
00
00
00
30
38
38
38
00
00
00
00
00
00
00
00
ENDCHAR
STARTCHAR U+0E01
ENCODING 3585
SWIDTH 500 0
DWIDTH 8 0
BBX 8 16 0 -2
BITMAP 
00
00
00
00
00
00
00
7c
c6
e6
66
66
66
66
00
00
ENDCHAR
STARTCHAR U+0E02
ENCODING 3586
SWIDTH 500 0
DWIDTH 8 0
BBX 8 16 0 -2
BITMAP 
00
00
00
00
00
00
00
74
74
34
6c
6c
6c
38
00
00
ENDCHAR
STARTCHAR U+0E03
ENCODING 3587
SWIDTH 500 0
DWIDTH 8 0
BBX 8 16 0 -2
BITMAP 
00
00
00
00
00
00
00
6a
7a
1a
36
36
36
1c
00
00
ENDCHAR
STARTCHAR U+0E04
ENCODING 3588
SWIDTH 500 0
DWIDTH 8 0
BBX 8 16 0 -2
BITMAP 
00
00
00
00
00
00
00
7c
c6
da
da
d6
d6
66
00
00
ENDCHAR
STARTCHAR U+0E05
ENCODING 3589
SWIDTH 500 0
DWIDTH 8 0
BBX 8 16 0 -2
BITMAP 
00
00
00
00
00
00
00
74
da
c6
da
da
d6
66
00
00
ENDCHAR
STARTCHAR U+0E06
ENCODING 3590
SWIDTH 500 0
DWIDTH 8 0
BBX 8 16 0 -2
BITMAP 
00
00
00
00
00
00
00
d6
f6
36
66
66
f6
ec
00
00
ENDCHAR
STARTCHAR U+0E07
ENCODING 3591
SWIDTH 500 0
DWIDTH 8 0
BBX 8 16 0 -2
BITMAP 
00
00
00
00
00
00
00
1c
1c
0c
cc
6c
34
1c
00
00
ENDCHAR
STARTCHAR U+0E08
ENCODING 3592
SWIDTH 500 0
DWIDTH 8 0
BBX 8 16 0 -2
BITMAP 
00
00
00
00
00
00
00
7c
c6
3a
3a
1a
1a
1c
00
00
ENDCHAR
STARTCHAR U+0E09
ENCODING 3593
SWIDTH 500 0
DWIDTH 8 0
BBX 8 16 0 -2
BITMAP 
00
00
00
00
00
00
00
78
cc
0c
ec
ec
6e
76
00
00
ENDCHAR
STARTCHAR U+0E0A
ENCODING 3594
SWIDTH 500 0
DWIDTH 8 0
BBX 8 16 0 -2
BITMAP 
00
00
00
00
00
00
06
76
74
36
66
66
66
3c
00
00
ENDCHAR
STARTCHAR U+0E0B
ENCODING 3595
SWIDTH 500 0
DWIDTH 8 0
BBX 8 16 0 -2
BITMAP 
00
00
00
00
00
00
06
d6
f4
36
66
66
66
3c
00
00
ENDCHAR
STARTCHAR U+0E0C
ENCODING 3596
SWIDTH 500 0
DWIDTH 8 0
BBX 8 16 0 -2
BITMAP 
00
00
00
00
00
00
00
7b
cd
6d
cd
cd
ef
ed
00
00
ENDCHAR
STARTCHAR U+0E0D
ENCODING 3597
SWIDTH 500 0
DWIDTH 8 0
BBX 8 16 0 -2
BITMAP 
00
00
00
00
00
00
00
76
da
6a
da
de
e8
ee
00
00
ENDCHAR
STARTCHAR U+0E0E
ENCODING 3598
SWIDTH 500 0
DWIDTH 8 0
BBX 8 16 0 -2
BITMAP 
00
00
00
00
00
00
00
7c
c6
66
66
66
e6
ea
36
6c
ENDCHAR
STARTCHAR U+0E0F
ENCODING 3599
SWIDTH 500 0
DWIDTH 8 0
BBX 8 16 0 -2
BITMAP 
00
00
00
00
00
00
00
7c
c6
66
66
66
ee
ea
3e
6a
ENDCHAR
STARTCHAR U+0E10
ENCODING 3600
SWIDTH 500 0
DWIDTH 8 0
BBX 8 16 0 -2
BITMAP 
00
00
00
00
00
00
00
3e
78
0e
3a
3a
0e
06
6a
36
ENDCHAR
STARTCHAR U+0E11
ENCODING 3601
SWIDTH 500 0
DWIDTH 8 0
BBX 8 16 0 -2
BITMAP 
00
00
00
00
00
00
00
d4
fa
36
66
66
66
66
00
00
ENDCHAR
STARTCHAR U+0E12
ENCODING 3602
SWIDTH 500 0
DWIDTH 8 0
BBX 8 16 0 -2
BITMAP 
00
00
00
00
00
00
00
6b
d5
cd
f5
f5
df
ed
00
00
ENDCHAR
STARTCHAR U+0E13
ENCODING 3603
SWIDTH 500 0
DWIDTH 8 0
BBX 8 16 0 -2
BITMAP 
00
00
00
00
00
00
00
76
da
6a
da
da
ef
eb
00
00
ENDCHAR
STARTCHAR U+0E14
ENCODING 3604
SWIDTH 500 0
DWIDTH 8 0
BBX 8 16 0 -2
BITMAP 
00
00
00
00
00
00
00
7c
c6
da
da
da
d6
66
00
00
ENDCHAR
STARTCHAR U+0E15
ENCODING 3605
SWIDTH 500 0
DWIDTH 8 0
BBX 8 16 0 -2
BITMAP 
00
00
00
00
00
00
00
74
da
c6
da
da
da
76
00
00
ENDCHAR
STARTCHAR U+0E16
ENCODING 3606
SWIDTH 500 0
DWIDTH 8 0
BBX 8 16 0 -2
BITMAP 
00
00
00
00
00
00
00
7c
c6
e6
66
66
76
76
00
00
ENDCHAR
STARTCHAR U+0E17
ENCODING 3607
SWIDTH 500 0
DWIDTH 8 0
BBX 8 16 0 -2
BITMAP 
00
00
00
00
00
00
00
ec
ea
76
66
66
66
66
00
00
ENDCHAR
STARTCHAR U+0E18
ENCODING 3608
SWIDTH 500 0
DWIDTH 8 0
BBX 8 16 0 -2
BITMAP 
00
00
00
00
00
00
00
7c
c0
f8
6c
6c
6c
38
00
00
ENDCHAR
STARTCHAR U+0E19
ENCODING 3609
SWIDTH 500 0
DWIDTH 8 0
BBX 8 16 0 -2
BITMAP 
00
00
00
00
00
00
00
ec
ec
6c
cc
cc
de
76
00
00
ENDCHAR
STARTCHAR U+0E1A
ENCODING 3610
SWIDTH 500 0
DWIDTH 8 0
BBX 8 16 0 -2
BITMAP 
00
00
00
00
00
00
00
e6
e6
66
66
66
66
3c
00
00
ENDCHAR
STARTCHAR U+0E1B
ENCODING 3611
SWIDTH 500 0
DWIDTH 8 0
BBX 8 16 0 -2
BITMAP 
00
00
00
00
00
06
06
e6
e6
66
66
66
66
3c
00
00
ENDCHAR
STARTCHAR U+0E1C
ENCODING 3612
SWIDTH 500 0
DWIDTH 8 0
BBX 8 16 0 -2
BITMAP 
00
00
00
00
00
00
00
e6
e6
da
da
da
da
74
00
00
ENDCHAR
STARTCHAR U+0E1D
ENCODING 3613
SWIDTH 500 0
DWIDTH 8 0
BBX 8 16 0 -2
BITMAP 
00
00
00
00
00
06
06
e6
e6
da
da
da
da
74
00
00
ENDCHAR
STARTCHAR U+0E1E
ENCODING 3614
SWIDTH 500 0
DWIDTH 8 0
BBX 8 16 0 -2
BITMAP 
00
00
00
00
00
00
00
ea
ea
6a
da
da
da
74
00
00
ENDCHAR
STARTCHAR U+0E1F
ENCODING 3615
SWIDTH 500 0
DWIDTH 8 0
BBX 8 16 0 -2
BITMAP 
00
00
00
00
00
06
06
ea
ea
6a
da
da
da
74
00
00
ENDCHAR
STARTCHAR U+0E20
ENCODING 3616
SWIDTH 500 0
DWIDTH 8 0
BBX 8 16 0 -2
BITMAP 
00
00
00
00
00
00
00
7c
c6
e6
66
66
e6
e6
00
00
ENDCHAR
STARTCHAR U+0E21
ENCODING 3617
SWIDTH 500 0
DWIDTH 8 0
BBX 8 16 0 -2
BITMAP 
00
00
00
00
00
00
00
e6
e6
66
66
66
f6
ec
00
00
ENDCHAR
STARTCHAR U+0E22
ENCODING 3618
SWIDTH 500 0
DWIDTH 8 0
BBX 8 16 0 -2
BITMAP 
00
00
00
00
00
00
00
e6
e6
c6
76
c6
c6
7c
00
00
ENDCHAR
STARTCHAR U+0E23
ENCODING 3619
SWIDTH 500 0
DWIDTH 8 0
BBX 8 16 0 -2
BITMAP 
00
00
00
00
00
00
00
7c
c0
f8
0c
0c
1c
1c
00
00
ENDCHAR
STARTCHAR U+0E24
ENCODING 3620
SWIDTH 500 0
DWIDTH 8 0
BBX 8 16 0 -2
BITMAP 
00
00
00
00
00
00
00
7c
c6
e6
66
66
76
76
06
06
ENDCHAR
STARTCHAR U+0E25
ENCODING 3621
SWIDTH 500 0
DWIDTH 8 0
BBX 8 16 0 -2
BITMAP 
00
00
00
00
00
00
00
7c
c6
36
6a
6e
76
76
00
00
ENDCHAR
STARTCHAR U+0E26
ENCODING 3622
SWIDTH 500 0
DWIDTH 8 0
BBX 8 16 0 -2
BITMAP 
00
00
00
00
00
00
00
7c
c6
e6
66
66
e6
e6
06
06
ENDCHAR
STARTCHAR U+0E27
ENCODING 3623
SWIDTH 500 0
DWIDTH 8 0
BBX 8 16 0 -2
BITMAP 
00
00
00
00
00
00
00
78
cc
0c
0c
0c
1c
1c
00
00
ENDCHAR
STARTCHAR U+0E28
ENCODING 3624
SWIDTH 500 0
DWIDTH 8 0
BBX 8 16 0 -2
BITMAP 
00
00
00
00
00
00
06
7a
cc
c6
da
da
d6
66
00
00
ENDCHAR
STARTCHAR U+0E29
ENCODING 3625
SWIDTH 500 0
DWIDTH 8 0
BBX 8 16 0 -2
BITMAP 
00
00
00
00
00
00
00
e6
e6
6a
6f
66
66
3c
00
00
ENDCHAR
STARTCHAR U+0E2A
ENCODING 3626
SWIDTH 500 0
DWIDTH 8 0
BBX 8 16 0 -2
BITMAP 
00
00
00
00
00
00
06
7a
cc
36
6a
6e
76
76
00
00
ENDCHAR
STARTCHAR U+0E2B
ENCODING 3627
SWIDTH 500 0
DWIDTH 8 0
BBX 8 16 0 -2
BITMAP 
00
00
00
00
00
00
00
ee
ee
6c
6a
76
66
66
00
00
ENDCHAR
STARTCHAR U+0E2C
ENCODING 3628
SWIDTH 500 0
DWIDTH 8 0
BBX 8 16 0 -2
BITMAP 
00
00
00
00
00
00
06
e6
ec
6a
da
da
da
74
00
00
ENDCHAR
STARTCHAR U+0E2D
ENCODING 3629
SWIDTH 500 0
DWIDTH 8 0
BBX 8 16 0 -2
BITMAP 
00
00
00
00
00
00
00
7c
c6
76
76
66
66
3c
00
00
ENDCHAR
STARTCHAR U+0E2E
ENCODING 3630
SWIDTH 500 0
DWIDTH 8 0
BBX 8 16 0 -2
BITMAP 
00
00
00
00
00
00
06
7a
f4
06
76
76
66
3c
00
00
ENDCHAR
STARTCHAR U+0E2F
ENCODING 3631
SWIDTH 500 0
DWIDTH 8 0
BBX 8 16 0 -2
BITMAP 
00
00
00
00
00
00
00
ec
f4
0c
0c
0c
0c
38
00
00
ENDCHAR
STARTCHAR U+0E30
ENCODING 3632
SWIDTH 500 0
DWIDTH 8 0
BBX 8 16 0 -2
BITMAP 
00
00
00
00
00
00
00
00
74
78
00
74
78
00
00
00
ENDCHAR
STARTCHAR U+0E31
ENCODING 3633
SWIDTH 500 0
DWIDTH 8 0
BBX 8 16 0 -2
BITMAP 
00
00
00
00
73
7e
00
00
00
00
00
00
00
00
00
00
ENDCHAR
STARTCHAR U+0E32
ENCODING 3634
SWIDTH 500 0
DWIDTH 8 0
BBX 8 16 0 -2
BITMAP 
00
00
00
00
00
00
00
78
cc
0c
0c
0c
0c
0c
00
00
ENDCHAR
STARTCHAR U+0E33
ENCODING 3635
SWIDTH 500 0
DWIDTH 8 0
BBX 8 16 0 -2
BITMAP 
00
00
00
00
e0
e0
00
3c
66
06
06
06
06
06
00
00
ENDCHAR
STARTCHAR U+0E34
ENCODING 3636
SWIDTH 500 0
DWIDTH 8 0
BBX 8 16 0 -2
BITMAP 
00
00
00
00
7c
fe
00
00
00
00
00
00
00
00
00
00
ENDCHAR
STARTCHAR U+0E35
ENCODING 3637
SWIDTH 500 0
DWIDTH 8 0
BBX 8 16 0 -2
BITMAP 
00
00
00
00
7a
fe
00
00
00
00
00
00
00
00
00
00
ENDCHAR
STARTCHAR U+0E36
ENCODING 3638
SWIDTH 500 0
DWIDTH 8 0
BBX 8 16 0 -2
BITMAP 
00
00
00
00
76
fe
00
00
00
00
00
00
00
00
00
00
ENDCHAR
STARTCHAR U+0E37
ENCODING 3639
SWIDTH 500 0
DWIDTH 8 0
BBX 8 16 0 -2
BITMAP 
00
00
00
00
6a
fe
00
00
00
00
00
00
00
00
00
00
ENDCHAR
STARTCHAR U+0E38
ENCODING 3640
SWIDTH 500 0
DWIDTH 8 0
BBX 8 16 0 -2
BITMAP 
00
00
00
00
00
00
00
00
00
00
00
00
00
00
0e
06
ENDCHAR
STARTCHAR U+0E39
ENCODING 3641
SWIDTH 500 0
DWIDTH 8 0
BBX 8 16 0 -2
BITMAP 
00
00
00
00
00
00
00
00
00
00
00
00
00
00
3a
1e
ENDCHAR
STARTCHAR U+0E3A
ENCODING 3642
SWIDTH 500 0
DWIDTH 8 0
BBX 8 16 0 -2
BITMAP 
00
00
00
00
00
00
00
00
00
00
00
00
00
00
1c
1c
ENDCHAR
STARTCHAR U+0E3F
ENCODING 3647
SWIDTH 500 0
DWIDTH 8 0
BBX 8 16 0 -2
BITMAP 
00
00
00
00
18
fc
6a
6a
6a
7c
6a
6a
6a
fc
18
00
ENDCHAR
STARTCHAR U+0E40
ENCODING 3648
SWIDTH 500 0
DWIDTH 8 0
BBX 8 16 0 -2
BITMAP 
00
00
00
00
00
00
00
18
18
18
18
18
1c
1c
00
00
ENDCHAR
STARTCHAR U+0E41
ENCODING 3649
SWIDTH 500 0
DWIDTH 8 0
BBX 8 16 0 -2
BITMAP 
00
00
00
00
00
00
00
6c
6c
6c
6c
6c
76
76
00
00
ENDCHAR
STARTCHAR U+0E42
ENCODING 3650
SWIDTH 500 0
DWIDTH 8 0
BBX 8 16 0 -2
BITMAP 
00
00
00
7e
c3
fc
0c
0c
0c
0c
0c
0c
0e
0e
00
00
ENDCHAR
STARTCHAR U+0E43
ENCODING 3651
SWIDTH 500 0
DWIDTH 8 0
BBX 8 16 0 -2
BITMAP 
00
00
00
78
cc
d4
74
0c
0c
0c
0c
0c
0e
0e
00
00
ENDCHAR
STARTCHAR U+0E44
ENCODING 3652
SWIDTH 500 0
DWIDTH 8 0
BBX 8 16 0 -2
BITMAP 
00
00
00
ec
34
0c
0c
0c
0c
0c
0c
0c
0e
0e
00
00
ENDCHAR
STARTCHAR U+0E45
ENCODING 3653
SWIDTH 500 0
DWIDTH 8 0
BBX 8 16 0 -2
BITMAP 
00
00
00
00
00
00
00
78
cc
0c
0c
0c
0c
0c
0c
0c
ENDCHAR
STARTCHAR U+0E46
ENCODING 3654
SWIDTH 500 0
DWIDTH 8 0
BBX 8 16 0 -2
BITMAP 
00
00
00
00
00
00
00
f4
ea
06
06
06
06
06
0c
18
ENDCHAR
STARTCHAR U+0E47
ENCODING 3655
SWIDTH 500 0
DWIDTH 8 0
BBX 8 16 0 -2
BITMAP 
00
00
06
7c
d4
6c
00
00
00
00
00
00
00
00
00
00
ENDCHAR
STARTCHAR U+0E48
ENCODING 3656
SWIDTH 500 0
DWIDTH 8 0
BBX 8 16 0 -2
BITMAP 
06
06
06
00
00
00
00
00
00
00
00
00
00
00
00
00
ENDCHAR
STARTCHAR U+0E49
ENCODING 3657
SWIDTH 500 0
DWIDTH 8 0
BBX 8 16 0 -2
BITMAP 
38
1b
3e
00
00
00
00
00
00
00
00
00
00
00
00
00
ENDCHAR
STARTCHAR U+0E4A
ENCODING 3658
SWIDTH 500 0
DWIDTH 8 0
BBX 8 16 0 -2
BITMAP 
68
d5
ee
00
00
00
00
00
00
00
00
00
00
00
00
00
ENDCHAR
STARTCHAR U+0E4B
ENCODING 3659
SWIDTH 500 0
DWIDTH 8 0
BBX 8 16 0 -2
BITMAP 
0c
1e
0c
00
00
00
00
00
00
00
00
00
00
00
00
00
ENDCHAR
STARTCHAR U+0E4C
ENCODING 3660
SWIDTH 500 0
DWIDTH 8 0
BBX 8 16 0 -2
BITMAP 
07
0c
0e
00
00
00
00
00
00
00
00
00
00
00
00
00
ENDCHAR
STARTCHAR U+0E4D
ENCODING 3661
SWIDTH 500 0
DWIDTH 8 0
BBX 8 16 0 -2
BITMAP 
00
0e
0e
00
00
00
00
00
00
00
00
00
00
00
00
00
ENDCHAR
STARTCHAR U+0E4E
ENCODING 3662
SWIDTH 500 0
DWIDTH 8 0
BBX 8 16 0 -2
BITMAP 
00
0f
0c
1a
1c
00
00
00
00
00
00
00
00
00
00
00
ENDCHAR
STARTCHAR U+0E4F
ENCODING 3663
SWIDTH 500 0
DWIDTH 8 0
BBX 8 16 0 -2
BITMAP 
00
00
00
00
00
00
00
00
7c
c6
da
da
c6
7c
00
00
ENDCHAR
STARTCHAR U+0E50
ENCODING 3664
SWIDTH 500 0
DWIDTH 8 0
BBX 8 16 0 -2
BITMAP 
00
00
00
00
00
00
00
7c
c6
c6
c6
c6
c6
7c
00
00
ENDCHAR
STARTCHAR U+0E51
ENCODING 3665
SWIDTH 500 0
DWIDTH 8 0
BBX 8 16 0 -2
BITMAP 
00
00
00
00
00
00
00
7c
c6
c6
da
7a
06
7c
00
00
ENDCHAR
STARTCHAR U+0E52
ENCODING 3666
SWIDTH 500 0
DWIDTH 8 0
BBX 8 16 0 -2
BITMAP 
00
00
00
00
00
c0
c0
da
d6
d6
da
da
c6
7c
00
00
ENDCHAR
STARTCHAR U+0E53
ENCODING 3667
SWIDTH 500 0
DWIDTH 8 0
BBX 8 16 0 -2
BITMAP 
00
00
00
00
00
00
00
74
da
da
da
c6
e6
e6
00
00
ENDCHAR
STARTCHAR U+0E54
ENCODING 3668
SWIDTH 500 0
DWIDTH 8 0
BBX 8 16 0 -2
BITMAP 
00
00
00
00
00
06
06
7c
c0
c0
dc
dc
d8
7e
00
00
ENDCHAR
STARTCHAR U+0E55
ENCODING 3669
SWIDTH 500 0
DWIDTH 8 0
BBX 8 16 0 -2
BITMAP 
00
00
00
00
00
3b
36
7c
c0
c0
dc
dc
d8
7e
00
00
ENDCHAR
STARTCHAR U+0E56
ENCODING 3670
SWIDTH 500 0
DWIDTH 8 0
BBX 8 16 0 -2
BITMAP 
00
00
00
00
00
00
c0
6c
36
06
06
76
76
7c
00
00
ENDCHAR
STARTCHAR U+0E57
ENCODING 3671
SWIDTH 500 0
DWIDTH 8 0
BBX 8 16 0 -2
BITMAP 
00
00
00
00
00
06
06
6a
da
da
da
da
ea
ec
00
00
ENDCHAR
STARTCHAR U+0E58
ENCODING 3672
SWIDTH 500 0
DWIDTH 8 0
BBX 8 16 0 -2
BITMAP 
00
00
00
00
00
00
07
7c
c0
c0
ce
d6
d6
ee
00
00
ENDCHAR
STARTCHAR U+0E59
ENCODING 3673
SWIDTH 500 0
DWIDTH 8 0
BBX 8 16 0 -2
BITMAP 
00
00
00
00
00
06
06
3a
74
d0
d8
d8
ec
ec
00
00
ENDCHAR
STARTCHAR U+0E5A
ENCODING 3674
SWIDTH 500 0
DWIDTH 8 0
BBX 8 16 0 -2
BITMAP 
00
00
00
00
00
00
00
ed
f5
0d
0d
0d
0d
0d
00
00
ENDCHAR
STARTCHAR U+0E5B
ENCODING 3675
SWIDTH 500 0
DWIDTH 8 0
BBX 8 16 0 -2
BITMAP 
00
00
00
00
00
00
e0
e0
d0
d4
d7
d8
d0
60
00
00
ENDCHAR
ENDFONT
